<svg width="305" height="206" viewBox="0 0 305 206" fill="none" xmlns="http://www.w3.org/2000/svg">
<path d="M8.74027 68.1289H54.4722V100.378H8.74027V68.1289Z" fill="#3F3D56"/>
<path d="M0.857559 68.1289H42.6907V100.378H0.857559V68.1289Z" fill="#FFD078"/>
<path d="M0.743269 100.507H42.861V68H0.743269V100.507ZM42.548 100.249H0.999501V68.2578H42.548V100.249Z" fill="#3F3D56"/>
<path d="M15.2001 68.1289V76.1719L17.8182 74.8572L19.8387 76.0946L22.2576 74.8572L24.4774 76.1719V68.1289H15.2001Z" fill="#3F3D56"/>
<path d="M24.4776 83.957H34.1248V84.4734H24.4776V83.957Z" fill="#3F3D56"/>
<path d="M24.4776 87.3604H34.1248V87.8767H24.4776V87.3604Z" fill="#3F3D56"/>
<path d="M24.4776 90.7627H34.1248V91.2791H24.4776V90.7627Z" fill="#3F3D56"/>
<path d="M6.03655 83.2617H21.6599V92.1039H6.03655V83.2617Z" fill="#FEFEFE"/>
<path d="M5.89419 92.2064H21.8021V83.1064H5.89419V92.2064ZM21.5175 91.9486H6.17877V83.3642H21.5175V91.9486Z" fill="#3F3D56"/>
<path d="M143.122 205.862H165.374C165.374 205.862 163.97 201.521 154.111 197.954L154.141 196.958L154.233 191.566H143.702L143.519 196.322L143.122 205.862Z" fill="#3F3D56"/>
<path d="M142.939 206H165.558L165.497 205.834C165.436 205.669 163.97 201.41 154.233 197.871L154.325 191.456H143.489L142.939 206ZM165.161 205.724H143.275L143.824 191.705H154.05L153.958 198.037L154.05 198.065C162.597 201.189 164.764 204.894 165.161 205.724Z" fill="#3F3D56"/>
<path d="M114.124 205.862H136.376C136.376 205.862 134.972 201.521 125.113 197.954L125.204 197.29L126.059 191.566H115.528L115.039 196.544L114.124 205.862Z" fill="#3F3D56"/>
<path d="M113.941 206H136.59L136.529 205.834C136.468 205.668 135.002 201.41 125.265 197.871L126.211 191.428H115.375L113.941 206ZM136.162 205.724H114.276L115.65 191.705H125.876L124.929 198.037L125.052 198.064C133.629 201.189 135.766 204.894 136.162 205.724Z" fill="#3F3D56"/>
<path d="M245.562 205.862H267.814L266.38 195.769L265.8 191.566H255.269L256.52 196.737L256.826 199.06C246.478 201.935 245.562 205.862 245.562 205.862Z" fill="#3F3D56"/>
<path d="M245.379 206H267.997L265.952 191.428H255.086L256.398 196.765L256.673 198.949C246.478 201.797 245.44 205.668 245.409 205.834L245.379 206ZM267.662 205.724H245.776C246.111 204.949 247.973 201.659 256.886 199.198L257.009 199.17L256.703 196.737L255.482 191.732H265.677L267.662 205.724Z" fill="#3F3D56"/>
<path d="M219.921 205.862H242.174L241.624 195.935L241.38 191.566H230.849L231.124 196.875L231.185 198.756C221.325 202.35 219.921 205.862 219.921 205.862Z" fill="#3F3D56"/>
<path d="M219.708 206H242.357L241.533 191.428H230.696L231.002 196.903L231.063 198.7C221.326 202.24 219.86 205.696 219.799 205.834L219.708 206ZM242.021 205.724H220.166C220.623 204.949 222.882 201.936 231.246 198.894L231.337 198.866L231.277 196.875L231.002 191.705H241.227L242.021 205.724Z" fill="#3F3D56"/>
<path d="M160.612 7.77182L145.136 4.61963L143.458 9.95624C143.03 9.67973 142.603 9.51382 142.206 9.51382C140.375 9.51382 140.008 11.5047 140.008 11.5047C139.49 13.6614 141.046 14.9887 141.748 15.9288L136.437 31.3303L149.593 33.1829L150.722 23.3392C162.047 28.5099 160.612 7.77182 160.612 7.77182Z" fill="#FFAC71"/>
<path d="M149.746 33.2932L150.875 23.5048C153.103 24.4726 155.026 24.5279 156.553 23.6154C161.62 20.5738 160.826 8.26924 160.796 7.74388V7.63327L145.045 4.42578L143.397 9.67943C143 9.43057 142.603 9.31997 142.237 9.31997C140.314 9.31997 139.886 11.3938 139.886 11.4214C139.428 13.3017 140.497 14.546 141.26 15.4584C141.382 15.5967 141.504 15.735 141.596 15.8732L136.254 31.3576L149.746 33.2932ZM150.6 23.0901L149.471 32.989L136.651 31.1641L141.932 15.8732L141.901 15.8179C141.779 15.6796 141.657 15.5137 141.504 15.3478C140.772 14.463 139.764 13.274 140.192 11.532C140.222 11.4491 140.558 9.65178 142.237 9.65178C142.603 9.65178 143 9.79003 143.397 10.0665L143.58 10.1771L145.289 4.78524L160.521 7.88213C160.582 9.09876 161.101 20.6015 156.4 23.3942C154.935 24.279 153.042 24.1961 150.845 23.2007L150.6 23.0901Z" fill="#3F3D56"/>
<path d="M165.252 1.74366C164.55 1.60541 162.78 1.74366 161.711 2.54553C161.772 2.43493 161.833 2.32433 161.894 2.21373C163.482 -2.09979 156.797 1.10769 153.256 1.74366C152.524 1.88192 150.906 2.07548 150.906 2.07548C140.314 -0.108937 141.382 9.67944 141.382 9.67944C144.16 9.31998 144.984 12.7487 144.984 12.7487C147.823 11.532 148.708 9.79004 148.8 9.04347C151.547 10.1772 158.598 12.3339 164.428 8.51811C168.427 5.89128 167.023 2.04782 165.252 1.74366Z" fill="#2F2E41"/>
<path d="M226.729 42.7498C226.729 42.7498 231.033 35.4776 231.399 31.8554L229.598 23.8919C229.598 23.8919 229.384 16.2603 240.464 18.1129C240.464 18.1129 240.404 14.5183 243.029 13.6611C243.029 13.6611 241.747 15.6796 242.204 17.6705C242.204 17.6705 244.341 13.2464 248.37 15.569C248.37 15.569 251.484 17.1175 250.66 19.9379C250.66 19.9379 250.721 23.1454 245.867 23.2007C245.867 23.2007 245.928 27.21 256.642 32.6572C256.642 32.6572 265.556 36.5283 264.823 44.9618C264.09 53.3953 255.788 58.7043 255.788 58.7043L225.263 58.7319L226.729 42.7498Z" fill="#2F2E41"/>
<path d="M243.67 45.8461L242.357 31.9377C242.357 31.9377 244.646 30.7211 244.067 28.3431C244.067 28.3431 243.517 26.4352 241.411 27.9007L241.35 24.5273C241.35 24.5273 233.963 27.0435 229.659 23.2554C229.659 23.2554 226.546 36.4171 233.108 36.3895L231.704 47.4498L243.67 45.8461Z" fill="#FFAC71"/>
<path d="M231.551 47.6159L243.853 45.9845L242.54 32.0208C242.967 31.772 244.768 30.5277 244.249 28.3156C244.249 28.288 244.005 27.4861 243.273 27.2649C242.784 27.1266 242.235 27.2372 241.594 27.6243L241.533 24.3339L241.319 24.3892C241.258 24.4168 233.993 26.8225 229.781 23.1449L229.598 22.979L229.537 23.2279C229.445 23.5873 227.461 32.1591 230.33 35.3389C231.002 36.0855 231.887 36.4726 232.955 36.5002L231.551 47.6159ZM243.517 45.7356L231.917 47.2841L233.322 36.2514H233.138C232.07 36.2514 231.215 35.8919 230.574 35.173C228.071 32.3803 229.506 24.9699 229.811 23.532C233.749 26.7395 240.037 25.0805 241.258 24.721L241.319 28.1774L241.563 28.0115C242.204 27.569 242.754 27.4031 243.181 27.5414C243.761 27.7073 243.975 28.3986 243.975 28.3986C244.524 30.6659 242.418 31.7996 242.326 31.8549L242.235 31.9102V31.9932L243.517 45.7356Z" fill="#2F2E41"/>
<path d="M143.489 196.35L154.111 196.958L154.203 191.566H143.672L143.489 196.35Z" fill="#3F3D56"/>
<path d="M115.04 196.544L125.204 197.29L126.059 191.566H115.528L115.04 196.544Z" fill="#3F3D56"/>
<path d="M130.211 80.3003L130.638 82.4018L133.232 95.37L139.948 128.717L140.345 139.722L142.39 194.858H160.155L162.139 129.049L159.331 92.356L158.384 80.3003H130.211Z" fill="#CDCBCC"/>
<path d="M142.237 194.995H160.307V194.857L162.292 129.048L158.537 80.1616H130.027L139.795 128.744L142.237 194.995ZM160.002 194.719H142.512L140.07 128.716L130.363 80.4381H158.201L161.986 129.076L160.002 194.719Z" fill="#3F3D56"/>
<path d="M255.269 191.566L256.551 196.737L266.41 195.769L265.8 191.566H255.269Z" fill="#3F3D56"/>
<path d="M230.849 191.566L231.124 196.903L241.624 195.935L241.38 191.566H230.849Z" fill="#3F3D56"/>
<path d="M112.14 195.134H130.089L140.345 139.721L142.634 127.306L146.541 95.2866L148.098 82.4014H118.947L119.069 92.5769L119.497 126.145L112.14 195.134Z" fill="#CDCBCC"/>
<path d="M111.987 195.271H130.241L130.271 195.161L142.817 127.333L148.311 82.2627H118.825L119.374 126.144L111.987 195.271ZM129.966 194.995H112.323L119.649 126.172L119.1 82.5392H147.945L142.481 127.278L129.966 194.995Z" fill="#3F3D56"/>
<path d="M222.363 120.614L227.064 194.856H243.303L242.754 147.794L242.418 120.945L244.768 96.0597L245.684 86.1331L232.07 85.9395L224.378 85.8013L223.737 96.9445L222.363 120.614Z" fill="#3F3D56"/>
<path d="M226.942 194.995H243.456V194.857L242.571 120.946L245.867 85.9954L224.256 85.6636L222.211 120.614L226.942 194.995ZM243.151 194.718H227.217L222.516 120.614L224.531 85.9401L245.531 86.2719L242.265 120.946L243.151 194.718Z" fill="#3F3D56"/>
<path d="M118.947 82.4011L119.069 92.5766C124.136 94.0974 128.898 94.9822 133.232 95.3693C138.208 95.8394 142.695 95.7011 146.541 95.2587C152.31 94.6227 156.705 93.2955 159.3 92.3277L158.384 80.272H130.21L130.638 82.3734H118.947V82.4011Z" fill="#3F3D56"/>
<path d="M231.887 84.7788L232.07 85.9402L233.81 97.4153L238.419 127.665L242.754 147.795L252.766 194.414L267.631 194.691L260.794 126.2L258.901 90.4196L258.566 84.1152L231.887 84.7788Z" fill="#3F3D56"/>
<path d="M267.814 194.829V194.663L260.977 126.172L258.718 83.9492L231.735 84.6128L238.267 127.693L252.644 194.552L267.814 194.829ZM258.413 84.2534L260.641 126.2L267.479 194.525L252.888 194.248L238.572 127.61L232.07 84.8894L258.413 84.2534Z" fill="#3F3D56"/>
<path d="M225.66 44.7407L213.817 58.7044L197.272 61.6353V72.4192L216.655 70.7601C217.998 70.6495 219.25 70.2071 220.349 69.5158L228.102 64.5387L225.66 44.7407Z" fill="#CDCBCC"/>
<path d="M197.119 72.5852L216.686 70.8984C218.029 70.7878 219.341 70.3454 220.471 69.6265L228.315 64.5941L225.812 44.3813L213.755 58.5662L197.15 61.5248V72.5852H197.119ZM227.98 64.4835L220.288 69.433C219.219 70.1242 217.968 70.539 216.655 70.6496L197.425 72.3086V61.7737L213.908 58.8427L213.938 58.8151L225.568 45.1279L227.98 64.4835Z" fill="#3F3D56"/>
<path d="M150.356 29.6436C150.356 29.6436 148.067 34.5378 137.78 24.8877L120.137 30.7773C117.634 31.7727 115.864 33.8465 115.406 36.2798L112.628 50.4923H122.274L117.817 88.4845C117.817 88.4845 130.821 91.609 140.772 91.8026C157.194 92.1344 160.826 89.4799 160.826 89.4799L160.093 75.9863L159.971 45.294C160.154 40.9251 158.14 37.6347 155.271 34.0954L150.356 29.6436Z" fill="#FFD078"/>
<path d="M143.519 91.9679C157.468 91.9679 160.765 89.6729 160.887 89.5899L160.948 89.5346L160.216 75.9581L160.093 45.2657C160.277 40.9799 158.323 37.6341 155.362 33.9842L150.295 29.3942L150.204 29.5877C150.173 29.6154 149.746 30.4726 148.464 30.6938C146.785 30.9703 143.61 30.1684 137.872 24.7765L137.811 24.7212L137.719 24.7488L120.076 30.6385C117.512 31.6615 115.711 33.763 115.253 36.2516L112.445 50.63H122.091L117.634 88.5945L117.756 88.6222C117.878 88.6498 130.882 91.7467 140.741 91.9679C141.687 91.9679 142.634 91.9679 143.519 91.9679ZM160.643 89.3964C160.093 89.7282 155.79 91.9679 140.741 91.6638C131.462 91.4702 119.343 88.6775 117.97 88.3733L122.426 50.3258H112.811L115.558 36.2792C116.016 33.8736 117.726 31.8551 120.198 30.8873L137.75 25.053C143.549 30.4726 146.846 31.2744 148.555 30.9703C149.654 30.7767 150.204 30.1684 150.417 29.8642L155.179 34.1501C158.17 37.8553 160.002 41.0352 159.819 45.2657L159.941 75.9581L160.643 89.3964Z" fill="#3F3D56"/>
<path d="M160.887 43.9116H209.574V78.2539H160.887V43.9116Z" fill="#3F3D56"/>
<path d="M152.493 43.9116H197.028V78.2539H152.493V43.9116Z" fill="#FEFEFE"/>
<path d="M152.341 78.3917H197.181V43.7729H152.341V78.3917ZM196.876 78.1152H152.646V44.0495H196.876V78.1152Z" fill="#3F3D56"/>
<path d="M167.755 43.9116V52.4834L170.533 51.1008L172.67 52.4004L175.234 51.1008L177.615 52.4834V43.9116H167.755Z" fill="#3F3D56"/>
<path d="M177.584 60.7778H187.871V61.3317H177.584V60.7778Z" fill="#3F3D56"/>
<path d="M177.584 64.4004H187.871V64.9543H177.584V64.4004Z" fill="#3F3D56"/>
<path d="M177.584 68.0229H187.871V68.5768H177.584V68.0229Z" fill="#3F3D56"/>
<path d="M157.988 60.0317H174.623V69.433H157.988V60.0317Z" fill="#FEFEFE"/>
<path d="M157.835 69.5708H174.776V59.8931H157.835V69.5708ZM174.471 69.2943H158.14V60.1696H174.471V69.2943Z" fill="#3F3D56"/>
<path d="M223.737 96.9457C226.301 97.2775 229.811 97.554 233.81 97.4157C237.168 97.3051 240.891 96.918 244.737 96.0608C249.408 95.0101 254.261 93.2405 258.87 90.4201L258.535 84.1157L231.887 84.7793L232.07 85.9407L224.378 85.8301L223.737 96.9457Z" fill="#3F3D56"/>
<path d="M197.12 79.3871C197.394 79.8019 197.761 80.1337 198.188 80.4102C198.615 80.6867 199.104 80.8803 199.623 80.9632L202.034 81.4609C203.591 81.7651 205.178 81.931 206.765 81.931H208.872C209.482 81.931 210.093 81.7927 210.612 81.5162L212.87 80.3825L215.251 80.1337L224.103 79.1659V72.9998L216.655 74.0505L213.206 74.5482L205.728 72.668C205.728 72.668 204.415 75.1289 208.505 76.3732L204.537 78.1428H197.883C197.181 78.0875 196.723 78.8341 197.12 79.3871Z" fill="#E78D4C"/>
<path d="M206.796 82.0418H208.902C209.543 82.0418 210.184 81.9035 210.734 81.5994L212.962 80.4933L224.286 79.2491V72.8064L213.237 74.3825L205.667 72.4746L205.606 72.5852C205.575 72.6129 205.117 73.4977 205.606 74.4931C205.972 75.295 206.826 75.931 208.139 76.3734L204.537 77.9771H197.913C197.517 77.9771 197.15 78.1707 196.967 78.4748C196.784 78.779 196.784 79.1661 196.998 79.4703C197.303 79.885 197.669 80.2445 198.097 80.521C198.554 80.7975 199.043 80.9911 199.562 81.1017L201.973 81.5994C203.591 81.9035 205.178 82.0418 206.796 82.0418ZM223.981 79.0278L212.84 80.2445L210.581 81.3782C210.062 81.627 209.482 81.7653 208.902 81.7653H206.796C205.209 81.7653 203.621 81.5994 202.095 81.2952L199.684 80.7975C199.195 80.6869 198.738 80.521 198.31 80.2445C197.913 79.9956 197.547 79.6638 197.272 79.2767C197.12 79.0555 197.12 78.779 197.242 78.5578C197.364 78.3366 197.639 78.1983 197.913 78.1983H204.598L208.933 76.2628L208.566 76.1522C207.162 75.7374 206.247 75.1014 205.88 74.3272C205.544 73.6359 205.728 73 205.85 72.7511L213.237 74.6037L223.981 73.0829V79.0278Z" fill="#3F3D56"/>
<path d="M167.205 22.7856H197.394V44.0768H167.205V22.7856Z" fill="#3F3D56"/>
<path d="M162.017 22.7856H189.611V44.0768H162.017V22.7856Z" fill="#FFD078"/>
<path d="M161.864 44.2151H189.763V22.6475H161.864V44.2151ZM189.458 43.9386H162.169V22.924H189.458V43.9386Z" fill="#3F3D56"/>
<path d="M171.449 22.7856V28.0946L173.189 27.2374L174.532 28.0393L176.119 27.2374L177.584 28.0946V22.7856H171.449Z" fill="#3F3D56"/>
<path d="M177.554 33.127H183.933V33.6808H177.554V33.127Z" fill="#3F3D56"/>
<path d="M177.554 35.3672H183.933V35.9211H177.554V35.3672Z" fill="#3F3D56"/>
<path d="M177.554 37.6348H183.933V38.1886H177.554V37.6348Z" fill="#3F3D56"/>
<path d="M165.405 32.7681H175.722V38.6024H165.405V32.7681Z" fill="#FEFEFE"/>
<path d="M165.252 38.7402H175.875V32.6294H165.252V38.7402ZM175.569 38.4637H165.557V32.9059H175.569V38.4637Z" fill="#3F3D56"/>
<path d="M215.282 80.1061L224.134 79.1383V72.9722L216.686 74.0229L215.282 80.1061Z" fill="#3F3D56"/>
<path d="M217.968 73.415L223.554 72.4472L224.469 47.6168C224.53 46.0407 225.324 44.5475 226.667 43.5245L232.375 39.2109C232.375 39.2109 233.474 45.543 244.127 39.2109L253.987 42.4184C256.764 43.3309 258.87 45.46 259.542 48.0592L265.769 75.4611C266.349 78.005 264.273 80.4106 261.404 80.4936L258.443 80.5765L259.878 89.3142C259.878 89.3142 249.713 93.2682 239.274 93.8489C227.247 94.5402 223.31 91.941 223.462 91.5815L224.073 82.2909L217.968 82.5121V73.415V73.415Z" fill="#CDCBCC"/>
<path d="M235.367 94.1529C236.557 94.1529 237.87 94.1252 239.274 94.0423C249.622 93.4616 259.817 89.5352 259.939 89.4799L260.061 89.4246L260.03 89.314L258.626 80.7423L261.435 80.6593C262.839 80.604 264.151 80.0233 265.036 79.0003C265.922 78.0048 266.257 76.7052 265.952 75.461L259.725 48.059C259.023 45.3769 256.917 43.2478 254.048 42.3077L244.127 39.0725L244.066 39.1002C239.945 41.5611 236.679 42.4183 234.604 41.5887C232.864 40.8975 232.558 39.2108 232.558 39.2108L232.528 38.9619L226.637 43.4413C225.263 44.4921 224.439 46.0129 224.378 47.6443L223.462 72.3641L217.876 73.3319V82.7331L223.981 82.5119L223.371 91.6367C223.34 91.7196 223.371 91.7749 223.432 91.8579C223.798 92.3832 227.003 94.1529 235.367 94.1529ZM259.695 89.2587C258.565 89.6735 248.981 93.1851 239.243 93.7381C227.736 94.4018 223.798 92.0238 223.615 91.6367V91.609L224.225 82.1524L218.09 82.3736V73.4978L223.676 72.53L224.592 47.589C224.653 46.0405 225.446 44.6027 226.728 43.6072L232.223 39.432C232.375 39.9573 232.894 41.2016 234.39 41.7823C236.588 42.6671 239.823 41.8376 244.097 39.3214L253.895 42.5012C256.642 43.386 258.687 45.4598 259.359 48.059L265.586 75.461C265.861 76.6223 265.525 77.8389 264.731 78.779C263.907 79.7192 262.686 80.2722 261.373 80.3275L258.229 80.4104L259.695 89.2587Z" fill="#3F3D56"/>
<path d="M258.418 80.4193L258.435 80.6958L223.815 82.4971L223.797 82.2206L258.418 80.4193Z" fill="#3F3D56"/>
<path d="M223.432 72.5851L249.774 67.6633L247.393 55.7734L247.088 55.8287L249.439 67.4421L223.371 72.3363L223.432 72.5851Z" fill="#3F3D56"/>
<path d="M111.194 67.9675C110.919 70.7603 112.842 73.3594 115.803 74.189L146.999 82.9819L149.96 83.922C151.089 84.2815 152.31 84.3921 153.501 84.2539L159.483 83.5902C159.85 83.5349 160.247 83.452 160.582 83.3414L167.572 81.0187C168.458 80.7146 169.251 80.1615 169.77 79.4426L169.862 79.3044C170.228 78.8066 169.831 78.143 169.16 78.143H157.927C161.193 76.2628 160.948 74.6037 160.948 74.6037L154.05 75.4609L149.014 76.0139L125.235 65.5066L127.982 53.0914L128.532 50.5752H112.72L112.567 52.0407L111.194 67.9675Z" fill="#FFAC71"/>
<path d="M152.554 84.4471C152.89 84.4471 153.226 84.4195 153.531 84.3918L159.514 83.7282C159.911 83.6729 160.307 83.59 160.643 83.4793L167.633 81.1567C168.579 80.8525 169.343 80.2995 169.892 79.5253L169.984 79.387C170.197 79.1105 170.197 78.7511 170.014 78.4746C169.831 78.1704 169.526 78.0045 169.129 78.0045H158.415C161.284 76.2072 161.101 74.6588 161.07 74.5758L161.04 74.4375L153.989 75.2947L148.983 75.8201L125.357 65.3957L128.684 50.3813H112.567L110.919 67.9396C110.644 70.8153 112.598 73.4421 115.65 74.2993L146.846 83.0922L149.807 84.0324C150.753 84.3089 151.669 84.4471 152.554 84.4471ZM169.22 78.281C169.465 78.281 169.709 78.3916 169.831 78.6128C169.953 78.8064 169.953 79.0552 169.8 79.2488L169.709 79.387C169.19 80.0783 168.457 80.6037 167.603 80.9078L160.613 83.2305C160.277 83.3411 159.911 83.424 159.544 83.4793L153.561 84.143C152.402 84.2812 151.181 84.1706 150.082 83.8112L147.121 82.871L115.925 74.0781C113.025 73.2486 111.163 70.76 111.407 67.9949L113.025 50.6855H128.501L125.204 65.5616L125.296 65.6169L149.105 76.1242L154.203 75.5712L160.918 74.7417C160.887 75.1565 160.552 76.5113 157.957 78.0045L157.53 78.2534H169.22V78.281Z" fill="#3F3D56"/>
<path d="M129.991 44.5814L130.287 44.646L128.601 51.0189L128.305 50.9542L129.991 44.5814Z" fill="#3F3D56"/>
<path d="M112.689 51.9853L128.043 53.0638L128.623 50.5195H112.811L112.689 51.9853Z" fill="#3F3D56"/>
<path d="M194.936 124.636C194.133 124.636 193.339 124.779 192.598 125.057C191.856 125.335 191.183 125.743 190.615 126.256C190.048 126.77 189.597 127.38 189.29 128.052C188.983 128.723 188.825 129.443 188.824 130.17C188.824 128.702 188.181 127.294 187.035 126.256C185.889 125.218 184.335 124.635 182.715 124.635C184.335 124.635 185.889 124.051 187.035 123.013C188.181 121.975 188.824 120.567 188.824 119.099C188.824 120.567 189.468 121.975 190.614 123.013C191.759 124.051 193.313 124.635 194.934 124.635L194.936 124.636Z" fill="#555185"/>
<path d="M211.118 159.618C212.494 159.618 213.61 158.607 213.61 157.36C213.61 156.113 212.494 155.102 211.118 155.102C209.741 155.102 208.625 156.113 208.625 157.36C208.625 158.607 209.741 159.618 211.118 159.618Z" fill="#FFD078"/>
<path d="M108.854 133.889C110.231 133.889 111.346 132.878 111.346 131.631C111.346 130.384 110.231 129.373 108.854 129.373C107.478 129.373 106.362 130.384 106.362 131.631C106.362 132.878 107.478 133.889 108.854 133.889Z" fill="#FFD078"/>
<path d="M194.008 97.0626C195.767 97.0626 197.193 95.7708 197.193 94.1773C197.193 92.5838 195.767 91.292 194.008 91.292C192.25 91.292 190.824 92.5838 190.824 94.1773C190.824 95.7708 192.25 97.0626 194.008 97.0626Z" fill="#FFD078"/>
<path d="M27.4907 135.798C26.1621 135.798 24.888 136.276 23.9486 137.128C23.0091 137.979 22.4814 139.133 22.4814 140.337V140.337C22.4814 139.133 21.9536 137.979 21.0142 137.128C20.0747 136.276 18.8006 135.798 17.472 135.798V135.798C18.8006 135.798 20.0747 135.32 21.0142 134.469C21.9536 133.618 22.4814 132.463 22.4814 131.259V131.259C22.4814 132.463 23.0091 133.618 23.9486 134.469C24.888 135.32 26.1621 135.798 27.4907 135.798V135.798Z" fill="#555185"/>
<path d="M48.8458 154.238C49.7638 154.238 50.508 153.563 50.508 152.731C50.508 151.9 49.7638 151.225 48.8458 151.225C47.9278 151.225 47.1836 151.9 47.1836 152.731C47.1836 153.563 47.9278 154.238 48.8458 154.238Z" fill="#FFD078"/>
<path d="M95.893 78.4665C95.0907 78.4663 94.2962 78.6092 93.5549 78.8872C92.8136 79.1652 92.14 79.5727 91.5725 80.0865C91.005 80.6004 90.5548 81.2105 90.2475 81.882C89.9403 82.5535 89.782 83.2732 89.7817 84.0002C89.7817 82.5321 89.1381 81.1241 87.9924 80.086C86.8467 79.0479 85.2928 78.4647 83.6725 78.4647C85.2928 78.4647 86.8467 77.8815 87.9924 76.8434C89.1381 75.8053 89.7817 74.3973 89.7817 72.9292C89.7817 74.3973 90.4254 75.8053 91.5711 76.8434C92.7168 77.8815 94.2707 78.4647 95.8909 78.4647L95.893 78.4665Z" fill="#555185"/>
<path d="M82.8888 108.058L82.8959 108.058L82.9029 108.058C83.6769 108.036 84.4471 108.155 85.1673 108.407C85.8874 108.66 86.5412 109.04 87.0909 109.522C87.6404 110.005 88.0743 110.58 88.3694 111.211C88.6645 111.843 88.8156 112.519 88.8156 113.201C88.8156 113.883 88.6645 114.559 88.3694 115.191C88.0743 115.822 87.6404 116.397 87.0909 116.88C86.5412 117.362 85.8874 117.742 85.1673 117.995C84.4471 118.247 83.6769 118.366 82.9029 118.344L82.8958 118.344H82.8887L57.4981 118.344L57.4954 118.344C56.7796 118.348 56.0749 118.196 55.4404 117.905C54.806 117.613 54.2625 117.19 53.8524 116.676C53.4425 116.162 53.1772 115.57 53.074 114.952C52.9709 114.333 53.0321 113.701 53.2537 113.106C53.4755 112.511 53.8528 111.968 54.359 111.523C54.8653 111.079 55.4853 110.747 56.1688 110.56C56.8522 110.372 57.5763 110.335 58.2797 110.452C58.9831 110.57 59.6421 110.837 60.2024 111.228L61.1699 111.905L60.9825 110.739C60.6132 108.442 61.2543 106.099 62.781 104.215C64.3094 102.329 66.6053 101.052 69.1796 100.677C71.7542 100.302 74.3842 100.861 76.4996 102.224C78.6138 103.588 80.0374 105.64 80.4823 107.928L80.5871 108.467L81.1139 108.312C81.6866 108.144 82.2856 108.058 82.8888 108.058Z" fill="white" stroke="black"/>
<path d="M93.0608 205.738C93.9788 205.738 94.723 205.064 94.723 204.232C94.723 203.4 93.9788 202.726 93.0608 202.726C92.1428 202.726 91.3986 203.4 91.3986 204.232C91.3986 205.064 92.1428 205.738 93.0608 205.738Z" fill="#FFD078"/>
<path d="M298.936 44.4466L299.043 44.9791L299.565 44.8287C299.952 44.7169 300.358 44.6604 300.766 44.6616C301.783 44.6974 302.736 45.0881 303.429 45.7394C304.122 46.3908 304.5 47.2497 304.5 48.1325C304.501 49.0154 304.124 49.8745 303.431 50.5265C302.739 51.1781 301.787 51.5695 300.771 51.6065H282.903C282.903 51.6065 282.903 51.6065 282.903 51.6065C282.423 51.6065 281.952 51.5028 281.528 51.306C281.105 51.1093 280.745 50.8263 280.474 50.4843C280.203 50.1426 280.029 49.7514 279.962 49.344C279.895 48.9367 279.935 48.5203 280.081 48.1279C280.228 47.7352 280.477 47.3747 280.813 47.0786C281.15 46.7823 281.563 46.5597 282.02 46.4329C282.478 46.306 282.963 46.2795 283.435 46.3561C283.907 46.4326 284.348 46.6093 284.724 46.8686L285.681 47.5296L285.502 46.3802C285.257 44.8101 285.7 43.2095 286.749 41.9203C287.799 40.6291 289.376 39.7521 291.148 39.4929C292.921 39.2337 294.731 39.6157 296.187 40.549C297.643 41.4816 298.623 42.8845 298.936 44.4466Z" fill="white" stroke="black"/>
</svg>
