<svg width="30" height="27" viewBox="0 0 30 27" fill="none" xmlns="http://www.w3.org/2000/svg">
<path d="M15.2856 14.625C17.2714 14.625 18.8812 13.114 18.8812 11.25C18.8812 9.38604 17.2714 7.875 15.2856 7.875C13.2998 7.875 11.6899 9.38604 11.6899 11.25C11.6899 13.114 13.2998 14.625 15.2856 14.625Z" stroke="#FFAF0F" stroke-width="2" stroke-linecap="round" stroke-linejoin="round"/>
<path d="M15.2855 2.25C12.7425 2.25 10.3037 3.19821 8.50552 4.88604C6.70735 6.57387 5.69714 8.86305 5.69714 11.25C5.69714 13.3785 6.17896 14.7712 7.49497 16.3125L15.2855 24.75L23.0761 16.3125C24.3921 14.7712 24.8739 13.3785 24.8739 11.25C24.8739 8.86305 23.8637 6.57387 22.0656 4.88604C20.2674 3.19821 17.8285 2.25 15.2855 2.25V2.25Z" stroke="#FFAF0F" stroke-width="2" stroke-linecap="round" stroke-linejoin="round"/>
</svg>
