<svg width="1512" height="6459" viewBox="0 0 1512 6459" fill="none" xmlns="http://www.w3.org/2000/svg">
<path fill-rule="evenodd" clip-rule="evenodd" d="M523.076 758.985C502.395 700.38 458.236 696.689 420.612 684.439C386.925 673.47 351.731 662.715 322.024 693.521C291.891 724.768 269.482 781.759 266.097 844.669C263.026 901.741 292.733 941.454 305.875 993.62C322.214 1058.48 315.894 1151.25 351.157 1182.31C387.903 1214.68 432.779 1177.93 465.847 1134.55C496.283 1094.63 508.699 1028.36 518.735 962.493C529.093 894.52 544.045 818.403 523.076 758.985Z" stroke="white" stroke-width="2"/>
<path fill-rule="evenodd" clip-rule="evenodd" d="M1151.47 52.15C1194.12 54.8931 1221.2 129.958 1249.07 188.723C1274.03 241.341 1299.73 296.712 1300.41 366.18C1301.1 436.643 1283.82 508.279 1252.6 550.045C1224.27 587.935 1186.44 558.654 1151.47 565.416C1107.99 573.824 1062.7 637.733 1026.26 593.814C988.281 548.051 982.103 448.686 986.137 366.18C989.849 290.243 1017.7 230.782 1046.7 175.708C1076.62 118.873 1108.22 49.3688 1151.47 52.15Z" stroke="white" stroke-width="2"/>
<path fill-rule="evenodd" clip-rule="evenodd" d="M1125.42 1285.46C1147.27 1258.56 1175.8 1278.06 1201.47 1288.9C1224.45 1298.62 1248.35 1309.21 1262.57 1343.42C1276.99 1378.12 1282.68 1425.31 1275.43 1466.83C1268.85 1504.51 1244.1 1514.98 1227.98 1541.53C1207.94 1574.54 1198.09 1636.43 1171.11 1638.68C1143 1641.01 1120.06 1595.53 1105.59 1551.7C1092.27 1511.35 1094.3 1463.23 1097.78 1416.53C1101.37 1368.35 1103.26 1312.73 1125.42 1285.46Z" stroke="white" stroke-width="2"/>
<path fill-rule="evenodd" clip-rule="evenodd" d="M1054.23 2780.31C1086.3 2784.87 1114.71 2810.56 1143.69 2835.98C1176.64 2864.88 1215.27 2883.03 1235.11 2938.97C1255.83 2997.38 1260.06 3073.12 1251.89 3141.04C1243.98 3206.82 1211.12 3248.53 1191.07 3305.12C1166.86 3373.45 1164.35 3483.36 1121.8 3508.15C1079.51 3532.79 1042.84 3445.52 1001.61 3415.51C965.271 3389.06 921.72 3392.26 893.854 3342.25C865.236 3290.89 854.933 3215.36 849.684 3142.84C844.479 3070.93 844.213 2994.13 864.108 2931.28C883.34 2870.54 920.009 2837.21 955.316 2809.18C986.556 2784.37 1020.25 2775.47 1054.23 2780.31Z" stroke="white" stroke-width="2"/>
<path fill-rule="evenodd" clip-rule="evenodd" d="M309.428 2717.37C286.898 2713.15 265.427 2724.42 243.587 2735.37C218.747 2747.82 190.723 2751.51 173.085 2785.73C154.666 2821.47 146.465 2873.02 147.395 2922C148.296 2969.45 168.149 3005.94 178.1 3049.8C190.115 3102.77 184.2 3179.57 211.946 3206.56C239.528 3233.39 271.003 3181.32 301.655 3170C328.668 3160.03 358.613 3172.29 381.398 3144.02C404.797 3115 417.193 3065 425.878 3015.91C434.49 2967.24 440.022 2914.04 430.616 2865.87C421.524 2819.31 398.443 2787.76 375.938 2760.18C356.025 2735.78 333.303 2721.85 309.428 2717.37Z" stroke="white" stroke-width="2"/>
<path fill-rule="evenodd" clip-rule="evenodd" d="M325.344 5019.03C299.686 5022.68 276.953 5043.25 253.769 5063.6C227.402 5086.75 196.492 5101.29 180.617 5146.08C164.04 5192.85 160.657 5253.49 167.194 5307.88C173.525 5360.56 199.811 5393.95 215.856 5439.27C235.23 5493.98 237.237 5581.99 271.28 5601.84C305.12 5621.57 334.457 5551.69 367.449 5527.66C396.524 5506.48 431.37 5509.04 453.667 5469C476.564 5427.87 484.808 5367.4 489.008 5309.33C493.172 5251.75 493.385 5190.24 477.467 5139.92C462.079 5091.28 432.739 5064.6 404.489 5042.15C379.493 5022.28 352.532 5015.16 325.344 5019.03Z" stroke="white" stroke-width="2"/>
<path fill-rule="evenodd" clip-rule="evenodd" d="M949.029 4228.63C971.283 4217.57 993.887 4222.41 1016.83 4226.81C1042.93 4231.82 1071.43 4227.06 1092.28 4256.12C1114.05 4286.47 1127 4335.8 1130.54 4385.31C1133.97 4433.27 1117.35 4475.95 1111.36 4523.05C1104.12 4579.91 1117.08 4655.31 1091.67 4690.83C1066.4 4726.14 1030.02 4683.31 998.183 4681.21C970.129 4679.36 941.157 4700.72 915.68 4679.21C889.516 4657.11 872.493 4610.6 859.283 4563.89C846.184 4517.58 835.765 4465.78 840.817 4414.53C845.701 4364.98 866.011 4326.29 886.107 4291.77C903.888 4261.22 925.447 4240.35 949.029 4228.63Z" stroke="white" stroke-width="2"/>
<path fill-rule="evenodd" clip-rule="evenodd" d="M1087.89 2064.53C1113.66 2126.45 1098.8 2212.07 1091.37 2288.52C1084.72 2356.97 1077.37 2428.21 1048.2 2473.04C1018.62 2518.52 977.198 2539.39 939.686 2521.71C905.654 2505.68 894.228 2433.79 869.259 2388.72C838.216 2332.68 782.389 2309.15 778.078 2229.98C773.585 2147.49 812.008 2076.01 849.7 2029.59C884.391 1986.87 927.312 1988.61 969.085 1994.74C1012.19 2001.06 1061.76 2001.75 1087.89 2064.53Z" stroke="white" stroke-width="2"/>
<path fill-rule="evenodd" clip-rule="evenodd" d="M503.475 2093.97C480.275 2103.84 459.657 2070.6 439.923 2046.35C422.253 2024.64 403.961 2001.65 398.018 1964.4C391.99 1926.62 395.546 1883.43 409.014 1852.63C421.232 1824.68 443.968 1830.39 462.265 1817.45C485.014 1801.35 504.281 1754.88 527.441 1768.85C551.575 1783.4 562.882 1835.29 567.333 1880.81C571.43 1922.71 561.198 1962.15 549.999 1999.54C538.441 2038.12 526.998 2083.97 503.475 2093.97Z" stroke="white" stroke-width="2"/>
<path fill-rule="evenodd" clip-rule="evenodd" d="M376.981 4049.83C406.279 4033.86 438.531 4055.68 464.319 4085.53C491.165 4116.59 514.824 4161.77 522.248 4217.94C529.435 4272.3 519.949 4331.13 502.949 4377.77C488.242 4418.11 461.196 4433.47 436.704 4452.62C417.524 4467.61 397.76 4472.39 376.981 4476.23C353.438 4480.57 327.687 4499.46 307.725 4476.41C287.603 4453.18 285.379 4403 277.959 4361.89C270.52 4320.67 255.819 4277.66 264.572 4237.3C273.26 4197.23 303.471 4192.8 320.944 4163.66C342.107 4128.36 349.446 4064.83 376.981 4049.83Z" stroke="white" stroke-width="2"/>
<path fill-rule="evenodd" clip-rule="evenodd" d="M982.713 4975.94C967.211 4964.25 950.146 4980.23 936.501 5002.08C922.297 5024.83 909.778 5057.91 905.85 5099.04C902.048 5138.85 907.067 5181.92 916.062 5216.07C923.843 5245.62 938.154 5256.87 951.113 5270.88C961.261 5281.86 971.719 5285.36 982.713 5288.17C995.17 5291.35 1008.8 5305.18 1019.36 5288.31C1030 5271.29 1031.18 5234.55 1035.11 5204.45C1039.04 5174.26 1046.82 5142.77 1042.19 5113.22C1037.59 5083.88 1021.61 5080.63 1012.36 5059.3C1001.17 5033.45 997.282 4986.93 982.713 4975.94Z" stroke="white" stroke-width="2"/>
<path fill-rule="evenodd" clip-rule="evenodd" d="M1124.95 5957.26C1140.54 5945.96 1146.64 5912.85 1148.05 5879.87C1149.51 5845.54 1145.81 5805.94 1132.87 5771.48C1120.34 5738.12 1100.23 5713.62 1080.7 5700.56C1063.8 5689.27 1049.24 5699.37 1034.58 5705.77C1023.1 5710.79 1014.26 5721.55 1005.31 5733.49C995.162 5747.02 980.097 5754.41 978.994 5779.91C977.883 5805.62 991.117 5833.44 999.84 5860C1008.58 5886.63 1015.08 5919.07 1029.72 5934.37C1044.26 5949.56 1056.96 5931.6 1071.76 5935.16C1089.69 5939.47 1110.3 5967.88 1124.95 5957.26Z" stroke="white" stroke-width="2"/>
<g clip-path="url(#clip0_665_16)">
<path fill-rule="evenodd" clip-rule="evenodd" d="M283.866 6368.86C307.298 6359.53 316.478 6332.19 318.591 6304.95C320.79 6276.6 315.222 6243.9 295.768 6215.44C276.937 6187.89 246.722 6167.66 217.365 6156.87C191.967 6147.55 170.074 6155.89 148.041 6161.18C130.786 6165.32 117.504 6174.21 104.044 6184.07C88.7939 6195.24 66.1498 6201.34 64.4927 6222.4C62.8223 6243.63 82.7141 6266.61 95.8241 6288.54C108.968 6310.53 118.725 6337.32 140.736 6349.96C162.584 6362.51 181.672 6347.67 203.921 6350.61C230.868 6354.17 261.844 6377.63 283.866 6368.86Z" stroke="white" stroke-opacity="0.11" stroke-width="2"/>
<path fill-rule="evenodd" clip-rule="evenodd" d="M255.165 6334.05C273.007 6326.95 279.997 6306.13 281.606 6285.39C283.28 6263.8 279.041 6238.9 264.228 6217.23C249.889 6196.26 226.883 6180.85 204.53 6172.64C185.191 6165.54 168.521 6171.89 151.745 6175.92C138.606 6179.07 128.493 6185.84 118.244 6193.35C106.632 6201.86 89.3904 6206.5 88.1286 6222.53C86.8567 6238.7 102.003 6256.19 111.985 6272.9C121.993 6289.64 129.423 6310.04 146.182 6319.66C162.818 6329.21 177.352 6317.92 194.293 6320.16C214.811 6322.86 238.397 6340.73 255.165 6334.05Z" stroke="white" stroke-opacity="0.11" stroke-width="2"/>
<path fill-rule="evenodd" clip-rule="evenodd" d="M331.174 6391.75C363.998 6378.68 376.858 6340.38 379.818 6302.22C382.899 6262.5 375.099 6216.69 347.847 6176.83C321.467 6138.24 279.141 6109.9 238.016 6094.79C202.437 6081.72 171.769 6093.41 140.905 6100.82C116.733 6106.62 98.1269 6119.07 79.2714 6132.89C57.9079 6148.54 26.1871 6157.08 23.8658 6186.58C21.5258 6216.32 49.391 6248.51 67.7562 6279.24C86.1682 6310.04 99.837 6347.57 130.671 6365.28C161.276 6382.85 188.016 6362.07 219.183 6366.18C256.931 6371.17 300.325 6404.04 331.174 6391.75Z" stroke="white" stroke-opacity="0.11" stroke-width="2"/>
<path fill-rule="evenodd" clip-rule="evenodd" d="M389.32 6449.55C431.616 6432.71 448.185 6383.35 451.999 6334.19C455.97 6283.01 445.919 6223.98 410.804 6172.62C376.812 6122.89 322.274 6086.37 269.283 6066.91C223.439 6050.07 183.921 6065.13 144.151 6074.67C113.005 6082.15 89.0304 6098.19 64.7344 6115.99C37.2068 6136.16 -3.66667 6147.17 -6.65781 6185.18C-9.67298 6223.5 26.2325 6264.98 49.8966 6304.57C73.6212 6344.27 91.234 6392.62 130.964 6415.44C170.401 6438.08 204.856 6411.3 245.016 6416.61C293.656 6423.03 349.57 6465.38 389.32 6449.55Z" stroke="white" stroke-opacity="0.11" stroke-width="2"/>
</g>
<g clip-path="url(#clip1_665_16)">
<path fill-rule="evenodd" clip-rule="evenodd" d="M1528.14 6415.47C1543.89 6383.95 1528.04 6346.9 1504.91 6316.53C1480.84 6284.92 1444.62 6256 1397.87 6244.41C1352.62 6233.2 1302.29 6240.2 1261.65 6256.26C1226.49 6270.15 1211.42 6299.21 1193.37 6325.21C1179.22 6345.57 1173.64 6367.19 1168.77 6389.99C1163.26 6415.83 1145.32 6443.24 1163.18 6466.75C1181.18 6490.44 1223.29 6495.9 1257.36 6506.58C1291.51 6517.29 1326.6 6536.15 1361.31 6528.86C1395.75 6521.63 1401.86 6488.41 1427.8 6470.78C1459.21 6449.43 1513.33 6445.09 1528.14 6415.47Z" stroke="white" stroke-opacity="0.11" stroke-width="2"/>
<path fill-rule="evenodd" clip-rule="evenodd" d="M1573.65 6376.1C1592.29 6341.68 1573.04 6300.97 1545.13 6267.53C1516.08 6232.72 1472.51 6200.77 1416.45 6187.74C1362.19 6175.12 1301.99 6182.43 1253.45 6199.73C1211.46 6214.69 1193.62 6246.42 1172.19 6274.78C1155.41 6296.99 1148.88 6320.64 1143.22 6345.59C1136.81 6373.85 1115.52 6403.76 1137.07 6429.64C1158.8 6455.73 1209.25 6462.02 1250.12 6473.97C1291.09 6485.95 1333.24 6506.87 1374.74 6499.13C1415.93 6491.45 1423 6455.1 1453.92 6435.97C1491.37 6412.81 1556.14 6408.45 1573.65 6376.1Z" stroke="white" stroke-opacity="0.11" stroke-width="2"/>
<path fill-rule="evenodd" clip-rule="evenodd" d="M1465.84 6405.86C1477.84 6381.86 1465.76 6353.65 1448.15 6330.53C1429.82 6306.46 1402.25 6284.44 1366.65 6275.62C1332.19 6267.08 1293.88 6272.41 1262.93 6284.63C1236.16 6295.21 1224.68 6317.34 1210.93 6337.13C1200.17 6352.64 1195.91 6369.1 1192.21 6386.46C1188.01 6406.14 1174.35 6427.01 1187.95 6444.9C1201.65 6462.94 1233.72 6467.1 1259.66 6475.24C1285.67 6483.39 1312.38 6497.75 1338.81 6492.2C1365.04 6486.69 1369.69 6461.4 1389.44 6447.98C1413.35 6431.72 1454.56 6428.42 1465.84 6405.86Z" stroke="white" stroke-opacity="0.11" stroke-width="2"/>
<path fill-rule="evenodd" clip-rule="evenodd" d="M1598.75 6395.35C1620.83 6351.19 1598.62 6299.29 1566.22 6256.75C1532.5 6212.47 1481.76 6171.95 1416.27 6155.72C1352.88 6140.01 1282.39 6149.82 1225.45 6172.31C1176.2 6191.77 1155.09 6232.48 1129.79 6268.9C1109.98 6297.43 1102.16 6327.72 1095.35 6359.66C1087.63 6395.85 1062.49 6434.25 1087.5 6467.18C1112.72 6500.36 1171.71 6508.02 1219.44 6522.98C1267.28 6537.98 1316.44 6564.4 1365.05 6554.19C1413.31 6544.05 1421.87 6497.52 1458.19 6472.83C1502.19 6442.92 1578.01 6436.84 1598.75 6395.35Z" stroke="white" stroke-opacity="0.11" stroke-width="2"/>
<path fill-rule="evenodd" clip-rule="evenodd" d="M1722.14 6407.91C1750.58 6351.02 1721.96 6284.14 1680.22 6229.32C1636.76 6172.26 1571.39 6120.06 1487.01 6099.15C1405.32 6078.91 1314.49 6091.54 1241.13 6120.52C1177.66 6145.59 1150.46 6198.05 1117.87 6244.98C1092.34 6281.74 1082.26 6320.77 1073.48 6361.92C1063.53 6408.56 1031.14 6458.04 1063.37 6500.46C1095.87 6543.23 1171.88 6553.09 1233.37 6572.37C1295.02 6591.7 1358.36 6625.75 1421 6612.59C1483.19 6599.53 1494.21 6539.56 1541.02 6507.75C1597.72 6469.21 1695.41 6461.38 1722.14 6407.91Z" stroke="white" stroke-opacity="0.11" stroke-width="2"/>
</g>
<ellipse cx="136.242" cy="76.2457" rx="136.242" ry="76.2457" transform="matrix(0.061295 0.99812 -0.979929 0.199346 419.467 2164)" fill="url(#paint0_radial_665_16)" fill-opacity="0.3"/>
<ellipse cx="77.62" cy="135.464" rx="77.62" ry="135.464" transform="matrix(0.954663 0.29769 -0.0937191 0.995599 948.773 2224)" fill="url(#paint1_radial_665_16)" fill-opacity="0.4"/>
<ellipse cx="100.902" cy="176.096" rx="100.902" ry="176.096" transform="matrix(0.954663 0.29769 -0.0937191 0.995599 928.926 4240.61)" fill="url(#paint2_radial_665_16)" fill-opacity="0.1"/>
<ellipse cx="128.177" cy="74.8012" rx="128.177" ry="74.8012" transform="matrix(0.113355 -0.993555 0.935423 0.35353 331.732 5139.52)" fill="url(#paint3_radial_665_16)" fill-opacity="0.4"/>
<ellipse cx="16.9917" cy="30.731" rx="16.9917" ry="30.731" transform="matrix(-0.993064 0.117574 -0.0357179 -0.999362 1031.66 5075.81)" fill="url(#paint4_radial_665_16)" fill-opacity="0.4"/>
<ellipse cx="44.3835" cy="80.2714" rx="44.3835" ry="80.2714" transform="matrix(-0.993064 0.117574 -0.0357179 -0.999362 218.784 5522.5)" fill="url(#paint5_radial_665_16)" fill-opacity="0.4"/>
<ellipse cx="106.178" cy="59.4163" rx="106.178" ry="59.4163" transform="matrix(-0.061178 -0.998127 0.980004 -0.198979 1094.71 5903.75)" fill="url(#paint6_radial_665_16)" fill-opacity="0.4"/>
<ellipse cx="17.1142" cy="30.663" rx="17.1142" ry="30.663" transform="matrix(0.982828 0.184524 -0.0565861 0.998398 1164.52 3454)" fill="url(#paint7_radial_665_16)" fill-opacity="0.4"/>
<ellipse cx="16.9917" cy="30.731" rx="16.9917" ry="30.731" transform="matrix(-0.993064 0.117574 -0.0357179 -0.999362 850.693 1865.68)" fill="url(#paint8_radial_665_16)" fill-opacity="0.4"/>
<ellipse cx="18.0333" cy="30.1315" rx="18.0333" ry="30.1315" transform="matrix(0.909411 0.415898 -0.136759 0.990604 240.288 574.176)" fill="url(#paint9_radial_665_16)" fill-opacity="0.4"/>
<ellipse cx="777.094" cy="1682.23" rx="123.749" ry="225.229" fill="url(#paint10_radial_665_16)" fill-opacity="0.4"/>
<ellipse cx="79.3185" cy="142.37" rx="79.3185" ry="142.37" transform="matrix(-0.984792 -0.173738 0.053182 -0.998585 517.395 775.699)" fill="url(#paint11_radial_665_16)" fill-opacity="0.4"/>
<ellipse cx="67.0411" cy="45.6714" rx="67.0411" ry="45.6714" transform="matrix(0.232155 0.972679 -0.784531 0.62009 1151.87 0)" fill="url(#paint12_radial_665_16)" fill-opacity="0.4"/>
<ellipse cx="136.242" cy="76.2457" rx="136.242" ry="76.2457" transform="matrix(0.061295 0.99812 -0.979929 0.199346 1432.86 1531)" fill="url(#paint13_radial_665_16)" fill-opacity="0.4"/>
<ellipse cx="59.2389" cy="98.9971" rx="59.2389" ry="98.9971" transform="matrix(-0.909577 0.415534 -0.136617 -0.990624 468.567 4161.14)" fill="url(#paint14_radial_665_16)" fill-opacity="0.4"/>
<ellipse cx="130.734" cy="2908.94" rx="130.734" ry="237.944" fill="url(#paint15_radial_665_16)" fill-opacity="0.4"/>
<defs>
<radialGradient id="paint0_radial_665_16" cx="0" cy="0" r="1" gradientUnits="userSpaceOnUse" gradientTransform="translate(177.843 115.048) rotate(-142.112) scale(174.387 178.306)">
<stop stop-color="#FFAC71"/>
<stop offset="1" stop-color="#FFAC71" stop-opacity="0"/>
</radialGradient>
<radialGradient id="paint1_radial_665_16" cx="0" cy="0" r="1" gradientUnits="userSpaceOnUse" gradientTransform="translate(101.321 204.403) rotate(-112.396) scale(205.793 152.939)">
<stop stop-color="#FFAC71"/>
<stop offset="1" stop-color="#FFAC71" stop-opacity="0"/>
</radialGradient>
<radialGradient id="paint2_radial_665_16" cx="0" cy="0" r="1" gradientUnits="userSpaceOnUse" gradientTransform="translate(131.711 265.712) rotate(-112.396) scale(267.52 198.812)">
<stop stop-color="#FFAC71"/>
<stop offset="1" stop-color="#FFAC71" stop-opacity="0"/>
</radialGradient>
<radialGradient id="paint3_radial_665_16" cx="0" cy="0" r="1" gradientUnits="userSpaceOnUse" gradientTransform="translate(167.315 112.868) rotate(-140.943) scale(166.745 172.114)">
<stop stop-color="#FFAC71"/>
<stop offset="1" stop-color="#FFAC71" stop-opacity="0"/>
</radialGradient>
<radialGradient id="paint4_radial_665_16" cx="0" cy="0" r="1" gradientUnits="userSpaceOnUse" gradientTransform="translate(22.18 46.3702) rotate(-111.686) scale(46.4518 33.6482)">
<stop stop-color="#FFAC71"/>
<stop offset="1" stop-color="#FFAC71" stop-opacity="0"/>
</radialGradient>
<radialGradient id="paint5_radial_665_16" cx="0" cy="0" r="1" gradientUnits="userSpaceOnUse" gradientTransform="translate(57.9357 121.122) rotate(-111.686) scale(121.335 87.8914)">
<stop stop-color="#FFAC71"/>
<stop offset="1" stop-color="#FFAC71" stop-opacity="0"/>
</radialGradient>
<radialGradient id="paint6_radial_665_16" cx="0" cy="0" r="1" gradientUnits="userSpaceOnUse" gradientTransform="translate(138.598 89.6536) rotate(-142.114) scale(135.901 138.953)">
<stop stop-color="#FFAC71"/>
<stop offset="1" stop-color="#FFAC71" stop-opacity="0"/>
</radialGradient>
<radialGradient id="paint7_radial_665_16" cx="0" cy="0" r="1" gradientUnits="userSpaceOnUse" gradientTransform="translate(22.3398 46.2675) rotate(-111.871) scale(46.409 33.8469)">
<stop stop-color="#FFAC71"/>
<stop offset="1" stop-color="#FFAC71" stop-opacity="0"/>
</radialGradient>
<radialGradient id="paint8_radial_665_16" cx="0" cy="0" r="1" gradientUnits="userSpaceOnUse" gradientTransform="translate(22.18 46.3702) rotate(-111.686) scale(46.4518 33.6482)">
<stop stop-color="#FFAC71"/>
<stop offset="1" stop-color="#FFAC71" stop-opacity="0"/>
</radialGradient>
<radialGradient id="paint9_radial_665_16" cx="0" cy="0" r="1" gradientUnits="userSpaceOnUse" gradientTransform="translate(23.5397 45.4657) rotate(-113.289) scale(46.0763 35.2998)">
<stop stop-color="#FFAC71"/>
<stop offset="1" stop-color="#FFAC71" stop-opacity="0"/>
</radialGradient>
<radialGradient id="paint10_radial_665_16" cx="0" cy="0" r="1" gradientUnits="userSpaceOnUse" gradientTransform="translate(814.88 1796.85) rotate(-111.562) scale(340.156 245.266)">
<stop stop-color="#FFAC71"/>
<stop offset="1" stop-color="#FFAC71" stop-opacity="0"/>
</radialGradient>
<radialGradient id="paint11_radial_665_16" cx="0" cy="0" r="1" gradientUnits="userSpaceOnUse" gradientTransform="translate(103.538 214.823) rotate(-111.835) scale(215.426 156.909)">
<stop stop-color="#FFAC71"/>
<stop offset="1" stop-color="#FFAC71" stop-opacity="0"/>
</radialGradient>
<radialGradient id="paint12_radial_665_16" cx="0" cy="0" r="1" gradientUnits="userSpaceOnUse" gradientTransform="translate(87.5116 68.9139) rotate(-136.553) scale(93.2823 98.2511)">
<stop stop-color="#FFAC71"/>
<stop offset="1" stop-color="#FFAC71" stop-opacity="0"/>
</radialGradient>
<radialGradient id="paint13_radial_665_16" cx="0" cy="0" r="1" gradientUnits="userSpaceOnUse" gradientTransform="translate(177.843 115.048) rotate(-142.112) scale(174.387 178.306)">
<stop stop-color="#FFAC71"/>
<stop offset="1" stop-color="#FFAC71" stop-opacity="0"/>
</radialGradient>
<radialGradient id="paint14_radial_665_16" cx="0" cy="0" r="1" gradientUnits="userSpaceOnUse" gradientTransform="translate(77.3271 149.377) rotate(-113.285) scale(151.38 115.961)">
<stop stop-color="#FFAC71"/>
<stop offset="1" stop-color="#FFAC71" stop-opacity="0"/>
</radialGradient>
<radialGradient id="paint15_radial_665_16" cx="0" cy="0" r="1" gradientUnits="userSpaceOnUse" gradientTransform="translate(170.653 3030.04) rotate(-111.562) scale(359.358 259.112)">
<stop stop-color="#FFAC71"/>
<stop offset="1" stop-color="#FFAC71" stop-opacity="0"/>
</radialGradient>
<clipPath id="clip0_665_16">
<rect width="326.004" height="331.79" fill="white" transform="translate(55.6254 6127.21)"/>
</clipPath>
<clipPath id="clip1_665_16">
<rect width="556.203" height="331.79" fill="white" transform="translate(955.797 6127.21)"/>
</clipPath>
</defs>
</svg>
