<svg width="1512" height="6471" viewBox="0 0 1512 6471" fill="none" xmlns="http://www.w3.org/2000/svg">
<path fill-rule="evenodd" clip-rule="evenodd" d="M459.441 5710.61C439.115 5769.32 395.712 5773.02 358.733 5785.29C325.622 5796.28 291.032 5807.05 261.833 5776.19C232.217 5744.89 210.192 5687.79 206.865 5624.76C203.846 5567.58 233.044 5527.8 245.961 5475.53C262.021 5410.55 255.808 5317.62 290.468 5286.49C326.584 5254.06 370.691 5290.88 403.193 5334.34C433.107 5374.34 445.31 5440.73 455.175 5506.72C465.355 5574.82 480.05 5651.08 459.441 5710.61Z" stroke="white" stroke-width="2"/>
<path fill-rule="evenodd" clip-rule="evenodd" d="M1077.06 6418.75C1118.99 6416 1145.61 6340.8 1173 6281.93C1197.53 6229.21 1222.79 6173.74 1223.46 6104.14C1224.13 6033.55 1207.15 5961.78 1176.46 5919.93C1148.62 5881.97 1111.43 5911.31 1077.06 5904.53C1034.33 5896.11 989.82 5832.08 954 5876.08C916.675 5921.93 910.603 6021.48 914.567 6104.14C918.216 6180.22 945.592 6239.79 974.091 6294.97C1003.5 6351.91 1034.56 6421.54 1077.06 6418.75Z" stroke="white" stroke-width="2"/>
<path fill-rule="evenodd" clip-rule="evenodd" d="M1051.46 5183.16C1072.94 5210.11 1100.98 5190.57 1126.21 5179.7C1148.79 5169.97 1172.29 5159.36 1186.26 5125.09C1200.44 5090.32 1206.03 5043.05 1198.9 5001.44C1192.44 4963.69 1168.11 4953.21 1152.27 4926.61C1132.57 4893.54 1122.89 4831.53 1096.37 4829.28C1068.74 4826.94 1046.19 4872.5 1031.97 4916.42C1018.88 4956.84 1020.88 5005.06 1024.29 5051.84C1027.82 5100.11 1029.69 5155.83 1051.46 5183.16Z" stroke="white" stroke-width="2"/>
<path fill-rule="evenodd" clip-rule="evenodd" d="M249.454 3748.58C227.31 3752.81 206.207 3741.52 184.741 3730.55C160.326 3718.07 132.783 3714.38 115.447 3680.09C97.3431 3644.29 89.2827 3592.64 90.1969 3543.57C91.0824 3496.04 110.595 3459.48 120.376 3415.53C132.185 3362.47 126.371 3285.52 153.642 3258.48C180.752 3231.6 211.687 3283.77 241.814 3295.11C268.364 3305.09 297.796 3292.82 320.191 3321.14C343.189 3350.21 355.372 3400.31 363.909 3449.49C372.373 3498.24 377.81 3551.55 368.566 3599.8C359.629 3646.45 336.944 3678.06 314.824 3705.69C295.252 3730.14 272.919 3744.1 249.454 3748.58Z" stroke="white" stroke-width="2"/>
<path fill-rule="evenodd" clip-rule="evenodd" d="M265.097 1442.65C239.879 1438.99 217.535 1418.38 194.749 1397.99C168.833 1374.8 138.453 1360.24 122.85 1315.36C106.556 1268.5 103.232 1207.74 109.657 1153.26C115.88 1100.48 141.715 1067.02 157.485 1021.63C176.527 966.809 178.499 878.637 211.959 858.751C245.22 838.983 274.054 908.996 306.481 933.071C335.057 954.287 369.307 951.721 391.221 991.842C413.726 1033.04 421.829 1093.63 425.957 1151.81C430.05 1209.5 430.259 1271.11 414.613 1321.53C399.489 1370.26 370.652 1396.99 342.886 1419.49C318.318 1439.39 291.819 1446.52 265.097 1442.65Z" stroke="white" stroke-width="2"/>
<path fill-rule="evenodd" clip-rule="evenodd" d="M878.096 2234.51C899.968 2245.59 922.185 2240.74 944.738 2236.33C970.389 2231.32 998.397 2236.09 1018.89 2206.97C1040.29 2176.57 1053.02 2127.15 1056.49 2077.54C1059.86 2029.5 1043.53 1986.74 1037.64 1939.55C1030.53 1882.58 1043.27 1807.04 1018.29 1771.45C993.456 1736.08 957.696 1778.99 926.407 1781.09C898.834 1782.95 870.358 1761.54 845.318 1783.1C819.602 1805.24 802.871 1851.83 789.887 1898.63C777.012 1945.03 766.772 1996.92 771.738 2048.27C776.538 2097.91 796.5 2136.67 816.252 2171.26C833.728 2201.86 854.918 2222.78 878.096 2234.51Z" stroke="white" stroke-width="2"/>
<path fill-rule="evenodd" clip-rule="evenodd" d="M1014.58 4402.64C1039.91 4340.6 1025.3 4254.82 1018 4178.23C1011.46 4109.65 1004.23 4038.28 975.571 3993.36C946.497 3947.8 905.781 3926.89 868.912 3944.6C835.464 3960.67 824.233 4032.69 799.693 4077.84C769.181 4133.99 714.311 4157.56 710.073 4236.87C705.658 4319.52 743.422 4391.13 780.468 4437.64C814.565 4480.44 856.75 4478.69 897.808 4472.56C940.179 4466.22 988.894 4465.53 1014.58 4402.64Z" stroke="white" stroke-width="2"/>
<path fill-rule="evenodd" clip-rule="evenodd" d="M440.176 4373.14C417.373 4363.26 397.109 4396.56 377.713 4420.85C360.345 4442.6 342.367 4465.64 336.526 4502.95C330.602 4540.8 334.096 4584.07 347.333 4614.93C359.343 4642.93 381.689 4637.21 399.672 4650.18C422.032 4666.3 440.968 4712.86 463.732 4698.87C487.452 4684.29 498.565 4632.3 502.939 4586.69C506.966 4544.72 496.91 4505.2 485.902 4467.75C474.543 4429.1 463.296 4383.16 440.176 4373.14Z" stroke="white" stroke-width="2"/>
<path fill-rule="evenodd" clip-rule="evenodd" d="M315.849 2413.65C344.645 2429.65 376.344 2407.78 401.691 2377.88C428.077 2346.76 451.331 2301.5 458.628 2245.23C465.691 2190.76 456.368 2131.82 439.659 2085.1C425.204 2044.68 398.621 2029.29 374.549 2010.11C355.697 1995.09 336.272 1990.3 315.849 1986.46C292.71 1982.1 267.4 1963.18 247.78 1986.27C228.003 2009.55 225.817 2059.82 218.524 2101.01C211.212 2142.31 196.763 2185.39 205.366 2225.83C213.905 2265.97 243.598 2270.41 260.773 2299.61C281.573 2334.97 288.786 2398.62 315.849 2413.65Z" stroke="white" stroke-width="2"/>
<path fill-rule="evenodd" clip-rule="evenodd" d="M911.203 1485.81C895.967 1497.53 879.194 1481.52 865.783 1459.62C851.821 1436.83 839.518 1403.69 835.657 1362.49C831.92 1322.6 836.852 1279.45 845.693 1245.23C853.342 1215.64 867.407 1204.37 880.144 1190.32C890.119 1179.33 900.397 1175.82 911.203 1173C923.446 1169.82 936.838 1155.96 947.219 1172.87C957.684 1189.91 958.84 1226.72 962.699 1256.88C966.568 1287.12 974.213 1318.67 969.661 1348.28C965.143 1377.67 949.432 1380.93 940.345 1402.3C929.339 1428.2 925.522 1474.8 911.203 1485.81Z" stroke="white" stroke-width="2"/>
<path fill-rule="evenodd" clip-rule="evenodd" d="M1051 502.67C1066.32 513.989 1072.32 547.163 1073.71 580.205C1075.14 614.603 1071.5 654.275 1058.78 688.799C1046.47 722.219 1026.71 746.765 1007.51 759.846C990.905 771.164 976.589 761.041 962.181 754.627C950.898 749.604 942.213 738.821 933.411 726.855C923.438 713.298 908.631 705.903 907.548 680.353C906.455 654.598 919.463 626.722 928.036 600.112C936.63 573.435 943.011 540.933 957.404 525.6C971.691 510.382 984.173 528.379 998.722 524.814C1016.34 520.497 1036.6 492.032 1051 502.67Z" stroke="white" stroke-width="2"/>
<g clip-path="url(#clip0_665_56)">
<path fill-rule="evenodd" clip-rule="evenodd" d="M228.241 90.754C251.672 100.084 260.852 127.429 262.965 154.666C265.165 183.02 259.597 215.721 240.143 244.179C221.311 271.727 191.097 291.959 161.74 302.743C136.342 312.072 114.448 303.728 92.416 298.44C75.161 294.3 61.8789 285.412 48.4189 275.548C33.1685 264.373 10.5244 258.278 8.8673 237.217C7.19688 215.987 27.0886 193.009 40.1987 171.075C53.3422 149.085 63.0997 122.294 85.1104 109.655C106.959 97.1107 126.047 111.946 148.296 109.008C175.242 105.449 206.219 81.9854 228.241 90.754Z" stroke="white" stroke-opacity="0.11" stroke-width="2"/>
<path fill-rule="evenodd" clip-rule="evenodd" d="M199.54 125.563C217.382 132.667 224.371 153.488 225.98 174.227C227.655 195.816 223.415 220.716 208.603 242.385C194.264 263.36 171.258 278.766 148.904 286.977C129.566 294.08 112.896 287.727 96.1194 283.701C82.981 280.548 72.8677 273.78 62.6188 266.27C51.0067 257.761 33.7649 253.12 32.5032 237.084C31.2313 220.919 46.3774 203.423 56.3597 186.721C66.3676 169.977 73.7972 149.578 90.5568 139.955C107.192 130.403 121.727 141.699 138.668 139.461C159.186 136.752 182.772 118.886 199.54 125.563Z" stroke="white" stroke-opacity="0.11" stroke-width="2"/>
<path fill-rule="evenodd" clip-rule="evenodd" d="M275.548 67.8628C308.373 80.9327 321.232 119.239 324.192 157.394C327.273 197.113 319.473 242.923 292.221 282.788C265.841 321.378 223.516 349.721 182.391 364.826C146.812 377.895 116.143 366.206 85.2792 358.799C61.1076 352.999 42.5014 340.548 23.6459 326.731C2.28251 311.076 -29.4383 302.538 -31.7597 273.035C-34.0997 243.295 -6.23441 211.107 12.1307 180.38C30.5427 149.575 44.2116 112.045 75.0452 94.3409C105.651 76.7676 132.391 97.5492 163.558 93.4333C201.306 88.4484 244.699 55.5795 275.548 67.8628Z" stroke="white" stroke-opacity="0.11" stroke-width="2"/>
<path fill-rule="evenodd" clip-rule="evenodd" d="M333.695 10.0621C375.99 26.9031 392.56 76.2622 396.374 125.426C400.344 176.606 390.294 235.633 355.178 287.001C321.187 336.725 266.649 373.246 213.657 392.711C167.813 409.55 128.295 394.489 88.5256 384.945C57.3797 377.47 33.4049 361.427 9.10894 343.624C-18.4186 323.452 -59.2921 312.449 -62.2833 274.434C-65.2984 236.113 -29.393 194.637 -5.72882 155.045C17.9957 115.352 35.6085 66.9926 75.3388 44.1801C114.775 21.5362 149.23 48.3141 189.391 43.0106C238.031 36.5873 293.944 -5.76546 333.695 10.0621Z" stroke="white" stroke-opacity="0.11" stroke-width="2"/>
</g>
<g clip-path="url(#clip1_665_56)">
<path fill-rule="evenodd" clip-rule="evenodd" d="M1457.09 44.147C1472.84 75.6661 1456.99 112.718 1433.86 143.084C1409.79 174.697 1373.57 203.619 1326.82 215.203C1281.57 226.417 1231.25 219.418 1190.6 203.362C1155.44 189.471 1140.37 160.411 1122.32 134.409C1108.17 114.045 1102.59 92.4251 1097.73 69.6228C1092.22 43.7876 1074.27 16.374 1092.13 -7.12858C1110.13 -30.8199 1152.24 -36.2826 1186.31 -46.9636C1220.46 -57.6718 1255.55 -76.5351 1290.26 -69.2452C1324.71 -62.0093 1330.81 -28.7888 1356.75 -11.1625C1388.16 10.1855 1442.28 14.5244 1457.09 44.147Z" stroke="white" stroke-opacity="0.11" stroke-width="2"/>
<path fill-rule="evenodd" clip-rule="evenodd" d="M1502.6 83.5157C1521.24 117.936 1501.99 158.647 1474.08 192.086C1445.03 226.897 1401.46 258.848 1345.4 271.879C1291.14 284.493 1230.94 277.189 1182.4 259.891C1140.41 244.926 1122.57 213.195 1101.14 184.836C1084.36 162.626 1077.83 138.979 1072.17 114.03C1065.76 85.7634 1044.47 55.8572 1066.02 29.9769C1087.75 3.88882 1138.2 -2.40129 1179.07 -14.3507C1220.04 -26.3306 1262.19 -47.2524 1303.69 -39.5164C1344.88 -31.8376 1351.95 4.51666 1382.87 23.6415C1420.32 46.8043 1485.09 51.1665 1502.6 83.5157Z" stroke="white" stroke-opacity="0.11" stroke-width="2"/>
<path fill-rule="evenodd" clip-rule="evenodd" d="M1394.79 53.7547C1406.79 77.7542 1394.71 105.966 1377.1 129.088C1358.77 153.159 1331.2 175.181 1295.6 184.002C1261.14 192.54 1222.83 187.211 1191.88 174.985C1165.11 164.408 1153.64 142.281 1139.89 122.483C1129.12 106.977 1124.86 90.515 1121.16 73.1527C1116.97 53.4811 1103.3 32.6076 1116.9 14.7121C1130.6 -3.32715 1162.67 -7.48657 1188.61 -15.6194C1214.62 -23.7729 1241.33 -38.1359 1267.76 -32.5852C1293.99 -27.0756 1298.64 -1.7806 1318.39 11.6406C1342.3 27.8955 1383.51 31.1992 1394.79 53.7547Z" stroke="white" stroke-opacity="0.11" stroke-width="2"/>
<path fill-rule="evenodd" clip-rule="evenodd" d="M1527.71 64.2704C1549.78 108.424 1527.57 160.327 1495.17 202.867C1461.45 247.15 1410.71 287.666 1345.22 303.894C1281.83 319.602 1211.34 309.798 1154.41 287.306C1105.15 267.847 1084.04 227.138 1058.74 190.713C1038.93 162.187 1031.11 131.901 1024.3 99.9582C1016.58 63.767 991.439 25.3648 1016.45 -7.55869C1041.67 -40.7466 1100.66 -48.399 1148.39 -63.3614C1196.23 -78.362 1245.39 -104.786 1294 -94.5745C1342.26 -84.4381 1350.82 -37.9013 1387.15 -13.2096C1431.14 16.6956 1506.96 22.7737 1527.71 64.2704Z" stroke="white" stroke-opacity="0.11" stroke-width="2"/>
<path fill-rule="evenodd" clip-rule="evenodd" d="M1651.09 51.7067C1679.53 108.6 1650.91 175.48 1609.17 230.293C1565.71 287.354 1500.34 339.56 1415.96 360.47C1334.27 380.712 1243.44 368.078 1170.08 339.096C1106.61 314.023 1079.41 261.568 1046.82 214.633C1021.29 177.875 1011.21 138.851 1002.43 97.6917C992.482 51.0581 960.091 1.57541 992.324 -40.8477C1024.82 -83.6116 1100.83 -93.472 1162.32 -112.752C1223.97 -132.08 1287.31 -166.129 1349.96 -152.971C1412.14 -139.91 1423.16 -79.9454 1469.97 -48.1291C1526.67 -9.59515 1624.36 -1.76326 1651.09 51.7067Z" stroke="white" stroke-opacity="0.11" stroke-width="2"/>
</g>
<ellipse cx="136.486" cy="74.9973" rx="136.486" ry="74.9973" transform="matrix(0.0601373 -0.99819 -0.97917 -0.20304 375.087 4606.37)" fill="url(#paint0_radial_665_56)" fill-opacity="0.3"/>
<ellipse cx="76.4218" cy="135.693" rx="76.4218" ry="135.693" transform="matrix(0.953016 -0.302919 -0.0919576 -0.995763 694.94 3948.83)" fill="url(#paint1_radial_665_56)" fill-opacity="0.4"/>
<ellipse cx="99.3441" cy="176.394" rx="99.3441" ry="176.394" transform="matrix(0.953016 -0.302919 -0.0919576 -0.995763 837.616 2366.41)" fill="url(#paint2_radial_665_56)" fill-opacity="0.1"/>
<ellipse cx="128.384" cy="73.6986" rx="128.384" ry="73.6986" transform="matrix(0.111233 0.993794 0.93315 -0.359486 310.141 1420.73)" fill="url(#paint3_radial_665_56)" fill-opacity="0.4"/>
<ellipse cx="16.7051" cy="30.7873" rx="16.7051" ry="30.7873" transform="matrix(-0.992796 -0.119814 -0.0350417 0.999386 953.822 1666.34)" fill="url(#paint4_radial_665_56)" fill-opacity="0.4"/>
<ellipse cx="43.6347" cy="80.4186" rx="43.6347" ry="80.4186" transform="matrix(-0.992796 -0.119814 -0.0350417 0.999386 131.044 1149.74)" fill="url(#paint5_radial_665_56)" fill-opacity="0.4"/>
<ellipse cx="106.367" cy="58.4434" rx="106.367" ry="58.4434" transform="matrix(-0.0600225 0.998197 0.979248 0.202667 1047.63 679.896)" fill="url(#paint6_radial_665_56)" fill-opacity="0.4"/>
<ellipse cx="16.8321" cy="30.7181" rx="16.8321" ry="30.7181" transform="matrix(0.982176 -0.187965 -0.0555167 -0.998458 758.883 3447.46)" fill="url(#paint7_radial_665_56)" fill-opacity="0.4"/>
<ellipse cx="16.7051" cy="30.7873" rx="16.7051" ry="30.7873" transform="matrix(-0.992796 -0.119814 -0.0350417 0.999386 781.445 4601.85)" fill="url(#paint8_radial_665_56)" fill-opacity="0.4"/>
<ellipse cx="17.7841" cy="30.1769" rx="17.7841" ry="30.1769" transform="matrix(0.906358 -0.422511 -0.134214 -0.990952 181.498 5895.76)" fill="url(#paint9_radial_665_56)" fill-opacity="0.4"/>
<ellipse cx="101.693" cy="187.42" rx="101.693" ry="187.42" transform="matrix(-0.992796 -0.119814 -0.0350417 0.999386 1163.37 2796.94)" fill="url(#paint10_radial_665_56)" fill-opacity="0.4"/>
<ellipse cx="121.628" cy="225.648" rx="121.628" ry="225.648" transform="matrix(1 0 0 -1 632.211 5489.42)" fill="url(#paint11_radial_665_56)" fill-opacity="0.4"/>
<ellipse cx="78.0053" cy="142.627" rx="78.0053" ry="142.627" transform="matrix(-0.984213 0.176991 0.0521766 0.998638 453.857 5693.86)" fill="url(#paint12_radial_665_56)" fill-opacity="0.4"/>
<ellipse cx="67.0976" cy="45.2245" rx="67.0976" ry="45.2245" transform="matrix(0.228052 -0.973649 -0.778805 -0.627266 1077.46 6471)" fill="url(#paint13_radial_665_56)" fill-opacity="0.4"/>
<ellipse cx="136.486" cy="74.9973" rx="136.486" ry="74.9973" transform="matrix(0.0601373 -0.99819 -0.97917 -0.20304 1157.61 5059.86)" fill="url(#paint14_radial_665_56)" fill-opacity="0.4"/>
<ellipse cx="58.4197" cy="99.1463" rx="58.4197" ry="99.1463" transform="matrix(-0.906529 -0.422144 -0.134075 0.990971 1255.77 3844.95)" fill="url(#paint15_radial_665_56)" fill-opacity="0.4"/>
<path d="M1344.7 5508.95C1422.05 5440.84 1451.9 5279.26 1418.62 5233.66C1385.34 5188.06 1351.6 5302.04 1274.26 5370.16C1196.92 5438.27 1093.53 5360.27 1126.8 5405.87C1160.08 5451.47 1267.36 5577.07 1344.7 5508.95Z" fill="url(#paint16_radial_665_56)" fill-opacity="0.4"/>
<defs>
<radialGradient id="paint0_radial_665_56" cx="0" cy="0" r="1" gradientUnits="userSpaceOnUse" gradientTransform="translate(178.161 113.164) rotate(-142.619) scale(173.511 176.587)">
<stop stop-color="#FFAC71"/>
<stop offset="1" stop-color="#FFAC71" stop-opacity="0"/>
</radialGradient>
<radialGradient id="paint1_radial_665_56" cx="0" cy="0" r="1" gradientUnits="userSpaceOnUse" gradientTransform="translate(99.7567 204.749) rotate(-112.05) scale(205.634 150.95)">
<stop stop-color="#FFAC71"/>
<stop offset="1" stop-color="#FFAC71" stop-opacity="0"/>
</radialGradient>
<radialGradient id="paint2_radial_665_56" cx="0" cy="0" r="1" gradientUnits="userSpaceOnUse" gradientTransform="translate(129.678 266.162) rotate(-112.05) scale(267.312 196.227)">
<stop stop-color="#FFAC71"/>
<stop offset="1" stop-color="#FFAC71" stop-opacity="0"/>
</radialGradient>
<radialGradient id="paint3_radial_665_56" cx="0" cy="0" r="1" gradientUnits="userSpaceOnUse" gradientTransform="translate(167.585 111.204) rotate(-141.404) scale(165.937 170.678)">
<stop stop-color="#FFAC71"/>
<stop offset="1" stop-color="#FFAC71" stop-opacity="0"/>
</radialGradient>
<radialGradient id="paint4_radial_665_56" cx="0" cy="0" r="1" gradientUnits="userSpaceOnUse" gradientTransform="translate(21.8059 46.4552) rotate(-111.318) scale(46.4193 33.1645)">
<stop stop-color="#FFAC71"/>
<stop offset="1" stop-color="#FFAC71" stop-opacity="0"/>
</radialGradient>
<radialGradient id="paint5_radial_665_56" cx="0" cy="0" r="1" gradientUnits="userSpaceOnUse" gradientTransform="translate(56.9583 121.344) rotate(-111.318) scale(121.25 86.6278)">
<stop stop-color="#FFAC71"/>
<stop offset="1" stop-color="#FFAC71" stop-opacity="0"/>
</radialGradient>
<radialGradient id="paint6_radial_665_56" cx="0" cy="0" r="1" gradientUnits="userSpaceOnUse" gradientTransform="translate(138.846 88.1855) rotate(-142.621) scale(135.218 137.613)">
<stop stop-color="#FFAC71"/>
<stop offset="1" stop-color="#FFAC71" stop-opacity="0"/>
</radialGradient>
<radialGradient id="paint7_radial_665_56" cx="0" cy="0" r="1" gradientUnits="userSpaceOnUse" gradientTransform="translate(21.9716 46.3507) rotate(-111.509) scale(46.3756 33.3729)">
<stop stop-color="#FFAC71"/>
<stop offset="1" stop-color="#FFAC71" stop-opacity="0"/>
</radialGradient>
<radialGradient id="paint8_radial_665_56" cx="0" cy="0" r="1" gradientUnits="userSpaceOnUse" gradientTransform="translate(21.8059 46.4552) rotate(-111.318) scale(46.4193 33.1645)">
<stop stop-color="#FFAC71"/>
<stop offset="1" stop-color="#FFAC71" stop-opacity="0"/>
</radialGradient>
<radialGradient id="paint9_radial_665_56" cx="0" cy="0" r="1" gradientUnits="userSpaceOnUse" gradientTransform="translate(23.2143 45.5341) rotate(-112.969) scale(46.036 34.8947)">
<stop stop-color="#FFAC71"/>
<stop offset="1" stop-color="#FFAC71" stop-opacity="0"/>
</radialGradient>
<radialGradient id="paint10_radial_665_56" cx="0" cy="0" r="1" gradientUnits="userSpaceOnUse" gradientTransform="translate(132.745 282.8) rotate(-111.318) scale(282.581 201.891)">
<stop stop-color="#FFAC71"/>
<stop offset="1" stop-color="#FFAC71" stop-opacity="0"/>
</radialGradient>
<radialGradient id="paint11_radial_665_56" cx="0" cy="0" r="1" gradientUnits="userSpaceOnUse" gradientTransform="translate(158.767 340.481) rotate(-111.189) scale(339.923 241.678)">
<stop stop-color="#FFAC71"/>
<stop offset="1" stop-color="#FFAC71" stop-opacity="0"/>
</radialGradient>
<radialGradient id="paint12_radial_665_56" cx="0" cy="0" r="1" gradientUnits="userSpaceOnUse" gradientTransform="translate(101.824 215.211) rotate(-111.472) scale(215.272 154.7)">
<stop stop-color="#FFAC71"/>
<stop offset="1" stop-color="#FFAC71" stop-opacity="0"/>
</radialGradient>
<radialGradient id="paint13_radial_665_56" cx="0" cy="0" r="1" gradientUnits="userSpaceOnUse" gradientTransform="translate(87.5855 68.2395) rotate(-136.858) scale(92.8934 97.7794)">
<stop stop-color="#FFAC71"/>
<stop offset="1" stop-color="#FFAC71" stop-opacity="0"/>
</radialGradient>
<radialGradient id="paint14_radial_665_56" cx="0" cy="0" r="1" gradientUnits="userSpaceOnUse" gradientTransform="translate(178.161 113.164) rotate(-142.619) scale(173.511 176.587)">
<stop stop-color="#FFAC71"/>
<stop offset="1" stop-color="#FFAC71" stop-opacity="0"/>
</radialGradient>
<radialGradient id="paint15_radial_665_56" cx="0" cy="0" r="1" gradientUnits="userSpaceOnUse" gradientTransform="translate(76.2577 149.602) rotate(-112.966) scale(151.247 114.63)">
<stop stop-color="#FFAC71"/>
<stop offset="1" stop-color="#FFAC71" stop-opacity="0"/>
</radialGradient>
<radialGradient id="paint16_radial_665_56" cx="0" cy="0" r="1" gradientUnits="userSpaceOnUse" gradientTransform="translate(1368.25 5319.44) rotate(160.773) scale(272.778 208.423)">
<stop stop-color="#FFAC71"/>
<stop offset="1" stop-color="#FFAC71" stop-opacity="0"/>
</radialGradient>
<clipPath id="clip0_665_56">
<rect width="320.418" height="332.406" fill="white" transform="matrix(1 0 0 -1 0 332.406)"/>
</clipPath>
<clipPath id="clip1_665_56">
<rect width="546.673" height="332.406" fill="white" transform="matrix(1 0 0 -1 884.747 332.406)"/>
</clipPath>
</defs>
</svg>
