<svg width="1334" height="634" viewBox="0 0 1334 634" fill="none" xmlns="http://www.w3.org/2000/svg">
<g opacity="0.7">
<path opacity="0.6" d="M0.277191 473C0.277191 417.772 45.0487 373 100.277 373H161.781C217.009 373 261.781 417.772 261.781 473V534C261.781 589.228 217.009 634 161.781 634H100.277C45.0488 634 0.277191 589.228 0.277191 534V473Z" fill="#FFE4D9"/>
<path opacity="0.6" d="M1262.08 468.611C1262.08 448.944 1278.03 433 1297.7 433V433C1317.36 433 1333.31 448.944 1333.31 468.611V469.389C1333.31 489.056 1317.36 505 1297.7 505V505C1278.03 505 1262.08 489.056 1262.08 469.389V468.611Z" fill="#FFAF0F"/>
<path opacity="0.6" d="M134.218 24.4495C134.218 10.9464 145.164 0 158.667 0V0C172.171 0 183.117 10.9464 183.117 24.4495V25.5505C183.117 39.0536 172.171 50 158.667 50V50C145.164 50 134.218 39.0536 134.218 25.5505V24.4495Z" fill="#FFAF0F"/>
</g>
</svg>
