<svg width="47" height="23" viewBox="0 0 47 23" fill="none" xmlns="http://www.w3.org/2000/svg">
<g clip-path="url(#clip0_665_1079)">
<path d="M19.8331 10.8552C20.0499 10.6926 20.2107 10.4658 20.293 10.2067C20.3753 9.94747 20.3749 9.66886 20.292 9.4099C20.209 9.15094 20.0476 8.92461 19.8303 8.76264C19.6131 8.60068 19.3509 8.5112 19.0806 8.50676L13.8306 8.30714C13.8048 8.30535 13.7801 8.29608 13.7594 8.28046C13.7387 8.26483 13.7229 8.24352 13.714 8.21908L11.8998 3.28743C11.8086 3.03653 11.6431 2.81987 11.4255 2.6668C11.208 2.51373 10.949 2.43164 10.6835 2.43164C10.4181 2.43164 10.1591 2.51373 9.94153 2.6668C9.72399 2.81987 9.55844 3.03653 9.46729 3.28743L7.65895 8.23669C7.65002 8.26113 7.63425 8.28245 7.61355 8.29807C7.59285 8.3137 7.5681 8.32296 7.54229 8.32476L2.29229 8.52437C2.02197 8.52881 1.75982 8.61829 1.54258 8.78026C1.32535 8.94222 1.16392 9.16855 1.08094 9.42752C0.997962 9.68648 0.997589 9.96508 1.07988 10.2243C1.16216 10.4835 1.32298 10.7102 1.53979 10.8728L5.65812 14.1312C5.67873 14.1475 5.69414 14.1696 5.70243 14.1946C5.71072 14.2196 5.71154 14.2466 5.70479 14.2721L4.28729 19.327C4.21383 19.5844 4.22095 19.8584 4.30767 20.1116C4.39439 20.3648 4.5565 20.5849 4.77195 20.7421C4.9874 20.8993 5.24573 20.9859 5.51179 20.99C5.77786 20.9942 6.03874 20.9158 6.25895 20.7654L10.6106 17.8299C10.6321 17.815 10.6575 17.807 10.6835 17.807C10.7096 17.807 10.735 17.815 10.7565 17.8299L15.1081 20.7654C15.3254 20.9209 15.5853 21.0045 15.8519 21.0045C16.1184 21.0045 16.3784 20.9209 16.5956 20.7654C16.8111 20.6097 16.9734 20.3906 17.0601 20.1383C17.1468 19.886 17.1537 19.6128 17.0798 19.3564L15.6506 14.2838C15.6431 14.2584 15.6435 14.2312 15.6518 14.206C15.6602 14.1807 15.6761 14.1587 15.6973 14.1429L19.8331 10.8552Z" fill="#F95C19"/>
</g>
<g clip-path="url(#clip1_665_1079)">
<path d="M45.7775 10.8552C46.0046 10.6926 46.1731 10.4658 46.2593 10.2067C46.3455 9.94747 46.3451 9.66886 46.2582 9.4099C46.1713 9.15094 46.0022 8.92461 45.7746 8.76264C45.547 8.60068 45.2724 8.5112 44.9892 8.50676L39.4892 8.30714C39.4621 8.30535 39.4362 8.29608 39.4145 8.28046C39.3928 8.26483 39.3763 8.24352 39.367 8.21908L37.4664 3.28743C37.3709 3.03653 37.1975 2.81987 36.9696 2.6668C36.7417 2.51373 36.4703 2.43164 36.1922 2.43164C35.9142 2.43164 35.6428 2.51373 35.4149 2.6668C35.187 2.81987 35.0136 3.03653 34.9181 3.28743L33.0236 8.23669C33.0143 8.26113 32.9977 8.28245 32.9761 8.29807C32.9544 8.3137 32.9285 8.32296 32.9014 8.32476L27.4014 8.52437C27.1182 8.52881 26.8436 8.61829 26.616 8.78026C26.3884 8.94222 26.2193 9.16855 26.1324 9.42752C26.0454 9.68648 26.0451 9.96508 26.1313 10.2243C26.2175 10.4835 26.3859 10.7102 26.6131 10.8728L30.9275 14.1312C30.9491 14.1475 30.9653 14.1696 30.9739 14.1946C30.9826 14.2196 30.9835 14.2466 30.9764 14.2721L29.4914 19.327C29.4145 19.5844 29.4219 19.8584 29.5128 20.1116C29.6036 20.3648 29.7734 20.5849 29.9991 20.7421C30.2249 20.8993 30.4955 20.9859 30.7742 20.99C31.053 20.9942 31.3263 20.9158 31.557 20.7654L36.1159 17.8299C36.1383 17.815 36.165 17.807 36.1922 17.807C36.2195 17.807 36.2462 17.815 36.2686 17.8299L40.8275 20.7654C41.0551 20.9209 41.3274 21.0045 41.6067 21.0045C41.8859 21.0045 42.1583 20.9209 42.3859 20.7654C42.6116 20.6097 42.7816 20.3906 42.8724 20.1383C42.9633 19.886 42.9705 19.6128 42.8931 19.3564L41.3959 14.2838C41.3879 14.2584 41.3884 14.2312 41.3971 14.206C41.4059 14.1807 41.4225 14.1587 41.4447 14.1429L45.7775 10.8552Z" fill="#F95C19"/>
</g>
<defs>
<clipPath id="clip0_665_1079">
<rect x="-0.000244141" y="1.00342" width="21" height="21.1356" rx="10.5" fill="white"/>
</clipPath>
<clipPath id="clip1_665_1079">
<rect x="24.9998" y="1.00342" width="22" height="21.1356" rx="10.5678" fill="white"/>
</clipPath>
</defs>
</svg>
