<svg width="21" height="19" viewBox="0 0 21 19" fill="none" xmlns="http://www.w3.org/2000/svg">
<path d="M18.3386 18.483H2.15384C1.61728 18.483 1.10269 18.2396 0.723289 17.8063C0.343885 17.373 0.130737 16.7854 0.130737 16.1726V2.20987C0.153429 1.61471 0.376553 1.05256 0.753526 0.640783C1.1305 0.229008 1.63218 -0.000562852 2.15384 1.03634e-06H18.3386C18.8752 1.03634e-06 19.3898 0.243415 19.7692 0.676694C20.1486 1.10997 20.3617 1.69763 20.3617 2.31038V16.1726C20.3617 16.7854 20.1486 17.373 19.7692 17.8063C19.3898 18.2396 18.8752 18.483 18.3386 18.483ZM2.15384 4.46827V16.1726H18.3386V4.46827L10.2462 10.6277L2.15384 4.46827ZM2.96308 2.31038L10.2462 7.85528L17.5294 2.31038H2.96308Z" fill="#FFAF0F"/>
</svg>
