<svg width="23" height="22" viewBox="0 0 23 22" fill="none" xmlns="http://www.w3.org/2000/svg">
<path d="M11.0541 0C4.9807 0 0.0396118 4.85374 0.0396118 10.8198C0.0396118 16.7858 4.9807 21.6395 11.0541 21.6395C17.1275 21.6395 22.0686 16.7858 22.0686 10.8198C22.0686 4.85374 17.1275 0 11.0541 0ZM11.0541 19.4756C6.1956 19.4756 2.24251 15.5923 2.24251 10.8198C2.24251 6.04716 6.1956 2.16395 11.0541 2.16395C15.9126 2.16395 19.8657 6.04716 19.8657 10.8198C19.8657 15.5923 15.9126 19.4756 11.0541 19.4756Z" fill="#FFAF0F"/>
<path d="M12.1552 5.40967H9.95233V11.9015H16.561V9.73757H12.1552V5.40967Z" fill="#FFAF0F"/>
</svg>
