<svg width="61" height="155" viewBox="0 0 61 155" fill="none" xmlns="http://www.w3.org/2000/svg">
<path d="M17.4389 143.46C17.6307 143.285 17.7729 143.041 17.8456 142.762C17.9184 142.483 17.9181 142.184 17.8447 141.905C17.7713 141.627 17.6286 141.383 17.4365 141.209C17.2443 141.035 17.0125 140.938 16.7734 140.934L12.1306 140.719C12.1077 140.717 12.0858 140.707 12.0675 140.69C12.0492 140.673 12.0353 140.651 12.0274 140.624L10.423 135.32C10.3424 135.05 10.196 134.817 10.0036 134.652C9.81122 134.488 9.58215 134.399 9.34741 134.399C9.11267 134.399 8.8836 134.488 8.69121 134.652C8.49883 134.817 8.35242 135.05 8.27181 135.32L6.67259 140.643C6.66469 140.669 6.65074 140.692 6.63243 140.709C6.61413 140.726 6.59224 140.736 6.56942 140.738L1.92653 140.953C1.68748 140.957 1.45564 141.054 1.26352 141.228C1.07141 141.402 0.928651 141.645 0.855268 141.924C0.781884 142.203 0.781555 142.502 0.854326 142.781C0.927097 143.06 1.06932 143.304 1.26105 143.478L4.90314 146.983C4.92136 147.001 4.93499 147.024 4.94232 147.051C4.94966 147.078 4.95038 147.107 4.94441 147.135L3.69083 152.572C3.62587 152.848 3.63216 153.143 3.70885 153.415C3.78554 153.688 3.92891 153.925 4.11944 154.094C4.30998 154.263 4.53843 154.356 4.77373 154.36C5.00903 154.365 5.23974 154.28 5.43449 154.119L9.28292 150.961C9.30188 150.945 9.32437 150.937 9.34741 150.937C9.37045 150.937 9.39294 150.945 9.41189 150.961L13.2603 154.119C13.4524 154.286 13.6823 154.376 13.9181 154.376C14.1538 154.376 14.3837 154.286 14.5758 154.119C14.7664 153.951 14.9099 153.716 14.9866 153.444C15.0633 153.173 15.0693 152.879 15.004 152.603L13.7401 147.147C13.7334 147.12 13.7338 147.091 13.7412 147.064C13.7485 147.036 13.7626 147.013 13.7814 146.996L17.4389 143.46Z" fill="#F95C19"/>
<path d="M41.7389 143.46C41.9306 143.285 42.0729 143.041 42.1456 142.762C42.2184 142.483 42.2181 142.184 42.1447 141.905C42.0713 141.627 41.9286 141.383 41.7364 141.209C41.5443 141.035 41.3125 140.938 41.0734 140.934L36.4305 140.719C36.4077 140.717 36.3858 140.707 36.3675 140.69C36.3492 140.673 36.3353 140.651 36.3274 140.624L34.723 135.32C34.6424 135.05 34.496 134.817 34.3036 134.652C34.1112 134.488 33.8821 134.399 33.6474 134.399C33.4127 134.399 33.1836 134.488 32.9912 134.652C32.7988 134.817 32.6524 135.05 32.5718 135.32L30.9726 140.643C30.9647 140.669 30.9507 140.692 30.9324 140.709C30.9141 140.726 30.8922 140.736 30.8694 140.738L26.2265 140.953C25.9875 140.957 25.7556 141.054 25.5635 141.228C25.3714 141.402 25.2286 141.645 25.1553 141.924C25.0819 142.203 25.0815 142.502 25.1543 142.781C25.2271 143.06 25.3693 143.304 25.561 143.478L29.2031 146.983C29.2214 147.001 29.235 147.024 29.2423 147.051C29.2496 147.078 29.2504 147.107 29.2444 147.135L27.9908 152.572C27.9259 152.848 27.9321 153.143 28.0088 153.415C28.0855 153.688 28.2289 153.925 28.4194 154.094C28.61 154.263 28.8384 154.356 29.0737 154.36C29.309 154.365 29.5397 154.28 29.7345 154.119L33.5829 150.961C33.6019 150.945 33.6244 150.937 33.6474 150.937C33.6704 150.937 33.6929 150.945 33.7119 150.961L37.5603 154.119C37.7524 154.286 37.9823 154.376 38.2181 154.376C38.4538 154.376 38.6837 154.286 38.8758 154.119C39.0664 153.951 39.2099 153.716 39.2866 153.444C39.3632 153.173 39.3693 152.879 39.304 152.603L38.0401 147.147C38.0334 147.12 38.0338 147.091 38.0411 147.064C38.0485 147.036 38.0626 147.013 38.0814 146.996L41.7389 143.46Z" fill="#F95C19"/>
<path d="M33.8333 10.8552C34.0501 10.6926 34.2109 10.4658 34.2932 10.2067C34.3755 9.94747 34.3751 9.66886 34.2922 9.4099C34.2092 9.15094 34.0477 8.92461 33.8305 8.76264C33.6133 8.60068 33.3511 8.5112 33.0808 8.50676L27.8308 8.30714C27.805 8.30535 27.7802 8.29608 27.7595 8.28046C27.7388 8.26483 27.7231 8.24352 27.7141 8.21908L25.9 3.28743C25.8088 3.03653 25.6433 2.81987 25.4257 2.6668C25.2082 2.51373 24.9492 2.43164 24.6837 2.43164C24.4183 2.43164 24.1593 2.51373 23.9417 2.6668C23.7242 2.81987 23.5586 3.03653 23.4675 3.28743L21.6591 8.23669C21.6502 8.26113 21.6344 8.28245 21.6137 8.29807C21.593 8.3137 21.5683 8.32296 21.5425 8.32476L16.2925 8.52437C16.0222 8.52881 15.76 8.61829 15.5428 8.78026C15.3255 8.94222 15.1641 9.16855 15.0811 9.42752C14.9981 9.68648 14.9978 9.96508 15.0801 10.2243C15.1623 10.4835 15.3232 10.7102 15.54 10.8728L19.6583 14.1312C19.6789 14.1475 19.6943 14.1696 19.7026 14.1946C19.7109 14.2196 19.7117 14.2466 19.705 14.2721L18.2875 19.327C18.214 19.5844 18.2211 19.8584 18.3078 20.1116C18.3946 20.3648 18.5567 20.5849 18.7721 20.7421C18.9876 20.8993 19.2459 20.9859 19.512 20.99C19.778 20.9942 20.0389 20.9158 20.2591 20.7654L24.6108 17.8299C24.6322 17.815 24.6577 17.807 24.6837 17.807C24.7098 17.807 24.7352 17.815 24.7566 17.8299L29.1083 20.7654C29.3255 20.9209 29.5855 21.0045 29.8521 21.0045C30.1186 21.0045 30.3786 20.9209 30.5958 20.7654C30.8113 20.6097 30.9736 20.3906 31.0603 20.1383C31.147 19.886 31.1539 19.6128 31.08 19.3564L29.6508 14.2838C29.6432 14.2584 29.6437 14.2312 29.652 14.206C29.6604 14.1807 29.6762 14.1587 29.6975 14.1429L33.8333 10.8552Z" fill="#F95C19"/>
<path d="M59.7777 10.8552C60.0049 10.6926 60.1733 10.4658 60.2595 10.2067C60.3457 9.94747 60.3454 9.66886 60.2584 9.4099C60.1715 9.15094 60.0024 8.92461 59.7748 8.76264C59.5472 8.60068 59.2726 8.5112 58.9894 8.50676L53.4894 8.30714C53.4624 8.30535 53.4364 8.29608 53.4147 8.28046C53.3931 8.26483 53.3765 8.24352 53.3672 8.21908L51.4666 3.28743C51.3711 3.03653 51.1977 2.81987 50.9698 2.6668C50.7419 2.51373 50.4705 2.43164 50.1925 2.43164C49.9144 2.43164 49.643 2.51373 49.4151 2.6668C49.1872 2.81987 49.0138 3.03653 48.9183 3.28743L47.0238 8.23669C47.0145 8.26113 46.998 8.28245 46.9763 8.29807C46.9546 8.3137 46.9287 8.32296 46.9016 8.32476L41.4016 8.52437C41.1184 8.52881 40.8438 8.61829 40.6162 8.78026C40.3886 8.94222 40.2195 9.16855 40.1326 9.42752C40.0457 9.68648 40.0453 9.96508 40.1315 10.2243C40.2177 10.4835 40.3862 10.7102 40.6133 10.8728L44.9277 14.1312C44.9493 14.1475 44.9655 14.1696 44.9742 14.1946C44.9828 14.2196 44.9837 14.2466 44.9766 14.2721L43.4916 19.327C43.4147 19.5844 43.4221 19.8584 43.513 20.1116C43.6038 20.3648 43.7737 20.5849 43.9994 20.7421C44.2251 20.8993 44.4957 20.9859 44.7744 20.99C45.0532 20.9942 45.3265 20.9158 45.5572 20.7654L50.1161 17.8299C50.1385 17.815 50.1652 17.807 50.1925 17.807C50.2197 17.807 50.2464 17.815 50.2688 17.8299L54.8277 20.7654C55.0553 20.9209 55.3276 21.0045 55.6069 21.0045C55.8862 21.0045 56.1585 20.9209 56.3861 20.7654C56.6118 20.6097 56.7818 20.3906 56.8727 20.1383C56.9635 19.886 56.9707 19.6128 56.8933 19.3564L55.3961 14.2838C55.3881 14.2584 55.3886 14.2312 55.3973 14.206C55.4061 14.1807 55.4227 14.1587 55.445 14.1429L59.7777 10.8552Z" fill="#F95C19"/>
</svg>
