<svg width="48" height="52" viewBox="0 0 48 52" fill="none" xmlns="http://www.w3.org/2000/svg">
<path d="M29.5133 8.95652L16.1799 2.56593V41.7785C16.3615 41.7608 16.5463 41.7925 16.7172 41.8737L29.5133 47.9527V8.95652ZM31.7355 9.91844V49.0084L45.0688 42.2154V3.25794L32.2175 9.80558C32.0649 9.88337 31.9 9.92105 31.7355 9.91844ZM13.9587 3.71768L2.84661 9.4795V48.4406L14.0287 42.788C13.9828 42.6537 13.9577 42.5081 13.9577 42.3562V3.79112C13.9577 3.76656 13.9581 3.74207 13.9587 3.71768ZM2.19854 51.4639C1.46255 51.8359 0.62439 51.2429 0.62439 50.3501V8.69336C0.62439 8.21434 0.877564 7.77925 1.27246 7.57962L15.7029 0.111458C15.9888 -0.0330483 16.3168 -0.0372164 16.6056 0.0999869L31.7357 7.35177L45.7139 0.229959C46.4502 -0.145174 47.2911 0.44781 47.2911 1.34217V42.9989C47.2911 43.4766 47.0393 43.9108 46.646 44.1111L32.2175 51.4623C31.931 51.6083 31.6017 51.613 31.3119 51.4753L16.2916 44.3396L2.19854 51.4639Z" fill="#222132"/>
</svg>
