<svg width="53" height="40" viewBox="0 0 53 40" fill="none" xmlns="http://www.w3.org/2000/svg">
<g clip-path="url(#clip0_665_1140)">
<path d="M50.4498 16.4706V18.8235H41.7399C39.6783 18.8235 38.007 17.2434 38.007 15.2941V10.5882C38.007 8.63901 39.6783 7.05884 41.7399 7.05884H50.4498V9.41178H41.7399C41.0527 9.41178 40.4956 9.9385 40.4956 10.5882V15.2941C40.4956 15.9439 41.0527 16.4706 41.7399 16.4706H50.4498ZM5.65576 15.2941C5.65576 14.6444 6.21284 14.1177 6.90004 14.1177C7.58724 14.1177 8.14432 14.6444 8.14432 15.2941V24.7059C8.14432 25.3556 7.58724 25.8824 6.90004 25.8824C6.21284 25.8824 5.65576 25.3556 5.65576 24.7059V15.2941ZM23.0757 20C23.0757 19.3503 23.6328 18.8235 24.32 18.8235C25.0072 18.8235 25.5642 19.3503 25.5642 20V24.7059C25.5642 25.3556 25.0072 25.8824 24.32 25.8824C23.6328 25.8824 23.0757 25.3556 23.0757 24.7059V20ZM41.7399 40C38.3039 40 35.5185 37.3664 35.5185 34.1177C35.5185 30.8689 38.3039 28.2353 41.7399 28.2353C45.1759 28.2353 47.9613 30.8689 47.9613 34.1177C47.9613 37.3664 45.1759 40 41.7399 40ZM41.7399 37.6471C43.8015 37.6471 45.4727 36.0669 45.4727 34.1177C45.4727 32.1684 43.8015 30.5883 41.7399 30.5883C39.6783 30.5883 38.007 32.1684 38.007 34.1177C38.007 36.0669 39.6783 37.6471 41.7399 37.6471ZM14.3657 40C10.9297 40 8.14432 37.3664 8.14432 34.1177C8.14432 30.8689 10.9297 28.2353 14.3657 28.2353C17.8017 28.2353 20.5871 30.8689 20.5871 34.1177C20.5871 37.3664 17.8017 40 14.3657 40ZM14.3657 37.6471C16.4273 37.6471 18.0986 36.0669 18.0986 34.1177C18.0986 32.1684 16.4273 30.5883 14.3657 30.5883C12.3041 30.5883 10.6329 32.1684 10.6329 34.1177C10.6329 36.0669 12.3041 37.6471 14.3657 37.6471Z" fill="#222132"/>
<path d="M8.26884 32.9412H4.41155C2.34996 32.9412 0.678711 31.361 0.678711 29.4118V27.0588C0.678711 25.1096 2.34996 23.5294 4.41155 23.5294H30.7675C30.6212 23.1454 30.5414 22.7307 30.5414 22.2981V8.89787C30.5357 9.20023 30.4862 9.50602 30.3898 9.80883L27.7236 18.1817C27.2442 19.6873 25.7258 20.7301 23.9758 20.8185L16.9651 21.1726C16.7505 21.191 16.527 21.1568 16.3154 21.0606L2.88934 14.9607C1.21404 14.2288 0.343001 12.3971 0.799045 10.6564L2.87011 2.75154C3.32644 1.0098 4.9881 -0.162231 6.80932 0.0183145L21.8047 0.000275433C22.1247 -0.00624685 22.4474 0.103309 22.6959 0.330209L28.7646 5.87156C29.8664 6.53885 30.5195 7.62718 30.5414 8.77812V5.9372C30.5414 3.95767 32.2127 2.35294 34.2743 2.35294C34.4509 2.35294 34.6273 2.36498 34.8022 2.38896L47.7251 4.16161C49.2275 4.36771 50.4505 5.42675 50.8186 6.84054L52.827 14.5544C52.901 14.8387 52.9385 15.1307 52.9385 15.4238V22.2981C52.9385 23.2205 52.5755 24.0616 51.9793 24.6968C52.5755 25.3223 52.9385 26.1505 52.9385 27.0588V29.4118C52.9385 31.361 51.2672 32.9412 49.2056 32.9412H47.8369C47.6503 32.0719 47.2609 31.2723 46.7175 30.5882L46.7205 30.5882H49.2056C49.8928 30.5882 50.4499 30.0615 50.4499 29.4118V27.0588C50.4499 26.4091 49.8928 25.8824 49.2056 25.8824H4.41155C3.72435 25.8824 3.16727 26.4091 3.16727 27.0588V29.4118C3.16727 30.0615 3.72435 30.5882 4.41155 30.5882H8.84972C9.01627 30.5882 9.17517 30.6192 9.32035 30.6753C8.81237 31.3398 8.4476 32.1085 8.26884 32.9412ZM19.3865 30.6432C19.5055 30.6075 19.6321 30.5882 19.7636 30.5882H36.7587H36.7624C36.219 31.2723 35.8296 32.0719 35.643 32.9412H20.4627C20.2811 32.0951 19.9074 31.315 19.3865 30.6432ZM22.5163 3.43728L18.47 18.7402L23.8431 18.4689C24.5807 18.4316 25.1752 18.0234 25.3407 17.5034L28.0069 9.1305C28.1594 8.65151 27.9244 8.13051 27.3668 7.82069L27.1328 7.65264L22.5163 3.43728ZM34.2743 4.74244C33.5871 4.74244 33.03 5.27735 33.03 5.9372V22.2981C33.03 22.9579 33.5871 23.4928 34.2743 23.4928H49.2056C49.8928 23.4928 50.4499 22.9579 50.4499 22.2981V15.4238C50.4499 15.3261 50.4374 15.2288 50.4127 15.134L48.4043 7.42008C48.2816 6.94881 47.874 6.5958 47.3732 6.5271L34.4502 4.75445C34.3919 4.74646 34.3331 4.74244 34.2743 4.74244ZM6.73962 2.37134L6.57724 2.36148C6.01177 2.2918 5.45312 2.67812 5.28566 3.31731L3.21459 11.2222C3.03937 11.891 3.36546 12.5767 3.95014 12.8323L16.0174 18.3148L20.2373 2.3551L6.73962 2.37134Z" fill="#222132"/>
</g>
<defs>
<clipPath id="clip0_665_1140">
<rect width="52.2597" height="40" fill="white" transform="translate(0.678589)"/>
</clipPath>
</defs>
</svg>
