<svg width="48" height="49" viewBox="0 0 48 49" fill="none" xmlns="http://www.w3.org/2000/svg">
<path d="M46.0284 9.80613V1.96C46.0284 0.875875 45.1753 0 44.1193 0H3.78978C2.73381 0 1.88069 0.875875 1.88069 1.96V9.80613C0.884384 9.86738 0.0909183 10.7188 0.0909183 11.76V19.8266C0.0870977 21.3091 0.379486 22.7767 0.950009 24.1386C1.20654 24.7634 1.52274 25.3514 1.88069 25.9088V47.04C1.88069 48.118 2.73381 49 3.78978 49H44.1193C45.1753 49 46.0284 48.1241 46.0284 47.04V25.9088C46.392 25.35 46.7036 24.7573 46.9591 24.1386C47.5258 22.7728 47.8182 21.3211 47.8182 19.8266V11.76C47.8182 10.7188 47.0247 9.86738 46.0284 9.80613ZM6.17614 4.41H41.7329V9.8H6.17614V4.41ZM27.7727 44.5961H20.1364V38.22H27.7727V44.5961ZM41.7329 44.5961H31.5909V36.26C31.5909 35.1759 30.7378 34.3 29.6818 34.3H18.2273C17.1713 34.3 16.3182 35.1759 16.3182 36.26V44.5961H6.17614V29.7614C6.34915 29.8471 6.52813 29.9329 6.71307 30.0064C8.04347 30.5821 9.45739 30.87 10.9131 30.87C12.3687 30.87 13.7767 30.5821 15.1131 30.0064C15.9364 29.6511 16.7119 29.1979 17.4219 28.6527C17.4338 28.6466 17.4457 28.6466 17.4577 28.6527C18.1698 29.2002 18.9453 29.6549 19.7665 30.0064C21.0969 30.5821 22.5108 30.87 23.9665 30.87C25.4221 30.87 26.8301 30.5821 28.1665 30.0064C28.9898 29.6511 29.7653 29.1979 30.4753 28.6527C30.4872 28.6466 30.4991 28.6466 30.5111 28.6527C31.2232 29.2002 31.9987 29.6549 32.8199 30.0064C34.1503 30.5821 35.5642 30.87 37.0199 30.87C38.4755 30.87 39.8835 30.5821 41.2199 30.0064C41.3988 29.9268 41.5778 29.8471 41.7568 29.7614V44.5961H41.7329ZM43.5227 19.8266C43.5227 23.4894 40.5994 26.46 37.002 26.46C34.5679 26.46 32.444 25.1064 31.3224 23.0974C31.1494 22.7911 30.8392 22.6013 30.4932 22.6013H30.4574C30.1173 22.6013 29.8011 22.7911 29.6281 23.0974C29.0557 24.1222 28.2293 24.9732 27.2328 25.5638C26.2363 26.1544 25.1052 26.4636 23.9545 26.46C21.5264 26.46 19.4085 25.1125 18.2869 23.1096C18.1079 22.7972 17.7858 22.6013 17.4338 22.6013C17.0818 22.6013 16.7537 22.7972 16.5807 23.1096C16.005 24.1305 15.1775 24.9777 14.1815 25.5658C13.1855 26.154 12.0561 26.4624 10.9071 26.46C7.30966 26.46 4.38637 23.4894 4.38637 19.8266V14.2406C4.38637 14.2223 4.3983 14.21 4.4162 14.21H43.4929C43.5108 14.21 43.5227 14.2223 43.5227 14.2406V19.8266Z" fill="#F95C19"/>
</svg>
