<svg width="54" height="42" viewBox="0 0 54 42" fill="none" xmlns="http://www.w3.org/2000/svg">
<g clip-path="url(#clip0_665_1130)">
<path d="M23.1844 29H30.6501V24.3333H23.1844V29ZM33.1387 22V29.2333C33.1387 30.3931 32.1359 31.3333 30.899 31.3333H22.9356C21.6986 31.3333 20.6959 30.3931 20.6959 29.2333V22H33.1387ZM15.7188 10.3333V6.83333C15.7188 3.61167 18.5042 1 21.9401 1H31.8944C35.3304 1 38.1158 3.61167 38.1158 6.83333V10.3333H15.7188ZM35.6272 8V6.83333C35.6272 4.90034 33.956 3.33333 31.8944 3.33333H21.9401C19.8786 3.33333 18.2073 4.90034 18.2073 6.83333V8H35.6272Z" fill="#222132"/>
<path d="M50.5587 23.1671C49.5189 23.8994 48.2264 24.3333 46.8258 24.3333H7.00887C5.6083 24.3333 4.31583 23.8994 3.27603 23.1671V34.8333C3.27603 38.055 6.06145 40.6667 9.49743 40.6667H44.3373C47.7732 40.6667 50.5587 38.055 50.5587 34.8333V23.1671ZM4.52031 8H49.3144C51.376 8 53.0472 9.567 53.0472 11.5V34.8333C53.0472 39.3437 49.1476 43 44.3373 43H9.49743C4.68706 43 0.787476 39.3437 0.787476 34.8333V11.5C0.787476 9.567 2.45872 8 4.52031 8ZM4.52031 10.3333C3.83312 10.3333 3.27603 10.8557 3.27603 11.5V18.5C3.27603 20.433 4.94728 22 7.00887 22H46.8258C48.8874 22 50.5587 20.433 50.5587 18.5V11.5C50.5587 10.8557 50.0016 10.3333 49.3144 10.3333H4.52031Z" fill="#222132"/>
</g>
<defs>
<clipPath id="clip0_665_1130">
<rect width="52.2597" height="42" fill="white" transform="translate(0.787354)"/>
</clipPath>
</defs>
</svg>
