<svg width="54" height="52" viewBox="0 0 54 52" fill="none" xmlns="http://www.w3.org/2000/svg">
<path d="M47.8257 11.4352H37.3257V5.71759L32.0757 0H21.5757L16.3257 5.71759V11.4352H5.82574C2.93824 11.4352 0.575745 14.0081 0.575745 17.1528V31.4468C0.575745 33.5909 1.62574 35.3919 3.20074 36.3925V45.7407C3.20074 48.914 5.53699 51.4583 8.45074 51.4583H45.2007C48.1145 51.4583 50.4507 48.914 50.4507 45.7407V36.3639C51.9995 35.3633 53.0757 33.5337 53.0757 31.4468V17.1528C53.0757 14.0081 50.7132 11.4352 47.8257 11.4352ZM21.5757 5.71759H32.0757V11.4352H21.5757V5.71759ZM5.82574 17.1528H47.8257V31.4468H34.7007V22.8704H18.9507V31.4468H5.82574V17.1528ZM29.4507 34.3056H24.2007V28.588H29.4507V34.3056ZM45.2007 45.7407H8.45074V37.1644H18.9507V40.0232H34.7007V37.1644H45.2007V45.7407Z" fill="#F95C19"/>
</svg>
