<svg width="43" height="58" viewBox="0 0 43 58" fill="none" xmlns="http://www.w3.org/2000/svg">
<path d="M32.4395 8.6639V5.77594C32.4395 4.24406 31.8863 2.77493 30.9018 1.69173C29.9172 0.608534 28.5818 0 27.1895 0H16.6895C15.2971 0 13.9617 0.608534 12.9771 1.69173C11.9926 2.77493 11.4395 4.24406 11.4395 5.77594V8.6639C8.65468 8.6639 5.98396 9.88097 4.01483 12.0474C2.0457 14.2138 0.939453 17.152 0.939453 20.2158V51.9834C0.939453 53.5153 1.49258 54.9844 2.47714 56.0676C3.46171 57.1508 4.79707 57.7594 6.18945 57.7594H37.6895C39.0818 57.7594 40.4172 57.1508 41.4018 56.0676C42.3863 54.9844 42.9395 53.5153 42.9395 51.9834V20.2158C42.9395 17.152 41.8332 14.2138 39.8641 12.0474C37.8949 9.88097 35.2242 8.6639 32.4395 8.6639ZM16.6895 5.77594H27.1895V8.6639H16.6895V5.77594ZM21.9395 20.2158L27.1895 25.9917L21.9395 31.7677L16.6895 25.9917L21.9395 20.2158ZM37.6895 51.9834H6.18945V40.4316H11.4395V46.2075H14.0645V40.4316H37.6895V51.9834ZM37.6895 37.5436H6.18945V20.2158C6.18945 18.6839 6.74258 17.2148 7.72714 16.1316C8.71171 15.0484 10.0471 14.4398 11.4395 14.4398H32.4395C33.8318 14.4398 35.1672 15.0484 36.1518 16.1316C37.1363 17.2148 37.6895 18.6839 37.6895 20.2158V37.5436Z" fill="#F95C19"/>
</svg>
