<svg width="44" height="49" viewBox="0 0 44 49" fill="none" xmlns="http://www.w3.org/2000/svg">
<g clip-path="url(#clip0_665_1149)">
<path d="M23.1356 36.5557V47.831C23.1356 48.4753 22.5739 48.9976 21.8809 48.9976C21.1879 48.9976 20.6262 48.4753 20.6262 47.831V36.5555L13.3488 27.5334C12.933 27.0179 13.0453 26.2867 13.5997 25.9001C14.1541 25.5135 14.9406 25.6179 15.3563 26.1334L21.881 34.2223L28.4056 26.1334C28.8214 25.6179 29.6078 25.5135 30.1622 25.9001C30.7166 26.2867 30.8289 27.0179 30.4132 27.5334L23.1356 36.5557ZM16.9872 10.0227C14.8366 12.6425 12.2732 14.0022 9.3336 14.0024C8.64063 14.0024 8.07883 13.4801 8.0788 12.8358C8.07876 12.1914 8.64049 11.6691 9.33346 11.669C11.7508 11.6689 13.8828 10.3438 15.7844 7.54376C16.2507 6.85722 17.3099 6.81248 17.8411 7.45689C20.3105 10.452 25.6965 11.159 34.1449 9.33821C34.82 9.19272 35.4941 9.58362 35.6506 10.2113C35.807 10.839 35.3866 11.4658 34.7116 11.6113C26.4004 13.4025 20.4576 12.9299 16.9872 10.0227ZM29.4099 39.669C28.717 39.6693 28.1549 39.1473 28.1546 38.5029C28.1542 37.8586 28.7157 37.336 29.4087 37.3357L34.4276 37.3333C35.1206 37.333 35.6826 37.8551 35.683 38.4994C35.6833 39.1437 35.1218 39.6663 34.4289 39.6667L29.4099 39.669Z" fill="#222132"/>
<path d="M14.3632 25.7958C9.49322 28.0177 3.05983 34.9286 3.05983 38.5497V44.6335C3.05983 45.6271 3.05983 45.9993 3.05983 46.5815L40.7019 46.6234C40.7019 46.4155 40.7019 46.1778 40.7019 45.7761V38.5497C40.7019 35.1782 34.0442 28.153 29.4458 25.7627C27.4156 27.1925 24.8926 28 21.8809 28C18.8924 28 16.3852 27.205 14.3632 25.7958ZM12.4292 24.1098C9.53564 20.9919 8.07877 16.2466 8.07877 10.7917C8.07877 3.57366 13.4162 0 21.8809 0C30.3455 0 35.683 3.57366 35.683 10.7917C35.683 16.2388 34.2302 20.9783 31.345 24.0964C36.5802 27.1211 43.2114 34.3231 43.2114 38.5497V47.7482C43.2114 48.3925 42.6496 48.9149 41.9566 48.9149H1.80509C1.11212 48.9149 0.550354 48.3925 0.550354 47.7482V38.5497C0.550354 34.1155 6.93422 27.0127 12.4292 24.1098ZM21.8809 25.6667C29.2886 25.6667 33.1735 19.4074 33.1735 10.7917C33.1735 5.0583 29.1036 2.33333 21.8809 2.33333C14.6581 2.33333 10.5882 5.0583 10.5882 10.7917C10.5882 19.4074 14.4731 25.6667 21.8809 25.6667Z" fill="#222132"/>
</g>
<defs>
<clipPath id="clip0_665_1149">
<rect width="42.661" height="49" fill="white" transform="translate(0.550354)"/>
</clipPath>
</defs>
</svg>
