<svg width="23" height="22" viewBox="0 0 23 22" fill="none" xmlns="http://www.w3.org/2000/svg">
<path fill-rule="evenodd" clip-rule="evenodd" d="M16.0576 14.1883L21.9754 20.1062C22.1834 20.3143 22.3002 20.5966 22.3 20.8909C22.2999 21.1851 22.183 21.4673 21.9748 21.6753C21.7667 21.8833 21.4844 22.0001 21.1902 22C20.8959 21.9999 20.6137 21.8829 20.4057 21.6747L14.488 15.7569C12.719 17.1271 10.4944 17.7719 8.26684 17.5601C6.03927 17.3483 3.97605 16.2959 2.4969 14.6169C1.01774 12.9379 0.23376 10.7584 0.304445 8.52184C0.375129 6.28529 1.29517 4.15967 2.87739 2.57741C4.45962 0.995143 6.58518 0.0750819 8.82167 0.00439586C11.0582 -0.0662901 13.2376 0.717709 14.9166 2.1969C16.5955 3.67609 17.648 5.73937 17.8597 7.96699C18.0715 10.1946 17.4267 12.4192 16.0565 14.1883H16.0576ZM9.10046 15.3994C10.8508 15.3994 12.5295 14.704 13.7671 13.4663C15.0048 12.2286 15.7001 10.5499 15.7001 8.79953C15.7001 7.04914 15.0048 5.37044 13.7671 4.13272C12.5295 2.89501 10.8508 2.19967 9.10046 2.19967C7.35011 2.19967 5.67145 2.89501 4.43377 4.13272C3.19609 5.37044 2.50077 7.04914 2.50077 8.79953C2.50077 10.5499 3.19609 12.2286 4.43377 13.4663C5.67145 14.704 7.35011 15.3994 9.10046 15.3994V15.3994Z" fill="#FFAF0F"/>
</svg>
