<svg width="237" height="283" viewBox="0 0 237 283" fill="none" xmlns="http://www.w3.org/2000/svg">
<path d="M221.15 236.537C223.225 236.412 226.454 237.368 227.266 235.909C227.936 234.702 226.697 231.975 226.14 230.577C224.829 227.296 222.488 223.627 219.216 222.262C215.665 220.787 211.008 220.549 206.336 220.067C201.46 219.567 196.562 218.825 192.488 218.814C191.713 218.331 191.801 217.38 191.523 216.617C187.619 205.901 182.499 194.538 177.355 184.934C174.42 179.457 171.469 174.59 166.726 170.974C161.991 167.361 155.263 165.628 147.243 165.169C140.309 164.773 134.707 166.033 134.042 171.914C133.52 176.536 135.338 181.483 136.619 185.405C140.404 196.994 146.632 209.163 150.946 219.128C144.199 219.261 144.878 227.522 145.312 233.715C145.851 234.338 146.725 234.637 148.049 234.498C145.977 249.549 143.929 264.905 141.768 279.985C141.653 280.802 141.485 281.647 141.361 282.5H145.053C145.128 281.874 145.201 281.236 145.313 280.612C147.982 265.6 150.881 249.785 153.526 234.655C162.666 234.898 173.219 235.128 182.988 235.284C183.806 237.545 183.861 239.966 184.276 242.34C186.556 255.391 188.885 268.921 191.179 282.499H194.6C192.822 266.972 190.947 250.882 189.269 235.44C197.625 235.351 206.893 235.732 215.191 236.225C220.3 248.862 225.86 263.229 231.133 276.849C231.776 278.512 232.557 280.468 233.364 282.499H236.869C231.661 267.379 226.314 251.769 221.15 236.537ZM155.294 218.655C152.338 211.581 148.952 204.39 145.474 196.385C143.222 191.202 140.415 184.951 139.034 178.66C138.278 175.214 137.397 170.186 140.805 169.719C148.796 184.728 154.376 202.089 160.931 218.501C158.953 218.457 157.351 218.776 155.294 218.655ZM165.44 218.341C158.852 201.859 153.381 184.289 145.151 169.405C147.274 169.274 148.804 169.715 150.788 169.719C157.012 185.613 163.07 201.67 168.499 218.341H165.44V218.341ZM173.007 218.341C169.151 206.12 164.538 193.787 160.125 182.266C158.77 178.724 157.251 175.303 156.1 171.914C156.002 171.627 155.23 170.947 155.938 170.657C157.479 171.037 159 171.442 160.285 172.071C164.652 188.052 170.778 202.317 175.099 218.341H173.007V218.341ZM179.611 218.341C175.571 203.508 169.936 189.387 165.598 175.365C170.982 180.971 174.492 188.268 177.998 195.6C181.547 203.017 184.657 210.847 187.82 218.501C184.907 218.617 182.494 218.248 179.611 218.341Z" fill="#2257BF"/>
<path fill-rule="evenodd" clip-rule="evenodd" d="M172.217 147.282C172.087 145.647 171.601 144.218 171.889 142.081C172.155 140.091 173.061 137.11 175.089 137.224C177.122 137.342 177.565 140.025 177.491 141.556C177.334 145.018 175.437 147.714 174.262 150.017C175.095 151.469 175.968 152.896 176.908 154.273C177.197 152.146 177.425 149.933 178.017 147.848C178.474 146.237 179.522 143.801 181.427 143.988C183.575 144.198 183.413 147.477 182.993 149.408C182.284 152.664 180.364 155.293 178.575 157.267C179.558 159.255 180.489 161.285 181.568 163.212C182.274 159.653 183.024 156.492 185.13 154.005C185.775 153.244 186.718 152.415 187.856 152.613C189.311 152.867 189.452 154.61 189.087 156.245C188.226 160.116 184.99 163.582 182.704 165.861C183.27 167.522 184.031 169.048 184.576 170.724C185.821 167.5 186.91 164.055 189.279 161.628C190.003 160.883 190.917 159.893 192.142 160.055C193.637 160.254 193.899 162.11 193.627 163.516C192.814 167.766 188.265 170.531 185.434 172.859C187.036 178.192 189.522 184.661 189.817 191.426C189.872 192.706 190.038 194.361 188.536 194.03C187.623 193.828 187.931 192.68 187.916 191.825C187.877 189.315 187.228 186.565 186.941 184.61C183.723 185.272 180.577 184.318 177.96 182.854C176.878 182.249 174.494 180.99 174.915 179.827C175.448 178.366 179.738 180.34 180.675 180.681C182.847 181.46 184.541 182.06 186.383 182.8C186.196 181 185.364 178.879 184.868 176.993C181.374 178.128 176.652 177.103 173.432 175.486C172.346 174.941 170.026 173.553 170.527 172.277C171.173 170.635 175.794 172.317 177.266 172.741C179.742 173.448 181.932 173.961 184.035 174.671C183.27 172.181 182.293 169.835 181.326 167.482C178.325 168.458 172.687 167.85 169.737 166.252C168.824 165.756 167.516 165.044 167.852 164.019C168.339 162.524 172.529 163.738 174.075 164.042C176.592 164.54 178.499 164.951 180.356 165.337C179.608 163.3 178.562 161.467 177.687 159.516C175.589 161.018 171.225 160.963 167.775 159.526C166.411 158.957 162.886 157.254 163.367 155.485C163.939 153.38 169.329 155 171.423 155.589C173.322 156.122 175.121 156.67 176.486 157.352C175.277 154.897 173.892 152.567 172.375 150.318C168.706 151.259 161.493 149.98 159.029 148.428C158.282 147.958 157.119 146.833 157.299 145.92C157.693 143.897 162.317 145.301 164.115 145.805C166.574 146.494 168.63 147.304 170.729 148.011C170.279 147.093 169.496 146.214 168.682 145.276C167.93 144.411 167.141 143.289 166.154 142.69C165.158 142.083 163.917 141.744 162.885 141.297C160.807 140.391 158.886 139.354 157.367 137.831C156.608 137.077 155.667 136.101 156.142 134.983C156.513 134.101 157.734 133.728 159.244 134.21C161.325 134.88 162.836 136.611 164.143 138.007C165.149 139.08 166.241 140.133 167.15 141.324C167.434 141.701 167.597 142.195 167.899 142.568C168.563 143.386 169.551 144.069 170.243 144.844C171.013 145.717 171.565 146.57 172.217 147.282Z" fill="#889922"/>
<path d="M215.479 159.022C216.163 158.537 216.896 158.074 217.604 157.624C218.967 156.761 220.253 155.947 221.201 155.004C222.552 153.658 223.098 152.506 222.875 151.478C222.642 150.417 221.822 150.259 221.355 150.259C220.078 150.259 218.564 151.379 218.398 151.505C216.282 153.11 214.714 155.13 213.313 158.048C212.558 158.637 211.795 159.322 211.061 159.983C210.545 160.445 210.053 160.892 209.575 161.291C209.628 160.263 209.672 159.115 209.556 157.855C209.474 156.922 209.211 154.082 207.327 154.082C205.548 154.106 205.119 156.612 205.138 157.934C205.18 160.481 205.885 162.794 206.966 163.976C206.628 164.322 206.316 164.727 206.012 165.12C205.762 165.444 205.519 165.759 205.278 166.022C205.054 164.875 204.819 163.981 204.29 162.853C203.324 160.809 202.158 159.927 200.961 160.258C200.04 160.51 199.984 161.828 200.1 162.888C200.314 164.823 201.328 167.824 203.281 168.77C202.939 169.212 202.647 169.688 202.362 170.15C202.291 170.266 202.218 170.383 202.145 170.501C201.799 169.553 201.332 168.702 200.776 167.737C200.716 167.63 200.651 167.505 200.575 167.366C200.018 166.312 199.133 164.679 197.718 164.887C197.372 164.938 197.087 165.09 196.898 165.326C196.475 165.856 196.626 166.712 196.805 167.4C197.416 169.743 198.695 171.688 200.612 173.181C199.695 174.959 198.858 176.969 197.953 179.586C197.868 179.44 197.781 179.298 197.699 179.148C197.391 178.615 197.07 178.064 196.621 177.475L196.467 177.264C195.874 176.458 194.826 175.063 193.496 175.274C193.102 175.329 192.788 175.526 192.576 175.84C192.075 176.594 192.297 177.918 192.616 178.615C193.278 180.06 195.179 182.327 196.289 182.755C196.56 182.86 196.838 182.9 197.083 182.916C196.443 185.365 196.022 188.573 195.912 191.802L195.902 192.036C195.878 192.837 195.842 193.837 195.965 194.633L195.983 194.758C196.02 195.08 196.08 195.616 196.673 195.785L196.778 195.813L196.89 195.794C197.86 195.626 197.828 194.775 197.808 194.266C197.799 194.138 197.795 194.014 197.807 193.905C197.836 193.518 197.865 193.113 197.896 192.7C197.998 191.257 198.655 186.001 198.655 186.001C198.842 184.95 199.032 183.87 199.327 182.893C201.492 183.192 203.716 182.898 206.452 181.937C207.443 181.593 209.761 180.78 209.433 179.342C209.322 178.85 208.869 178.262 207.358 178.262C206.261 178.262 204.972 178.56 204.199 178.736L203.988 178.784C202.307 179.165 201.2 179.556 200.135 179.999C200.731 178.06 201.4 176.394 202.163 174.933C203.036 175.264 204.099 175.574 205.437 175.64C205.765 175.655 206.152 175.662 206.57 175.662C207.891 175.662 211.084 175.566 212.138 174.658C212.393 174.437 212.527 174.174 212.519 173.893C212.493 172.502 209.628 172.272 207.476 172.221C206.162 172.188 205.2 172.27 204.263 172.35C204.007 172.371 203.752 172.392 203.486 172.412C203.836 171.735 204.249 171.107 204.654 170.49C204.797 170.276 204.938 170.058 205.074 169.843C206.371 170.635 208.231 171.124 210.383 171.234C210.65 171.248 210.944 171.256 211.252 171.256C212.341 171.256 214.986 171.157 215.965 170.234C216.248 169.966 216.377 169.644 216.333 169.299C216.163 167.967 212.897 167.613 210.737 167.751C210.07 167.796 209.407 167.802 208.85 167.802L207.28 167.796C207.041 167.796 206.798 167.796 206.551 167.8C207.167 166.88 207.899 166.05 208.753 165.121C210.033 165.728 211.988 166.084 214.092 166.084C215.598 166.084 217.068 165.898 218.236 165.561L218.323 165.535C219.426 165.218 221.092 164.736 220.948 163.595C220.791 162.356 218.356 162.321 216.901 162.302L216.529 162.293C214.636 162.248 212.707 162.425 211.015 162.776C211.373 162.469 211.74 162.14 212.12 161.8C213.096 160.922 214.207 159.931 215.479 159.022Z" fill="#889922"/>
<path fill-rule="evenodd" clip-rule="evenodd" d="M210.481 191.472C210.419 190.25 210.447 188.603 209.548 188.183C209.214 188.027 208.575 187.973 207.839 187.955L207.84 187.951L207.351 187.948H207.343L174.876 187.836V187.839C174.259 187.832 173.66 187.84 173.081 187.898C171.222 188.079 171.317 189.329 171.362 191.016C171.406 192.511 171.166 194.238 172.196 194.788C173.05 195.233 175.227 195.118 175.227 195.118C175.817 200.748 176.656 206.496 177.326 212.27C177.524 213.982 177.565 216.926 178.526 217.643C179.44 218.324 202.624 218.466 203.531 217.807C204.145 217.364 204.169 216.485 204.299 215.325C205.088 208.509 205.921 201.637 206.766 195.142C208.056 195.088 209.049 195.198 209.702 194.833C210.582 194.343 210.531 192.624 210.481 191.472Z" fill="#EFAD1B"/>
<path opacity="0.2" fill-rule="evenodd" clip-rule="evenodd" d="M206.766 195.143L175.417 196.858L175.224 195.119L206.766 195.143Z" fill="black"/>
<path d="M138.447 91.4559L138.513 92.5849C138.609 94.2103 136.936 95.4816 134.774 95.4231L23.4301 92.3914C21.2683 92.3326 19.4387 90.966 19.3448 89.3404L19.2776 88.2118L138.447 91.4559Z" fill="#00B2FF"/>
<path d="M16.2811 26.3031C16.1866 24.5543 17.8905 23.1882 20.0889 23.2532L133.364 26.5788C135.562 26.6437 137.424 28.1136 137.519 29.8632L140.989 93.3002L19.7527 89.741L16.2811 26.3031Z" fill="#00B2FF"/>
<path opacity="0.75" d="M137.759 91.5905L134.489 32.0596C134.396 30.4012 132.632 29.0072 130.547 28.9458L23.1386 25.7922C21.0535 25.7302 19.4381 27.0255 19.5292 28.6833L22.8006 88.2151L137.759 91.5905Z" fill="white"/>
<path d="M24.6198 60.1633L36.8569 60.2456L36.9266 69.7255L24.6895 69.6432L24.6198 60.1633Z" fill="#3F3D56"/>
<path d="M22.4983 60.1625L33.6895 60.2432L33.7572 69.7263L22.5659 69.6457L22.4983 60.1625Z" fill="#A5987F"/>
<path d="M22.5344 69.6835L33.8017 69.7631L33.7347 60.2041L22.4674 60.1244L22.5344 69.6835ZM33.7175 69.6867L22.6024 69.6081L22.5365 60.2007L33.6516 60.2793L33.7175 69.6867Z" fill="#3F3D56"/>
<path d="M26.3592 60.1686L26.3769 62.5379L27.0733 62.1555L27.6158 62.5238L28.2592 62.1638L28.855 62.5553L28.8373 60.186L26.3592 60.1686Z" fill="#3F3D56"/>
<path d="M28.8595 64.8619L31.45 64.875L31.4513 65.0143L28.8608 65.0012L28.8595 64.8619Z" fill="#3F3D56"/>
<path d="M28.8594 65.869L31.45 65.8823L31.4513 66.0217L28.8607 66.0083L28.8594 65.869Z" fill="#3F3D56"/>
<path d="M28.8595 66.8769L31.45 66.8901L31.4513 67.0295L28.8608 67.0162L28.8595 66.8769Z" fill="#3F3D56"/>
<path d="M23.8954 64.6576L28.0792 64.688L28.0983 67.2821L23.9144 67.2517L23.8954 64.6576Z" fill="#FEFEFE"/>
<path d="M23.8766 67.281L28.1364 67.3116L28.1168 64.6416L23.857 64.611L23.8766 67.281ZM28.0597 67.2354L23.9522 67.2059L23.9337 64.6872L28.0412 64.7167L28.0597 67.2354Z" fill="#3F3D56"/>
<path d="M36.5669 71.5137L33.2972 71.4918C33.1447 71.4908 32.9928 71.5578 32.9023 71.6781L31.2641 73.7301C30.9999 74.0608 31.2398 74.546 31.6666 74.5489L36.5903 74.5818L36.5669 71.5137V71.5137Z" fill="#F27B79"/>
<path d="M31.6676 74.5879L36.6291 74.6216L36.6049 71.4775L33.2972 71.455C33.1295 71.4539 32.9701 71.5284 32.872 71.6562L31.234 73.7083C31.1058 73.8737 31.077 74.0926 31.1775 74.2823C31.2628 74.4642 31.4542 74.5864 31.6676 74.5879ZM36.5523 74.5455L31.667 74.5123C31.4841 74.5111 31.3233 74.4117 31.2382 74.2449C31.1607 74.0781 31.1745 73.8892 31.2878 73.754L32.9257 71.7019C33.0162 71.5892 33.1454 71.5296 33.2902 71.5306L36.5216 71.5525L36.5447 74.5455L36.5523 74.5455Z" fill="#3F3D56"/>
<path d="M70.0611 58.3716C70.0633 58.6499 69.836 58.8666 69.5613 58.8648L67.9126 58.8542C67.6302 58.8524 67.4071 58.6253 67.4049 58.3545C67.4027 58.0762 67.63 57.8595 67.9048 57.8613L69.5534 57.8719C69.8281 57.8662 70.0589 58.0933 70.0611 58.3716Z" fill="#3F3D56"/>
<path d="M63.8248 58.962L65.8402 58.9766L65.8619 61.8459L63.8465 61.8314L63.8248 58.962Z" fill="#3F3D56"/>
<path d="M69.0582 80.3518L68.9374 63.7097C68.9271 62.2976 67.7594 61.1419 66.333 61.1321L58.858 61.0806C57.4317 61.0708 56.2806 62.2105 56.2909 63.6225L56.4022 78.9508C56.4116 80.2496 55.359 81.2919 54.0471 81.2828L51.9495 81.2684C50.6376 81.2593 49.5697 80.2025 49.5603 78.9037L49.5116 72.2061C49.5116 72.2061 49.5503 70.1828 50.8067 69.897L37.8857 69.808C37.8857 69.808 32.5473 74.1052 31.4692 81.082L31.4748 81.8522L69.071 82.1112L69.0582 80.3518Z" fill="#A5987F"/>
<path d="M31.4366 81.8879L69.1089 82.147L68.9751 63.7074C68.9647 62.2727 67.7817 61.1018 66.3324 61.0918L58.8575 61.0404C57.4082 61.0304 56.2421 62.1852 56.2525 63.6199L56.3637 78.9485C56.3729 80.2246 55.3354 81.2519 54.0464 81.243L51.9488 81.2286C50.6598 81.2197 49.6073 80.1781 49.598 78.9019L49.5494 72.2042C49.5493 72.1815 49.596 70.2111 50.822 69.9326L51.1418 69.8593L37.8775 69.7681L37.8699 69.7756C37.8547 69.783 36.5127 70.8762 35.0622 72.7992C33.7175 74.5794 31.9994 77.4595 31.446 81.0725L31.4366 81.8879ZM69.0321 82.071L31.5123 81.8129L31.507 81.0804C32.0606 77.4901 33.7712 74.6176 35.1084 72.8524C36.4908 71.0195 37.772 69.9486 37.9009 69.8438L50.5779 69.931C49.521 70.3843 49.4802 72.1207 49.4732 72.2037L49.5218 78.9014C49.5313 80.2153 50.6222 81.295 51.9494 81.3041L54.0469 81.3186C55.3741 81.3277 56.4495 80.2629 56.4399 78.949L56.3287 63.6204C56.3187 62.231 57.4546 61.1063 58.858 61.1159L66.333 61.1673C67.7365 61.177 68.8888 62.3175 68.8989 63.7069L69.0321 82.071Z" fill="#3F3D56"/>
<path d="M63.9548 60.8841L64.7829 60.8916L64.8717 77.8224L64.0436 77.8149L63.9548 60.8841Z" fill="#3F3D56"/>
<path d="M21.0895 69.4641L38.6039 69.5488L38.6116 70.3342L21.0972 70.2495L21.0895 69.4641Z" fill="#3F3D56"/>
<path d="M40.779 82.1576L52.9365 82.2339L52.9561 84.6585L40.7986 84.5822L40.779 82.1576Z" fill="#3F3D56"/>
<path d="M36.4381 89.5429C33.4012 89.5222 30.9186 86.7055 30.893 83.2518C30.8675 79.798 33.3086 77.015 36.3455 77.0357C39.3824 77.0564 41.865 79.8731 41.8906 83.3268C41.9162 86.7806 39.475 89.5636 36.4381 89.5429Z" fill="#2F2E41"/>
<path d="M35.4853 87.0778C33.5089 87.0638 31.894 85.2295 31.8784 82.9808C31.8628 80.7321 33.4524 78.9206 35.4288 78.9346C37.4053 78.9486 39.0201 80.7829 39.0357 83.0316C39.0513 85.2802 37.4618 87.0918 35.4853 87.0778Z" fill="#FEFEFE"/>
<path d="M35.4873 87.1159C37.4856 87.1303 39.0909 85.2961 39.0748 83.0324C39.0588 80.7687 37.4197 78.9112 35.429 78.8968C33.4383 78.8825 31.8254 80.7167 31.8414 82.9804C31.8575 85.244 33.489 87.1016 35.4873 87.1159ZM35.4295 78.9728C37.3822 78.9868 38.983 80.8062 38.9988 83.0318C39.0146 85.2575 37.4394 87.054 35.4867 87.04C33.534 87.0259 31.9332 85.2066 31.9174 82.9809C31.9016 80.7552 33.4768 78.9588 35.4295 78.9728Z" fill="#3F3D56"/>
<path d="M37.3522 83.0383C37.3589 83.9428 36.9399 84.7455 35.5814 84.7361C34.7845 84.7305 34.4826 83.9228 34.4758 83.0183C34.4691 82.1138 34.7671 81.3786 35.5564 81.3841C36.915 81.3935 37.3454 82.1262 37.3522 83.0383Z" fill="#3F3D56"/>
<path d="M35.4841 84.669C34.6872 84.6632 34.0359 83.9237 34.0295 83.0174C34.023 82.1111 34.6637 81.3811 35.4606 81.3869C36.2575 81.3927 36.9087 82.1322 36.9152 83.0385C36.9217 83.9449 36.2809 84.6749 35.4841 84.669Z" fill="#FEFEFE"/>
<path d="M35.486 84.7029C36.2986 84.709 36.9614 83.9619 36.9546 83.035C36.9479 82.1081 36.2817 81.351 35.4615 81.3448C34.6414 81.3387 33.9862 82.0858 33.9929 83.0127C33.9997 83.9396 34.6734 84.6968 35.486 84.7029ZM35.4621 81.4284C36.2367 81.4342 36.8723 82.1607 36.8787 83.042C36.8852 83.9233 36.2601 84.6403 35.4855 84.6345C34.7109 84.6287 34.0753 83.9022 34.0689 83.0209C34.0625 82.1396 34.6875 81.4226 35.4621 81.4284Z" fill="#3F3D56"/>
<path d="M67.677 89.5429C64.6401 89.5222 62.1575 86.7055 62.1319 83.2518C62.1064 79.798 64.5475 77.015 67.5844 77.0357C70.6213 77.0564 73.1039 79.8731 73.1295 83.3268C73.155 86.7806 70.7139 89.5636 67.677 89.5429Z" fill="#2F2E41"/>
<path d="M66.7244 87.0778C64.748 87.0638 63.1332 85.2295 63.1176 82.9808C63.102 80.7321 64.6915 78.9206 66.668 78.9346C68.6444 78.9486 70.2593 80.7829 70.2749 83.0316C70.2905 85.2802 68.7009 87.0918 66.7244 87.0778Z" fill="#FEFEFE"/>
<path d="M66.7257 87.1159C68.724 87.1303 70.3293 85.2961 70.3132 83.0324C70.2972 80.7687 68.6581 78.9112 66.6674 78.8968C64.6767 78.8825 63.0638 80.7167 63.0799 82.9804C63.0959 85.244 64.7274 87.1016 66.7257 87.1159ZM66.6679 78.9728C68.6206 78.9868 70.2214 80.8062 70.2372 83.0318C70.253 85.2575 68.6779 87.054 66.7251 87.04C64.7724 87.0259 63.1716 85.2066 63.1558 82.9809C63.14 80.7552 64.7152 78.9588 66.6679 78.9728Z" fill="#3F3D56"/>
<path d="M68.5901 83.0381C68.5969 83.9425 68.1773 84.6767 66.8186 84.6673C66.0215 84.6617 65.72 83.9225 65.7132 83.0181C65.7065 82.1137 66.0046 81.3786 66.7941 81.3841C68.1528 81.3935 68.5833 82.1261 68.5901 83.0381Z" fill="#3F3D56"/>
<path d="M66.7226 84.669C65.9258 84.6632 65.2745 83.9237 65.2681 83.0174C65.2616 82.1111 65.9023 81.3811 66.6992 81.3869C67.496 81.3927 68.1473 82.1322 68.1538 83.0385C68.1602 83.9449 67.5195 84.6749 66.7226 84.669Z" fill="#FEFEFE"/>
<path d="M66.7238 84.7029C67.5363 84.709 68.1991 83.9619 68.1924 83.035C68.1856 82.1081 67.5194 81.351 66.6993 81.3448C65.8791 81.3387 65.2239 82.0858 65.2306 83.0127C65.2374 83.9396 65.9112 84.6968 66.7238 84.7029ZM66.6999 81.4284C67.4745 81.4342 68.11 82.1607 68.1165 83.042C68.1229 83.9233 67.4979 84.6403 66.7233 84.6345C65.9487 84.6287 65.3131 83.9022 65.3066 83.0209C65.3002 82.1396 65.9329 81.4226 66.6999 81.4284Z" fill="#3F3D56"/>
<path d="M26.2081 81.306L26.9118 81.3104C26.9978 80.6113 27.6128 80.0775 28.3624 80.0822L43.9959 80.1797L44.0194 83.0226L28.3859 82.9251C27.6745 82.9207 27.074 82.4309 26.9309 81.7819L26.212 81.7774L26.2081 81.306V81.306Z" fill="#3F3D56"/>
<path d="M29.0519 81.9932C29.0519 81.9932 28.0276 74.2964 37.0803 72.2665C40.3466 71.5337 47.855 71.0945 46.2495 82.112L29.0519 81.9932Z" fill="#A5987F"/>
<path d="M29.0138 82.0267L46.2722 82.1467L46.2796 82.1165C46.875 78.0188 46.2665 75.0987 44.47 73.4545C42.2742 71.4375 38.8835 71.8218 37.0639 72.2322C34.993 72.6937 33.283 73.4977 31.9719 74.6141C30.926 75.5057 30.1334 76.6031 29.6241 77.8762C28.7553 80.0382 28.9982 81.9737 29.006 81.9964L29.0138 82.0267ZM46.2106 82.0707L29.0819 81.9516C29.0571 81.6871 28.8991 79.8881 29.7005 77.8994C30.4945 75.9258 32.4202 73.3481 37.0797 72.3003C38.8841 71.8974 42.2443 71.5128 44.417 73.5071C46.1981 75.136 46.7987 78.0183 46.2106 82.0707Z" fill="#3F3D56"/>
<path d="M49.9658 70.3238L38.5717 70.2514C37.3871 70.2439 36.4169 69.2962 36.4078 68.1378C36.3982 66.9122 37.4606 65.9549 38.707 66.06L50.0699 67.0139C50.9492 67.0868 51.635 67.8085 51.6418 68.6754C51.6489 69.5872 50.8982 70.3297 49.9658 70.3238Z" fill="#3F3D56"/>
<path d="M61.7099 81.1603L74.715 81.2498C74.715 81.2498 74.4872 79.3571 73.1847 77.6302C70.3332 73.8809 64.4679 74.3529 62.4229 78.513C62.0544 79.2488 61.8014 80.1211 61.7099 81.1603Z" fill="#A5987F"/>
<path d="M61.6636 81.1991L74.7524 81.2901L74.7444 81.2448C74.7442 81.2222 74.5012 79.3216 73.2063 77.6096C71.8576 75.8295 69.7137 74.8802 67.4714 75.0681C65.2444 75.256 63.3461 76.5389 62.3762 78.4989C61.9928 79.2874 61.7476 80.1749 61.6633 81.1539L61.6636 81.1991ZM74.6678 81.2141L61.7546 81.1244C61.8392 80.1755 62.0769 79.3031 62.4528 78.5371C63.4076 76.5996 65.2831 75.3317 67.4873 75.1511C69.699 74.963 71.82 75.9045 73.1533 77.662C74.3248 79.2149 74.6199 80.9274 74.6678 81.2141Z" fill="#3F3D56"/>
<path d="M28.9038 82.4061L62.4571 82.5603L62.448 81.6649L74.6888 81.7212L74.6805 80.9072L62.4167 80.8509C61.9191 80.8486 61.5247 81.2063 61.5291 81.6404L61.5302 81.7421L28.8955 81.5922L28.9038 82.4061Z" fill="#3F3D56"/>
<path d="M52.4469 87.5478L54.6805 87.5634L54.6734 86.6557L52.7524 86.6423L48.4274 83.3598L47.8842 84.0745L52.4469 87.5478Z" fill="#3F3D56"/>
<path d="M63.7782 59.8805L66.5605 59.8999C66.7282 59.9011 66.8957 59.8796 67.0479 59.8428C67.9306 59.6296 68.5804 58.8398 68.5736 57.8942C68.5696 57.3343 68.3373 56.8335 67.9688 56.4678C67.7077 56.2088 67.3863 56.025 67.0197 55.9316C66.8594 55.8927 66.6991 55.8689 66.5238 55.8677L66.1198 55.8648C64.7248 55.8551 63.3958 56.5343 62.6802 57.7169C62.6425 57.7772 62.6049 57.845 62.5673 57.9128C62.1087 58.8023 62.7643 59.8735 63.7782 59.8805Z" fill="#A5987F"/>
<path d="M63.7781 59.9181L66.5603 59.9376C66.728 59.9388 66.8955 59.9173 67.063 59.8806C67.9836 59.6601 68.6256 58.8476 68.6187 57.8943C68.6147 57.342 68.3975 56.826 67.9983 56.4374C67.7296 56.1707 67.3928 55.9792 67.0339 55.8859C66.8659 55.8469 66.6981 55.823 66.5304 55.8219L66.1264 55.819C64.6934 55.809 63.3647 56.5259 62.6567 57.6936C62.6191 57.7614 62.5814 57.8217 62.5438 57.8895C62.3182 58.3116 62.3295 58.8185 62.5841 59.2364C62.8463 59.6619 63.2903 59.9147 63.7781 59.9181ZM66.531 55.9051C66.691 55.9062 66.8589 55.9301 67.0117 55.969C67.3629 56.0547 67.6843 56.2385 67.9454 56.4976C68.3216 56.8709 68.5386 57.3717 68.5425 57.9013C68.5492 58.8168 67.9298 59.5992 67.0472 59.8124C66.8874 59.8491 66.7275 59.8707 66.5674 59.8696L63.7852 59.8501C63.3203 59.8468 62.8993 59.6093 62.6601 59.2067C62.4209 58.8116 62.4022 58.3348 62.6204 57.9354C62.658 57.8676 62.6957 57.8073 62.7333 57.7395C63.4262 56.5944 64.7321 55.8925 66.1346 55.9023L66.531 55.9051V55.9051Z" fill="#3F3D56"/>
<path d="M65.6553 57.8714C65.6611 58.6777 66.015 59.4028 66.5721 59.9089L66.5797 59.909C67.6941 59.9172 68.5974 59.0189 68.5893 57.8933C68.5852 57.3304 68.3541 56.8268 67.9876 56.459C67.6211 56.0912 67.1115 55.8592 66.5581 55.8551L66.5505 55.8551C65.9855 56.3452 65.6495 57.0652 65.6553 57.8714Z" fill="#3F3D56"/>
<path d="M66.2123 57.8789C66.2174 58.6551 66.54 59.3501 67.0582 59.8564C67.9351 59.6424 68.5809 58.8484 68.5746 57.8971C68.5709 57.3339 68.3404 56.8299 67.9745 56.4618C67.7154 56.201 67.3961 56.0159 67.0321 55.9218C66.5205 56.4049 66.2071 57.1026 66.2123 57.8789Z" fill="#FEFEFE"/>
<path d="M67.0499 59.8894L67.0726 59.882C67.9874 59.6607 68.6258 58.8437 68.6198 57.8848C68.6162 57.3293 68.4009 56.8102 68.0047 56.4191C67.7379 56.1507 67.4035 55.9579 67.0471 55.8639L67.0243 55.8561L67.0092 55.8712C66.4674 56.3922 66.169 57.0976 66.1738 57.8586C66.1786 58.6196 66.486 59.3296 67.0346 59.8589L67.0499 59.8894ZM67.0476 55.9552C67.389 56.0491 67.7005 56.2265 67.952 56.4796C68.3255 56.8553 68.5407 57.3592 68.5441 57.8919C68.5499 58.8051 67.9491 59.5843 67.0721 59.8059C66.5464 59.292 66.2543 58.6049 66.2496 57.8744C66.2449 57.1362 66.5284 56.4611 67.0476 55.9552Z" fill="#3F3D56"/>
<path d="M61.0051 58.0705L62.5089 58.0811L62.5136 58.6934L61.0098 58.6829L61.0051 58.0705Z" fill="#A5987F"/>
<path d="M60.9811 58.7268L62.5606 58.7379L62.5552 58.0518L60.9758 58.0407L60.9811 58.7268ZM62.4761 58.6619L61.0492 58.6519L61.045 58.1166L62.4719 58.1266L62.4761 58.6619Z" fill="#3F3D56"/>
<path d="M63.0762 57.8627L62.4743 57.8586C62.1924 57.8566 61.9732 58.0822 61.9754 58.3547C61.9776 58.6348 62.2079 58.8559 62.4822 58.8578L63.0841 58.862C63.366 58.8639 63.5852 58.6384 63.583 58.3658C63.5808 58.0933 63.3581 57.8647 63.0762 57.8627Z" fill="#3F3D56"/>
<path d="M61.293 58.3716C61.2952 58.6499 61.068 58.8666 60.7932 58.8648L59.1446 58.8542C58.8622 58.8524 58.6391 58.6253 58.6369 58.3545C58.6347 58.0762 58.862 57.8595 59.1368 57.8613L60.7854 57.8719C61.0601 57.8662 61.2908 58.0933 61.293 58.3716Z" fill="#3F3D56"/>
<path d="M33.9635 80.1557L41.4349 80.1938L41.4386 80.5853L33.9672 80.5471L33.9635 80.1557Z" fill="white"/>
<path d="M33.9302 80.5851L41.4765 80.6249L41.4722 80.1577L33.9259 80.118L33.9302 80.5851ZM41.3993 80.5537L34.0061 80.5148L34.003 80.1892L41.3963 80.2281L41.3993 80.5537Z" fill="black"/>
<path d="M33.9636 79.0244L41.4349 79.062L41.4386 79.4535L33.9672 79.4159L33.9636 79.0244Z" fill="white"/>
<path d="M33.9303 79.453L41.4767 79.4926L41.4724 79.0254L33.926 78.9858L33.9303 79.453ZM41.3995 79.4214L34.0062 79.3826L34.0032 79.057L41.3965 79.0958L41.3995 79.4214Z" fill="black"/>
<path d="M33.9636 77.9005L41.435 77.939L41.4387 78.3304L33.9673 78.2919L33.9636 77.9005Z" fill="white"/>
<path d="M33.9305 78.3293L41.4768 78.3685L41.4725 77.9014L33.9262 77.8621L33.9305 78.3293ZM41.3996 78.2974L34.0064 78.2589L34.0034 77.9333L41.3966 77.9718L41.3996 78.2974Z" fill="black"/>
<path d="M45.3429 87.5556L61.043 87.6113L61.0443 87.7093L45.3443 87.6536L45.3429 87.5556Z" fill="#3F3D56"/>
<path d="M75.9241 90.7149L125.073 90.8013L125.074 90.8339L75.925 90.7476L75.9241 90.7149Z" fill="#3F3D56"/>
<path d="M87.1511 90.6604L93.1094 90.7023C93.1094 90.7023 92.7242 89.4247 90.0766 88.3586L90.0826 88.0663L90.0956 86.4829L87.2758 86.4631L87.237 87.8595L87.1511 90.6604Z" fill="#3F3D56"/>
<path d="M87.1024 90.7043L93.1588 90.7472L93.1421 90.6983C93.1254 90.6495 92.7239 89.3961 90.109 88.3382L90.1198 86.4543L87.2183 86.4338L87.1024 90.7043ZM93.052 90.6652L87.1918 90.6238L87.3087 86.5075L90.0468 86.5269L90.0358 88.3864L90.0604 88.3947C92.3557 89.3285 92.9439 90.4208 93.052 90.6652Z" fill="#3F3D56"/>
<path d="M79.3474 90.6595L85.3056 90.7009C85.3056 90.7009 84.9205 89.4233 82.2729 88.3574L82.2961 88.1627L82.5127 86.4833L79.693 86.4637L79.5728 87.9245L79.3474 90.6595Z" fill="#3F3D56"/>
<path d="M79.2991 90.701L85.3636 90.7436L85.3469 90.6947C85.3302 90.6459 84.9288 89.3925 82.3139 88.3348L82.5535 86.4444L79.652 86.424L79.2991 90.701ZM85.2486 90.6616L79.3884 90.6205L79.7261 86.5057L82.4641 86.525L82.2244 88.3829L82.2571 88.3912C84.5605 89.325 85.1406 90.4172 85.2486 90.6616Z" fill="#3F3D56"/>
<path d="M114.72 90.66L120.678 90.7014L120.272 87.7346L120.108 86.4992L117.288 86.4796L117.634 88.0005L117.721 88.6832C114.956 89.5086 114.72 90.66 114.72 90.66Z" fill="#3F3D56"/>
<path d="M114.671 90.701L120.727 90.7436L120.148 86.46L117.239 86.4395L117.602 88.0094L117.68 88.6514C114.956 89.4687 114.687 90.6037 114.679 90.6523L114.671 90.701ZM120.637 90.6618L114.777 90.6205C114.865 90.3938 115.356 89.4309 117.738 88.7249L117.77 88.717L117.683 88.0018L117.346 86.5296L120.075 86.5488L120.637 90.6618Z" fill="#3F3D56"/>
<path d="M107.818 90.6595L113.776 90.7009L113.608 87.7845L113.534 86.501L110.714 86.4814L110.799 88.0411L110.819 88.5934C108.187 89.6308 107.818 90.6595 107.818 90.6595Z" fill="#3F3D56"/>
<path d="M107.762 90.701L113.827 90.7436L113.575 86.4623L110.673 86.442L110.767 88.0505L110.787 88.5785C108.187 89.5996 107.802 90.612 107.786 90.6525L107.762 90.701ZM113.736 90.6617L107.884 90.6207C108.005 90.3942 108.603 89.5132 110.836 88.6356L110.861 88.6277L110.84 88.0429L110.755 86.5237L113.493 86.543L113.736 90.6617Z" fill="#3F3D56"/>
<path d="M91.7778 32.0074L87.6426 31.0467L87.2054 32.6167C87.0909 32.5343 86.9765 32.4845 86.8707 32.4837C86.382 32.48 86.2883 33.0662 86.2883 33.0662C86.1542 33.701 86.5722 34.0955 86.7614 34.3741L85.3754 38.9042L88.889 39.477L89.1705 36.5771C92.2022 38.1245 91.7778 32.0074 91.7778 32.0074Z" fill="#FFAC71"/>
<path d="M88.9299 39.512L89.2116 36.6284C89.8081 36.9182 90.3213 36.9383 90.7266 36.6724C92.0724 35.7858 91.8361 32.1565 91.8269 32.0016L91.8267 31.969L87.618 30.9918L87.1887 32.5374C87.0824 32.4632 86.9763 32.4298 86.8786 32.4291C86.3655 32.4252 86.2556 33.0358 86.2557 33.0439C86.1373 33.5973 86.4248 33.9663 86.6302 34.2369C86.6631 34.2779 86.6959 34.3189 86.7207 34.3598L85.3264 38.9143L88.9299 39.512ZM89.1375 36.5056L88.856 39.4218L85.4319 38.858L86.8102 34.3605L86.802 34.3441C86.7691 34.3031 86.7362 34.254 86.6952 34.2048C86.498 33.9424 86.2268 33.5899 86.3373 33.0771C86.3453 33.0527 86.4313 32.5235 86.8792 32.5269C86.977 32.5276 87.0831 32.5692 87.1895 32.6515L87.2386 32.6845L87.6839 31.0982L91.7539 32.0418C91.7726 32.4006 91.934 35.7929 90.6855 36.6069C90.2963 36.8648 89.7913 36.8365 89.2029 36.5387L89.1375 36.5056Z" fill="#3F3D56"/>
<path d="M93.055 30.2164C92.8665 30.1747 92.3922 30.2119 92.1075 30.4448C92.1237 30.4125 92.1398 30.3802 92.1559 30.3479C92.5722 29.0875 90.7871 30.0146 89.8393 30.1943C89.6433 30.2335 89.21 30.2872 89.21 30.2872C86.366 29.6279 86.6734 32.4968 86.6734 32.4968C87.4173 32.3966 87.6455 33.4023 87.6455 33.4023C88.4039 33.0512 88.6374 32.5426 88.6604 32.3242C89.3992 32.6613 91.294 33.3059 92.8486 32.1991C93.9149 31.4371 93.5302 30.3088 93.055 30.2164Z" fill="#2F2E41"/>
<path d="M109.676 42.2883C109.676 42.2883 110.81 40.1534 110.9 39.0864L110.403 36.7353C110.403 36.7353 110.331 34.4853 113.292 35.0538C113.292 35.0538 113.268 33.9941 113.967 33.7467C113.967 33.7467 113.629 34.3391 113.755 34.9269C113.755 34.9269 114.316 33.6271 115.396 34.32C115.396 34.32 116.23 34.7827 116.016 35.6124C116.016 35.6124 116.039 36.558 114.744 36.5645C114.744 36.5645 114.768 37.7465 117.638 39.3739C117.638 39.3739 120.025 40.5331 119.846 43.0176C119.668 45.5021 117.462 47.0502 117.462 47.0502L109.317 46.9964L109.676 42.2883Z" fill="#2F2E41"/>
<path d="M114.179 43.2586L113.803 39.1503C113.803 39.1503 114.41 38.7961 114.251 38.0929C114.251 38.0929 114.101 37.5285 113.544 37.9566L113.521 36.9606C113.521 36.9606 111.561 37.6873 110.409 36.5598C110.409 36.5598 109.606 40.4381 111.351 40.4442L110.999 43.706L114.179 43.2586Z" fill="#FFAC71"/>
<path d="M110.958 43.7534L114.228 43.2985L113.852 39.1738C113.965 39.1013 114.442 38.7379 114.3 38.0838C114.3 38.0757 114.233 37.8385 114.038 37.7716C113.908 37.7297 113.762 37.7612 113.592 37.874L113.57 36.9026L113.513 36.9185C113.497 36.9265 111.569 37.6209 110.441 36.5262L110.392 36.4768L110.376 36.5502C110.353 36.6561 109.841 39.182 110.61 40.1268C110.79 40.3487 111.027 40.4648 111.311 40.4753L110.958 43.7534ZM114.138 43.2243L111.055 43.6562L111.408 40.4027L111.359 40.4023C111.075 40.3999 110.847 40.292 110.675 40.0784C110.004 39.2486 110.371 37.0643 110.45 36.6405C111.503 37.5959 113.173 37.1198 113.497 37.0163L113.52 38.0367L113.585 37.9882C113.754 37.859 113.9 37.8113 114.014 37.853C114.169 37.9032 114.227 38.1077 114.227 38.1077C114.377 38.7782 113.819 39.1083 113.795 39.1244L113.771 39.1405L113.771 39.165L114.138 43.2243Z" fill="#2F2E41"/>
<path d="M87.2324 87.8688L90.0793 88.0676L90.092 86.4888L87.2709 86.4683L87.2324 87.8688Z" fill="#3F3D56"/>
<path d="M79.5769 87.9259L82.3012 88.1644L82.5175 86.4893L79.6967 86.4688L79.5769 87.9259Z" fill="#3F3D56"/>
<path d="M83.6469 53.4707L83.763 54.0935L84.4681 57.9366L86.2928 67.8191L86.4173 71.0766L87.0562 87.3969L91.7204 87.4347L92.1197 67.9644L91.3146 57.1002L91.0438 53.5306L83.6469 53.4707Z" fill="#CDCBCC"/>
<path d="M87.017 87.4391L91.7623 87.4774L91.762 87.4365L92.1605 67.9665L91.0835 53.492L83.597 53.4316L86.2524 67.8288L87.017 87.4391ZM91.6816 87.3949L87.0887 87.3579L86.3245 67.8212L83.6857 53.5141L90.9959 53.5732L92.0804 67.9741L91.6816 87.3949Z" fill="#3F3D56"/>
<path d="M117.304 86.4672L117.658 87.9824L120.298 87.7184L120.125 86.4876L117.304 86.4672Z" fill="#3F3D56"/>
<path d="M110.732 86.4678L110.817 88.0309L113.628 87.7679L113.553 86.4883L110.732 86.4678Z" fill="#3F3D56"/>
<path d="M78.9908 87.4433L83.7167 87.4806L86.3153 71.1083L86.8952 67.4401L87.8651 57.9753L88.2513 54.1665L80.5758 54.1061L80.6267 57.1167L80.8009 67.0486L78.9908 87.4433Z" fill="#CDCBCC"/>
<path d="M78.9564 87.4836L83.7634 87.5226L83.7712 87.4899L86.9468 67.4505L88.3085 54.1284L80.5434 54.0655L80.7711 67.0487L78.9564 87.4836ZM83.6905 87.4402L79.0444 87.4025L80.8435 67.0575L80.6163 54.1479L88.2126 54.2094L86.8583 67.4334L83.6905 87.4402Z" fill="#3F3D56"/>
<path d="M108.509 65.4088L109.87 87.3986L114.105 87.4343L113.877 73.5005L113.74 65.5511L114.308 58.1888L114.529 55.252L110.978 55.1648L108.972 55.107L108.825 58.4045L108.509 65.4088Z" fill="#3F3D56"/>
<path d="M109.839 87.4381L114.147 87.4745L114.147 87.4336L113.781 65.5507L114.577 55.211L108.938 55.0651L108.468 65.4076L109.839 87.4381ZM114.067 87.392L109.91 87.3569L108.548 65.4083L109.01 55.1476L114.49 55.2921L113.701 65.5501L114.067 87.392Z" fill="#3F3D56"/>
<path d="M80.6201 54.0844L80.6752 57.0541C82.038 57.5073 83.3175 57.7743 84.4813 57.8953C85.8172 58.0417 87.0208 58.0096 88.0517 57.8876C89.5981 57.7127 90.7745 57.3335 91.4685 57.0558L91.1964 53.5359L83.6374 53.4838L83.7567 54.0979L80.6201 54.0763L80.6201 54.0844Z" fill="#3F3D56"/>
<path d="M111.011 54.7963L111.061 55.1402L111.541 58.5386L112.81 67.4973L113.989 73.4614L116.711 87.274L120.627 87.3867L118.7 67.1103L118.136 56.5212L118.036 54.6555L111.011 54.7963Z" fill="#3F3D56"/>
<path d="M120.684 87.4324L120.684 87.3833L118.752 67.1066L118.076 54.6108L110.969 54.749L112.772 67.5076L116.688 87.3179L120.684 87.4324ZM117.996 54.7001L118.663 67.114L120.595 87.3417L116.751 87.2284L112.853 67.4837L111.058 54.8315L117.996 54.7001Z" fill="#3F3D56"/>
<path d="M109.282 42.98L106.144 47.0662L101.728 47.8958L101.75 51.0698L106.928 50.6203C107.286 50.5904 107.62 50.4627 107.912 50.2614L109.975 48.812L109.282 42.98Z" fill="#CDCBCC"/>
<path d="M101.709 51.1243L106.936 50.6665C107.295 50.6366 107.645 50.509 107.945 50.2996L110.032 48.8338L109.322 42.8793L106.128 47.0307L101.695 47.8687L101.718 51.1243L101.709 51.1243ZM109.942 48.8006L107.896 50.2422C107.612 50.4436 107.278 50.5632 106.928 50.5932L101.791 51.0435L101.769 47.9425L106.169 47.1124L106.177 47.1043L109.258 43.0986L109.942 48.8006Z" fill="#3F3D56"/>
<path d="M88.9762 38.5205C88.9762 38.5205 88.3761 39.96 85.6165 37.0914L80.9282 38.793C80.2634 39.0816 79.7959 39.6899 79.6788 40.407L78.9672 44.595L81.5368 44.6148L80.4255 55.8162C80.4255 55.8162 83.8958 56.7649 86.5471 56.8424C90.9226 56.9741 91.8849 56.1982 91.8849 56.1982L91.6628 52.2151L91.569 43.1583C91.609 41.8695 91.0658 40.8945 90.2943 39.8442L88.9762 38.5205Z" fill="#A5987F"/>
<path d="M87.2777 56.8948C90.9939 56.9231 91.8676 56.2525 91.8999 56.2283L91.916 56.2121L91.6939 52.2046L91.6004 43.1478C91.6407 41.8835 91.1136 40.8923 90.3176 39.8093L88.9586 38.4447L88.9346 38.5016C88.9265 38.5097 88.8143 38.7618 88.4732 38.8244C88.0265 38.9026 87.1793 38.6596 85.6398 37.0569L85.6234 37.0405L85.5991 37.0484L80.9106 38.7505C80.2296 39.0472 79.754 39.6636 79.637 40.397L78.9174 44.634L81.4871 44.6536L80.3753 55.8468L80.4079 55.8553C80.4404 55.8637 83.9107 56.8038 86.5377 56.8891C86.7898 56.891 87.0419 56.893 87.2777 56.8948ZM91.8345 56.1707C91.6887 56.2675 90.5466 56.9196 86.5371 56.7994C84.0647 56.7234 80.8308 55.8748 80.4643 55.7823L81.5759 44.5645L79.0144 44.545L79.7184 40.4058C79.8356 39.6969 80.2869 39.1047 80.9436 38.8242L85.6078 37.1382C87.1636 38.7492 88.0434 38.9925 88.4982 38.9062C88.7906 38.8513 88.9357 38.6729 88.992 38.5836L90.2691 39.8579C91.0734 40.9573 91.5676 41.8993 91.5272 43.1473L91.6207 52.204L91.8345 56.1707Z" fill="#3F3D56"/>
<path d="M91.9018 42.6823L104.935 42.7764L105.004 52.8651L91.9709 52.771L91.9018 42.6823Z" fill="#3F3D56"/>
<path d="M89.6435 42.6855L101.562 42.7769L101.629 52.8694L89.7102 52.7781L89.6435 42.6855Z" fill="#FEFEFE"/>
<path d="M89.6696 52.8143L101.67 52.9064L101.603 42.7324L89.6023 42.6403L89.6696 52.8143ZM101.588 52.8245L89.7508 52.7336L89.6845 42.7222L101.522 42.8131L101.588 52.8245Z" fill="#3F3D56"/>
<path d="M93.7511 42.6847L93.769 45.2085L94.5084 44.8071L95.0822 45.1942L95.7647 44.8168L96.4038 45.2288L96.3859 42.7051L93.7511 42.6847Z" fill="#3F3D56"/>
<path d="M96.3998 47.684L99.1621 47.6987L99.1634 47.8477L96.4011 47.833L96.3998 47.684Z" fill="#3F3D56"/>
<path d="M96.3998 48.7576L99.1621 48.7725L99.1634 48.9214L96.4011 48.9065L96.3998 48.7576Z" fill="#3F3D56"/>
<path d="M96.3998 49.8333L99.1621 49.8481L99.1634 49.9971L96.4011 49.9822L96.3998 49.8333Z" fill="#3F3D56"/>
<path d="M91.1239 47.464L95.5802 47.498L95.5989 50.2539L91.1426 50.2198L91.1239 47.464Z" fill="#FEFEFE"/>
<path d="M91.103 50.2609L95.6409 50.2953L95.6216 47.458L91.0837 47.4236L91.103 50.2609ZM95.5586 50.2136L91.1842 50.1804L91.166 47.5053L95.5404 47.5385L95.5586 50.2136Z" fill="#3F3D56"/>
<path d="M108.844 58.3463C109.533 58.4479 110.475 58.5351 111.548 58.5023C112.448 58.4763 113.447 58.3702 114.477 58.1273C115.727 57.8294 117.026 57.3221 118.256 56.5076L118.152 54.6673L111.004 54.8113L111.056 55.1505L108.992 55.1038L108.844 58.3463Z" fill="#3F3D56"/>
<path d="M101.667 53.1676C101.741 53.2889 101.84 53.3862 101.956 53.4675C102.071 53.5488 102.203 53.606 102.342 53.6312L102.99 53.7806C103.409 53.8722 103.835 53.9235 104.261 53.9265L104.826 53.9305C104.99 53.9316 105.154 53.8925 105.293 53.813L105.896 53.4873L106.535 53.4193L108.909 53.1544L108.896 51.3593L106.899 51.6511L105.974 51.7894L103.963 51.2278C103.963 51.2278 103.616 51.9418 104.716 52.3118L103.655 52.8194L101.869 52.8068C101.68 52.7894 101.559 53.0058 101.667 53.1676Z" fill="#E78D4C"/>
<path d="M104.27 53.9562L104.835 53.9602C105.007 53.9615 105.179 53.9224 105.326 53.8349L105.921 53.5171L108.958 53.1765L108.944 51.3002L105.982 51.738L103.946 51.1678L103.93 51.1999C103.922 51.2079 103.801 51.4647 103.934 51.7555C104.034 51.9897 104.265 52.1766 104.618 52.308L103.655 52.7681L101.877 52.7553C101.771 52.7546 101.673 52.8102 101.624 52.8985C101.576 52.9867 101.577 53.0994 101.634 53.1884C101.717 53.3098 101.816 53.4152 101.932 53.4966C102.055 53.578 102.187 53.6353 102.326 53.6685L102.974 53.8181C103.409 53.9098 103.836 53.9531 104.27 53.9562ZM108.876 53.1115L105.888 53.4444L105.284 53.7702C105.145 53.8417 104.99 53.8808 104.834 53.8797L104.269 53.8757C103.843 53.8726 103.417 53.8212 103.007 53.7297L102.358 53.5801C102.227 53.547 102.104 53.4978 101.988 53.4164C101.881 53.3432 101.782 53.2459 101.708 53.1326C101.666 53.0679 101.666 52.9873 101.698 52.9232C101.73 52.859 101.804 52.8192 101.878 52.8198L103.672 52.8326L104.831 52.2773L104.732 52.2444C104.355 52.1209 104.107 51.9339 104.008 51.7077C103.916 51.5058 103.964 51.3209 103.996 51.2487L105.983 51.8024L108.863 51.3802L108.876 53.1115Z" fill="#3F3D56"/>
<path d="M93.6029 36.4171L101.684 36.4766L101.728 42.7313L93.6465 42.6718L93.6029 36.4171Z" fill="#3F3D56"/>
<path d="M92.2054 36.4162L99.5903 36.4741L99.6323 42.7312L92.2473 42.6732L92.2054 36.4162Z" fill="#A5987F"/>
<path d="M92.2079 42.7138L99.6745 42.7725L99.6317 36.4341L92.1651 36.3753L92.2079 42.7138ZM99.5922 42.6906L92.289 42.6331L92.2473 36.4572L99.5505 36.5147L99.5922 42.6906Z" fill="#3F3D56"/>
<path d="M94.7451 36.4147L94.7561 37.9767L95.2193 37.7281L95.5798 37.9668L96.0024 37.7341L96.3957 37.9893L96.3846 36.4272L94.7451 36.4147Z" fill="#3F3D56"/>
<path d="M96.3888 39.4844L98.1027 39.4951L98.1039 39.6501L96.39 39.6394L96.3888 39.4844Z" fill="#3F3D56"/>
<path d="M96.3888 40.15L98.1027 40.1606L98.1039 40.3156L96.39 40.3049L96.3888 40.15Z" fill="#3F3D56"/>
<path d="M96.3888 40.8199L98.1027 40.8306L98.1039 40.9855L96.39 40.9749L96.3888 40.8199Z" fill="#3F3D56"/>
<path d="M93.1206 39.3812L95.8842 39.4028L95.8959 41.112L93.1323 41.0903L93.1206 39.3812Z" fill="#FEFEFE"/>
<path d="M93.0911 41.1276L95.9362 41.1494L95.924 39.3589L93.0789 39.3371L93.0911 41.1276ZM95.8539 41.0677L93.1723 41.0472L93.1612 39.4188L95.8428 39.4393L95.8539 41.0677Z" fill="#3F3D56"/>
<path d="M106.557 53.3986L108.921 53.1315L108.907 51.3164L106.919 51.6108L106.557 53.3986Z" fill="#3F3D56"/>
<path d="M107.332 51.3691L108.82 51.0949L109.015 43.7772C109.029 43.3127 109.237 42.8742 109.594 42.5753L111.108 41.3151C111.108 41.3151 111.414 43.1838 114.245 41.3385L116.882 42.3037C117.625 42.5782 118.191 43.21 118.376 43.9775L120.092 52.0675C120.252 52.8186 119.703 53.5236 118.937 53.5423L118.147 53.5608L118.547 56.1394C118.547 56.1394 115.843 57.2847 113.058 57.4351C109.85 57.6149 108.794 56.8409 108.834 56.7352L108.979 53.9977L107.35 54.0508L107.332 51.3691V51.3691Z" fill="#CDCBCC"/>
<path d="M112.016 57.5187C112.334 57.5211 112.684 57.5156 113.059 57.494C115.819 57.3436 118.532 56.2067 118.564 56.1906L118.597 56.1746L118.588 56.1419L118.196 53.6123L118.946 53.5935C119.32 53.58 119.669 53.4115 119.903 53.1117C120.138 52.82 120.225 52.4376 120.141 52.0702L118.424 43.98C118.231 43.1879 117.665 42.556 116.897 42.2731L114.244 41.2995L114.227 41.3075C113.133 42.0247 112.263 42.2708 111.707 42.0221C111.242 41.8148 111.157 41.317 111.157 41.317L111.148 41.2435L109.585 42.5521C109.221 42.8591 109.004 43.3058 108.991 43.7866L108.796 51.0717L107.307 51.3458L107.326 54.1171L108.955 54.0642L108.81 56.7528C108.802 56.7772 108.81 56.7936 108.827 56.8182C108.926 56.9738 109.785 57.5019 112.016 57.5187ZM118.499 56.1249C118.198 56.2449 115.647 57.2608 113.05 57.4042C109.981 57.5767 108.925 56.8678 108.875 56.7533L108.875 56.7452L109.019 53.9587L107.382 54.0116L107.365 51.3951L108.853 51.1211L109.048 43.7707C109.061 43.3143 109.27 42.8921 109.61 42.6012L111.068 41.3815C111.109 41.5367 111.25 41.9045 111.651 42.0787C112.239 42.3439 113.101 42.1059 114.236 41.3728L116.857 42.3299C117.592 42.5962 118.142 43.2117 118.326 43.9792L120.043 52.0694C120.119 52.4123 120.031 52.7703 119.822 53.0458C119.603 53.3213 119.279 53.4819 118.929 53.4955L118.09 53.5137L118.499 56.1249Z" fill="#3F3D56"/>
<path d="M118.149 53.5043L118.154 53.5952L108.836 54.1228L108.831 54.0318L118.149 53.5043Z" fill="#3F3D56"/>
<path d="M108.77 51.1318L115.813 49.7353L115.15 46.2392L115.069 46.2549L115.723 49.6697L108.753 51.0586L108.77 51.1318Z" fill="#3F3D56"/>
<path d="M78.565 49.76C78.4973 50.5786 79.018 51.3445 79.813 51.5933L88.189 54.2301L88.9842 54.5113C89.2875 54.6188 89.6149 54.6535 89.9335 54.6152L91.5348 54.4316C91.6328 54.416 91.739 54.3924 91.8287 54.3606L93.6964 53.6923C93.9329 53.6047 94.1443 53.444 94.2818 53.2341L94.306 53.1937C94.4031 53.0484 94.2954 52.853 94.1155 52.8518L91.1062 52.831C91.9772 52.2856 91.9082 51.7985 91.9082 51.7985L90.062 52.0372L88.7139 52.19L82.3213 49.0642L83.0309 45.4279L83.1727 44.6909L78.9368 44.6616L78.899 45.0911L78.565 49.76Z" fill="#FFAC71"/>
<path d="M89.6808 54.6686C89.7708 54.6692 89.8607 54.6618 89.9424 54.6542L91.5437 54.4705C91.6499 54.4551 91.756 54.4315 91.8457 54.3996L93.7134 53.7312C93.9663 53.6437 94.1695 53.4829 94.3151 53.2568L94.3393 53.2164C94.396 53.1357 94.3952 53.0303 94.3456 52.9489C94.2959 52.8593 94.2137 52.8101 94.1074 52.8094L91.2372 52.7897C92.0021 52.2678 91.9498 51.8133 91.9414 51.7889L91.9329 51.7483L90.0458 51.9867L88.7058 52.1316L82.3546 49.0306L83.2142 44.6328L78.8966 44.6032L78.4921 49.7503C78.4246 50.5933 78.9535 51.3673 79.7731 51.6244L88.1488 54.2607L88.944 54.5419C89.1981 54.6248 89.4437 54.667 89.6808 54.6686ZM94.1325 52.8906C94.198 52.8911 94.2636 52.924 94.2968 52.9891C94.3299 53.0461 94.3304 53.1191 94.29 53.1756L94.2657 53.2159C94.1282 53.4178 93.933 53.5705 93.7047 53.6581L91.8371 54.3266C91.7473 54.3584 91.6494 54.3821 91.5514 54.3976L89.95 54.5813C89.6396 54.6197 89.3123 54.585 89.0171 54.4776L88.2219 54.1964L79.8462 51.56C79.0676 51.3113 78.5635 50.578 78.6231 49.7674L79.0199 44.6933L83.1657 44.7217L82.3141 49.079L82.3387 49.0954L88.7392 52.2211L90.1036 52.0682L91.9009 51.8373C91.8936 51.9589 91.8065 52.3556 91.1146 52.7888L91.0006 52.8611L94.1325 52.8825L94.1325 52.8906Z" fill="#3F3D56"/>
<path d="M83.5849 42.8825L83.6671 42.9023L83.2158 44.7913L83.1336 44.7714L83.5849 42.8825Z" fill="#3F3D56"/>
<path d="M78.9371 45.0663L83.0638 45.4016L83.2137 44.6743L78.9666 44.647L78.9371 45.0663Z" fill="#3F3D56"/>
<path d="M101.05 66.628C100.836 66.6267 100.624 66.6675 100.427 66.7483C100.23 66.829 100.051 66.9481 99.9011 67.0987C99.7509 67.2492 99.6323 67.4284 99.552 67.6258C99.4717 67.8233 99.4312 68.0352 99.4329 68.2495C99.4293 67.8167 99.2542 67.4006 98.946 67.0928C98.6379 66.7849 98.2219 66.6105 97.7897 66.6079C98.2219 66.6105 98.635 66.4411 98.9381 66.1369C99.2412 65.8327 99.4095 65.4186 99.4059 64.9859C99.4095 65.4186 99.5846 65.8347 99.8928 66.1426C100.201 66.4505 100.617 66.6249 101.049 66.6275L101.05 66.628Z" fill="#555185"/>
<path d="M105.426 76.9851C105.793 76.9873 106.088 76.691 106.085 76.3232C106.082 75.9555 105.782 75.6556 105.415 75.6534C105.047 75.6512 104.752 75.9475 104.755 76.3153C104.758 76.683 105.058 76.9829 105.426 76.9851Z" fill="#A5987F"/>
<path d="M77.9051 69.3577C78.2723 69.3599 78.5675 69.0635 78.5645 68.6958C78.5615 68.3281 78.2613 68.0282 77.8941 68.026C77.5269 68.0238 77.2317 68.3201 77.2347 68.6878C77.2377 69.0556 77.5379 69.3555 77.9051 69.3577Z" fill="#A5987F"/>
<path d="M100.822 58.4342C101.291 58.437 101.669 58.0586 101.665 57.589C101.661 57.1194 101.277 56.7364 100.808 56.7336C100.339 56.7308 99.9619 57.1092 99.9658 57.5788C99.9697 58.0484 100.353 58.4314 100.822 58.4342Z" fill="#A5987F"/>
<path d="M53.8562 76.2862C53.5017 76.284 53.163 76.423 52.9144 76.6725C52.6659 76.922 52.5279 77.2616 52.5308 77.6166V77.6166C52.5279 77.2616 52.3843 76.9204 52.1316 76.6678C51.8789 76.4153 51.5378 76.2723 51.1834 76.2701V76.2701C51.5378 76.2723 51.8766 76.1333 52.1251 75.8838C52.3737 75.6343 52.5117 75.2947 52.5087 74.9397V74.9397C52.5117 75.2947 52.6553 75.6359 52.908 75.8885C53.1607 76.141 53.5017 76.284 53.8562 76.2862V76.2862Z" fill="#555185"/>
<path d="M61.7546 75.3921C61.9996 75.3935 62.1965 75.1957 62.1945 74.9503C62.1925 74.7048 61.9923 74.5046 61.7473 74.5032C61.5024 74.5017 61.3054 74.6995 61.3074 74.9449C61.3095 75.1904 61.5097 75.3906 61.7546 75.3921Z" fill="#A5987F"/>
<path d="M74.3965 52.9361C74.1824 52.9348 73.9709 52.9756 73.7738 53.0564C73.5767 53.1371 73.398 53.2562 73.2479 53.4068C73.0977 53.5573 72.9791 53.7365 72.8988 53.9339C72.8185 54.1314 72.778 54.3433 72.7797 54.5576C72.7761 54.1248 72.601 53.7087 72.2928 53.4009C71.9847 53.093 71.5687 52.9186 71.1365 52.916C71.5687 52.9186 71.9818 52.7492 72.2849 52.445C72.588 52.1408 72.7563 51.7267 72.7527 51.294C72.7563 51.7267 72.9314 52.1428 73.2396 52.4507C73.5477 52.7586 73.9637 52.933 74.3959 52.9356L74.3965 52.9361Z" fill="#555185"/>
<path d="M71.1128 42.6525L71.2174 43.2161L71.7612 43.044C71.8772 43.0073 71.9985 42.989 72.1208 42.9897L72.1165 42.491L72.1363 42.9895C72.2932 42.9856 72.4498 43.0129 72.5966 43.07C72.7434 43.1271 72.8774 43.2126 72.9907 43.3214C73.1039 43.4301 73.1942 43.5599 73.2563 43.7029C73.3183 43.8459 73.3509 43.9994 73.3522 44.1541C73.3535 44.3089 73.3235 44.4619 73.2638 44.6042C73.2041 44.7465 73.116 44.8752 73.0045 44.9827C72.893 45.0901 72.7604 45.174 72.6145 45.2293C72.4687 45.2846 72.3126 45.3102 72.1556 45.3043L72.1477 45.304L72.1399 45.304L65.3385 45.2635L65.3385 45.2635L65.3356 45.2635C65.2038 45.2634 65.0736 45.2322 64.9558 45.1724C64.838 45.1126 64.7362 45.0261 64.6587 44.9203C64.5812 44.8146 64.5301 44.6925 64.5096 44.5643C64.489 44.4362 64.4995 44.3055 64.5403 44.1829C64.581 44.0604 64.6509 43.9494 64.7443 43.8594C64.8378 43.7694 64.9521 43.703 65.0778 43.6658C65.2035 43.6287 65.3369 43.6221 65.4667 43.6465C65.5964 43.6709 65.7187 43.7256 65.8233 43.8058L66.8066 44.56L66.618 43.3427C66.5271 42.7557 66.6719 42.1597 67.0217 41.6835C67.3717 41.2071 67.8989 40.8885 68.49 40.7975C69.0811 40.7065 69.6876 40.8506 70.1783 41.1981C70.669 41.5456 71.0043 42.0681 71.1128 42.6525Z" fill="white" stroke="black"/>
<path d="M73.6528 90.6621C73.8978 90.6636 74.0947 90.4658 74.0927 90.2203C74.0907 89.9748 73.8905 89.7746 73.6455 89.7732C73.4005 89.7717 73.2036 89.9695 73.2056 90.215C73.2077 90.4604 73.4079 90.6606 73.6528 90.6621Z" fill="#A5987F"/>
<path d="M132.559 67.9622L132.665 68.5192L133.204 68.3519C133.269 68.3318 133.336 68.3216 133.404 68.3215C133.577 68.3309 133.74 68.4053 133.86 68.5288C133.982 68.6541 134.051 68.8202 134.052 68.9921C134.054 69.1641 133.988 69.3294 133.868 69.4534C133.75 69.5755 133.589 69.648 133.416 69.6556L128.638 69.6268C128.638 69.6268 128.638 69.6268 128.638 69.6268C128.569 69.6264 128.502 69.6097 128.44 69.5783C128.379 69.5469 128.326 69.5017 128.286 69.4466C128.246 69.3916 128.22 69.3283 128.209 69.262C128.199 69.1957 128.204 69.1281 128.226 69.0646C128.247 69.0012 128.283 68.9436 128.331 68.8967C128.38 68.8498 128.439 68.8151 128.505 68.7955C128.57 68.776 128.64 68.7722 128.708 68.7847C128.776 68.7971 128.839 68.8253 128.894 68.8667L129.867 69.6041L129.687 68.404C129.631 68.0304 129.724 67.6515 129.947 67.3488C130.171 67.0459 130.507 66.8432 130.883 66.785C131.26 66.7268 131.647 66.818 131.96 67.0385C132.273 67.259 132.488 67.5908 132.559 67.9622Z" fill="white" stroke="black"/>
<path fill-rule="evenodd" clip-rule="evenodd" d="M149.114 31.7255C148.913 31.7821 148.237 32.1389 147.945 32.3307C146.854 33.0512 145.905 34.0126 144.938 34.967C140.18 39.6616 136.293 43.4923 131.578 48.3482C130.758 49.1913 129.995 49.9314 129.002 51.0471C128.128 52.0301 127.37 53.1617 127.881 53.9259C128.477 54.817 130.17 54.7178 131.187 54.6912C134.804 54.5922 138.405 53.8779 141.987 53.5296C145.438 53.1908 148.958 53.0767 152.741 52.554C153.812 52.4043 155.623 52.2639 156.416 51.3552C157.363 50.2676 155.301 47.1633 154.534 45.7862C153.645 44.1897 153.07 42.9313 152.143 41.4686C151.847 41.0057 151.308 40.6245 151.064 40.1153C150.847 39.674 151.012 38.7338 151.029 37.9917C151.059 36.5303 150.991 35.2346 150.827 33.8195C150.755 33.1785 150.549 31.3307 149.114 31.7255Z" fill="#00B2FF"/>
<path fill-rule="evenodd" clip-rule="evenodd" d="M149.114 31.7255C148.913 31.7821 148.237 32.1389 147.945 32.3307C146.854 33.0512 145.905 34.0126 144.938 34.967C140.18 39.6616 136.293 43.4923 131.578 48.3482C130.758 49.1913 129.995 49.9314 129.002 51.0471C128.128 52.0301 127.37 53.1617 127.881 53.9259C128.477 54.817 130.17 54.7178 131.187 54.6912C134.804 54.5922 138.405 53.8779 141.987 53.5296C145.438 53.1908 148.958 53.0767 152.741 52.554C153.812 52.4043 155.623 52.2639 156.416 51.3552C157.363 50.2676 155.301 47.1633 154.534 45.7862C153.645 44.1897 153.07 42.9313 152.143 41.4686C151.847 41.0057 151.308 40.6245 151.064 40.1153C150.847 39.674 151.012 38.7338 151.029 37.9917C151.059 36.5303 150.991 35.2346 150.827 33.8195C150.755 33.1785 150.549 31.3307 149.114 31.7255Z" fill="#00B2FF"/>
<path opacity="0.42" fill-rule="evenodd" clip-rule="evenodd" d="M149.114 31.7255C148.913 31.7821 148.237 32.1389 147.945 32.3307C146.854 33.0512 145.905 34.0126 144.938 34.967C140.18 39.6616 136.293 43.4923 131.578 48.3482C130.758 49.1913 129.995 49.9314 129.002 51.0471C128.128 52.0301 127.37 53.1617 127.881 53.9259C128.477 54.817 130.17 54.7178 131.187 54.6912C134.804 54.5922 138.405 53.8779 141.987 53.5296C145.438 53.1908 148.958 53.0767 152.741 52.554C153.812 52.4043 155.623 52.2639 156.416 51.3552C157.363 50.2676 155.301 47.1633 154.534 45.7862C153.645 44.1897 153.07 42.9313 152.143 41.4686C151.847 41.0057 151.308 40.6245 151.064 40.1153C150.847 39.674 151.012 38.7338 151.029 37.9917C151.059 36.5303 150.991 35.2346 150.827 33.8195C150.755 33.1785 150.549 31.3307 149.114 31.7255Z" fill="white"/>
<path fill-rule="evenodd" clip-rule="evenodd" d="M156.086 41.7316C155.805 41.1615 155.065 41.1363 154.572 40.9535C154.049 40.7589 153.551 40.5105 152.967 40.3091C152.026 39.9754 150.609 39.3274 149.63 39.4869C149.225 39.5551 148.387 39.9664 147.875 40.1989C145.985 41.0516 144.254 42.3422 142.458 43.5276C138.01 46.4649 132.927 49.5493 128.833 52.8505C128.566 53.0651 127.945 53.4184 128.109 53.6714C128.371 54.0747 129.186 53.6609 129.731 53.434C137.943 50.0084 146.426 45.6424 154.521 42.5666C155.062 42.363 155.794 42.2945 156.086 41.7316Z" fill="#00B2FF"/>
<path fill-rule="evenodd" clip-rule="evenodd" d="M156.086 41.7316C155.805 41.1615 155.065 41.1363 154.572 40.9535C154.049 40.7589 153.551 40.5105 152.967 40.3091C152.026 39.9754 150.609 39.3274 149.63 39.4869C149.225 39.5551 148.387 39.9664 147.875 40.1989C145.985 41.0516 144.254 42.3422 142.458 43.5276C138.01 46.4649 132.927 49.5493 128.833 52.8505C128.566 53.0651 127.945 53.4184 128.109 53.6714C128.371 54.0747 129.186 53.6609 129.731 53.434C137.943 50.0084 146.426 45.6424 154.521 42.5666C155.062 42.363 155.794 42.2945 156.086 41.7316Z" fill="#00B2FF"/>
<path d="M142.971 45.2551C142.991 44.8732 165.333 34.0996 164.994 40.5968C164.752 45.2269 173.449 45.1015 178.468 44.6471C180.645 44.4499 182.581 43.0794 183.712 41.1268L184.383 39.9673C186.969 35.5006 193.089 34.9417 195.907 38.9149V38.9149C198.146 42.0717 202.677 42.4901 205.795 39.8281L208.386 37.6161C210.568 35.7528 213.556 35.3137 215.99 36.4987L224.623 40.7024" stroke="#00B2FF" stroke-width="5"/>
<path fill-rule="evenodd" clip-rule="evenodd" d="M68.145 171.625C68.0968 171.632 68.0309 171.61 67.9894 171.625C66.7403 171.949 66.3022 174.358 65.7269 175.68C63.8144 180.068 62.3206 185.034 62.8188 190.893C63.0871 194.055 64.8025 197.324 66.2073 199.897C66.6506 200.698 67.3422 201.627 67.4979 202.307C67.7996 203.593 67.5624 205.148 67.6624 206.491C67.9501 210.361 68.3882 214.692 68.6291 218.535C56.855 217.092 37.9289 212.614 24.8627 212.187C24.1281 212.719 23.899 213.587 23.5692 214.341C22.627 216.516 21.7997 219.243 21.4742 222.077C22.2015 222.66 23.2489 223.014 24.2156 223.344C31.0118 225.656 45.4116 230.46 52.3279 232.991C56.1382 234.387 60.0626 235.74 64.1109 236.921C68.2199 238.121 72.6877 239.53 77.1837 239.838C84.7902 240.357 87.4581 237.204 89.2936 232.991C91.0557 228.939 91.5975 224.383 92.0371 219.044C92.2321 216.66 92.6613 213.548 92.0371 211.31C91.7903 210.429 91.0453 209.658 90.5805 208.776C87.5745 203.024 83.868 196.927 80.415 191.53C76.2222 184.983 71.7544 178.965 68.4697 172.003C68.4771 171.787 68.3489 171.675 68.145 171.625Z" fill="#FFAF0F"/>
<path opacity="0.19" d="M70.082 221.072C70.4178 222.188 71.1903 223.88 70.082 224.494C68.1413 224.005 67.2584 222.158 66.2072 220.818C65.4511 219.846 64.5645 218.85 63.907 217.939C65.4763 218.142 67.0523 218.341 68.6291 218.536C68.6098 218.231 68.5913 217.918 68.5646 217.607C68.638 217.622 68.7165 217.634 68.7936 217.648C69.1457 218.596 69.7143 219.868 70.082 221.072Z" fill="black"/>
<path fill-rule="evenodd" clip-rule="evenodd" d="M14.3616 223.889C13.0821 225.537 11.7707 227.062 10.1962 228.286C10.0302 228.415 9.60242 228.325 9.43118 228.447C9.21472 228.601 9.25253 228.964 9.02569 229.105C8.71434 229.3 8.39336 229.483 8.05977 229.653C7.28067 230.054 6.18354 230.642 5.25544 230.267C4.02562 229.769 4.40517 227.777 4.80695 226.123C5.65203 222.644 6.74767 219.484 8.15985 216.001C9.30887 213.187 10.6032 210.723 12.9583 210.344C14.2481 210.135 15.6566 210.295 17.1044 210.531C17.3164 210.566 17.4194 210.862 17.6329 210.899C17.8427 210.936 18.1622 210.712 18.3727 210.749C18.4387 210.761 18.5047 210.773 18.5714 210.784C20.5158 211.13 22.3817 211.642 24.5278 212.503C24.063 215.012 23.0941 218.262 21.8376 221.331C24.0859 221.869 24.504 223.177 23.9644 225.173C23.7783 225.857 23.2794 226.955 22.7649 227.13C21.7301 227.489 15.5625 224.6 14.3616 223.889Z" fill="#EFAD1B"/>
<path d="M12.973 220.026C10.3443 221.232 8.44214 224.408 8.7357 227.613C8.77647 228.026 8.84096 228.607 9.02555 229.103C9.43104 228.85 9.81726 228.57 10.1909 228.279C10.1286 228.11 10.073 227.942 10.05 227.778C9.92104 226.843 9.98924 225.687 10.4985 224.414C12.3317 219.794 17.1984 220.07 22.1614 221.432C22.3349 221.478 22.5046 221.542 22.6729 221.608C22.4283 221.501 22.1547 221.405 21.8397 221.33C21.9761 220.99 22.1095 220.648 22.2437 220.304C21.9005 220.218 21.5772 220.141 21.3 220.076C18.0679 219.289 15.294 218.962 12.973 220.026Z" fill="white"/>
<path d="M18.2606 211.354C18.3073 211.17 18.3503 210.963 18.3733 210.75C17.9492 210.677 17.5282 210.601 17.1042 210.532C17.1131 210.714 17.1257 210.899 17.0849 211.069C16.354 214.212 13.6393 214.857 10.9743 214.639C10.2545 214.581 9.38722 214.368 8.83718 214.465C8.7119 214.733 8.58514 215.008 8.46356 215.289C8.99952 215.752 10.7334 215.773 11.4569 215.792C14.5652 215.885 17.4637 214.857 18.2606 211.354Z" fill="white"/>
<path d="M12.2958 210.522C10.3529 211.218 9.19642 213.463 8.16008 216.002C6.74865 219.484 5.65301 222.644 4.80718 226.123C4.44617 227.603 4.10665 229.347 4.92505 230.057L12.2958 210.522Z" fill="#003294"/>
<path d="M19.5763 228.256C19.4814 228.337 19.3687 228.41 19.2353 228.473C18.9388 228.618 18.5815 228.617 18.179 228.462C16.7045 227.896 14.7319 225.283 14.3902 224.239C14.3561 224.138 14.3828 224.027 14.4584 223.949C14.5318 223.87 14.6511 223.832 14.7608 223.848C15.617 223.966 19.3183 225.855 19.8187 227.257C19.9499 227.634 19.8639 227.989 19.5763 228.256ZM15.3331 224.683C15.9869 225.823 17.4473 227.512 18.4392 227.888C18.6445 227.965 18.8024 227.982 18.9143 227.93C18.9914 227.89 19.0522 227.848 19.0967 227.809C19.1753 227.736 19.2412 227.646 19.1686 227.444C18.8432 226.535 16.5644 225.208 15.3331 224.683Z" fill="#003294"/>
<path d="M16.7418 229.836C16.5224 230.038 16.2125 230.124 15.83 230.098C15.4957 230.077 15.1977 229.902 14.9397 229.575C14.0161 228.386 13.8619 225.222 14.1784 224.178C14.2103 224.074 14.2926 223.996 14.409 223.965C14.5142 223.931 14.638 223.954 14.727 224.024C15.3363 224.501 17.0235 227.263 17.0828 228.834C17.1014 229.283 16.9887 229.619 16.7418 229.836ZM14.7225 225.016C14.6202 226.302 14.8782 228.423 15.4964 229.222C15.6254 229.385 15.7522 229.474 15.8738 229.486C16.0576 229.493 16.1881 229.465 16.2652 229.396C16.3727 229.306 16.4208 229.117 16.4097 228.854C16.3667 227.762 15.3675 225.932 14.7225 225.016Z" fill="#003294"/>
<path d="M12.3579 228.448L14.8064 224.409L14.2111 224.111L11.7611 228.153L12.3579 228.448Z" fill="#003294"/>
<path fill-rule="evenodd" clip-rule="evenodd" d="M108.111 227.552C101.377 237.564 99.3899 251.306 97.5596 265.166C97.7864 265.667 98.6337 265.639 99.1341 265.787C101.858 266.596 105.091 267.393 108.36 268.11C109.237 268.302 110.257 268.445 111.103 268.633C115.067 261.391 118.211 254.408 121.973 246.853C124.487 241.817 127.474 235.963 129.377 230.028C130.049 227.933 130.699 225.622 130.635 223.471C130.567 221.082 129.361 219.01 127.961 217.034C124.143 211.652 119.275 206.488 115.042 201.693C112.198 198.469 109.264 195.049 106.379 191.544C102.74 187.139 97.9933 182.238 99.9184 175.091C90.3764 173.894 79.7484 173.101 70.305 172.246C69.9603 172.214 69.9098 172.048 69.3598 172.121C68.4643 172.242 68.6793 172.639 68.4146 173.48C67.2975 177.077 66.5221 181.6 66.8364 186.1C67.2152 191.413 70.557 195.713 73.6149 199.343C82.44 209.821 96.2875 219.909 108.111 227.552Z" fill="#EB9E2A"/>
<path fill-rule="evenodd" clip-rule="evenodd" d="M111.151 274.318C113.017 275.418 114.741 276.542 116.109 277.874C116.326 278.085 116 278.277 116.198 278.499C116.297 278.61 116.928 278.747 117.023 278.862C117.238 279.123 117.441 279.393 117.628 279.673C118.068 280.326 118.719 281.25 118.261 282.003C117.652 283.005 115.364 282.64 113.464 282.262C109.479 281.47 105.863 280.48 101.887 279.219C98.6732 278.196 95.8674 277.062 95.4923 275.107C95.2877 274.036 95.51 272.879 95.8221 271.691C95.8622 271.538 96.5783 271.527 96.6205 271.373C96.6739 271.179 96.0549 270.842 96.109 270.647C96.1238 270.594 96.1387 270.541 96.1535 270.488C96.6057 268.891 97.2454 267.367 98.2966 265.62C101.18 266.069 104.9 266.958 108.405 268.079C109.089 266.236 110.607 265.926 112.894 266.427C113.676 266.6 114.93 267.039 115.119 267.469C115.5 268.335 112.006 273.344 111.151 274.318Z" fill="#EFAD1B"/>
<path d="M106.659 275.358C107.981 277.561 111.59 279.217 115.293 279.06C115.773 279.039 116.445 279 117.023 278.862C116.739 278.52 116.428 278.196 116.102 277.879C115.906 277.927 115.712 277.967 115.519 277.981C114.439 278.063 113.109 277.976 111.654 277.521C106.508 275.923 106.808 272.073 108.406 268.118L108.404 268.079C108.017 267.955 107.625 267.835 107.23 267.717C107.123 267.994 107.026 268.262 106.946 268.487C105.949 271.134 105.496 273.413 106.659 275.358Z" fill="white"/>
<path d="M96.8008 270.758C96.5932 270.718 96.3538 270.673 96.1092 270.647C96.0128 270.997 95.9127 271.344 95.8215 271.69C96.0328 271.688 96.2456 271.685 96.442 271.72C100.047 272.41 100.716 274.667 100.392 276.862C100.304 277.455 100.04 278.163 100.131 278.618C100.438 278.732 100.751 278.842 101.076 278.95C101.621 278.521 101.69 277.092 101.736 276.495C101.925 273.93 100.82 271.511 96.8008 270.758Z" fill="white"/>
<path d="M95.6797 275.662C96.4299 277.282 98.9881 278.297 101.887 279.22C105.863 280.481 109.478 281.471 113.464 282.263C115.166 282.601 117.166 282.926 118.007 282.273L95.6797 275.662Z" fill="#003294"/>
<path d="M116.33 270.134C116.419 270.216 116.503 270.31 116.568 270.421C116.728 270.671 116.72 270.967 116.526 271.293C115.836 272.498 112.766 274.053 111.553 274.306C111.436 274.331 111.312 274.306 111.226 274.243C111.138 274.18 111.094 274.081 111.117 273.989C111.273 273.288 113.553 270.284 115.183 269.908C115.623 269.809 116.029 269.888 116.33 270.134ZM112.094 273.541C113.427 273.029 115.413 271.87 115.874 271.062C115.969 270.896 115.989 270.764 115.935 270.672C115.892 270.607 115.843 270.556 115.803 270.517C115.72 270.448 115.617 270.393 115.383 270.447C114.324 270.691 112.735 272.536 112.094 273.541Z" fill="#003294"/>
<path d="M118.072 272.514C118.297 272.701 118.39 272.959 118.35 273.275C118.316 273.55 118.107 273.791 117.725 273.993C116.329 274.728 112.674 274.765 111.482 274.477C111.361 274.45 111.272 274.377 111.241 274.281C111.206 274.192 111.232 274.092 111.316 274.019C111.885 273.53 115.114 272.212 116.928 272.206C117.443 272.202 117.831 272.306 118.072 272.514ZM112.46 274.051C113.937 274.171 116.392 274.017 117.33 273.527C117.525 273.424 117.628 273.322 117.647 273.223C117.66 273.07 117.629 272.961 117.554 272.896C117.454 272.806 117.238 272.761 116.935 272.763C115.671 272.767 113.534 273.541 112.46 274.051Z" fill="#003294"/>
<path d="M116.354 276.098L111.761 273.966L111.403 274.45L115.995 276.582L116.354 276.098Z" fill="#003294"/>
<path opacity="0.19" d="M114.933 230.646C112.804 229.409 110.093 228.15 107.689 227.07C107.508 227.043 107.433 227.107 107.343 227.154C107.573 227.301 107.803 227.454 108.024 227.599C107.299 228.677 106.64 229.805 106.01 230.959C109.277 231.655 113.026 232.429 116.624 232.366C116.751 231.524 115.649 231.058 114.933 230.646Z" fill="black"/>
<path fill-rule="evenodd" clip-rule="evenodd" d="M14.0055 90.2054C13.3673 90.0518 11.3835 89.2384 10.3116 89.1243C9.89722 89.0766 9.38795 89.1193 9.25748 89.3965C8.98617 89.9759 10.623 90.5071 11.1663 90.7535C12.0959 91.1837 12.7142 91.5261 13.5237 91.8742C12.7698 91.7776 10.8498 90.9787 9.54362 90.7842C8.99654 90.7002 8.3531 90.6883 8.20484 91.0495C8.0121 91.5042 9.29899 92.0635 9.72228 92.2605C11.7616 93.213 14.0292 94.2904 15.4503 95.3032C17.0878 96.4709 18.3043 97.6498 19.3592 99.1342C19.6149 99.4935 19.967 100.347 20.4637 100.481C20.6957 100.545 21.3214 100.408 21.5453 100.329C22.3066 100.056 23.0694 99.5255 24.0546 98.8984C24.426 98.6582 24.8137 98.4324 25.234 98.08C25.5757 97.7953 26.2221 97.3582 26.3029 97.1795C26.4334 96.896 26.1206 96.2238 25.9315 95.8287C25.3778 94.6723 24.4393 93.1014 23.9426 92.1564C23.5186 91.3355 23.0753 90.4757 22.6735 89.6824C22.2999 88.9305 21.0938 86.4578 19.8106 86.7162C18.7491 86.9319 20.2843 89.2146 20.3377 89.8862C19.3258 89.0434 17.4266 87.8807 15.1671 87.0868C14.5756 86.8786 13.3606 86.3926 13.0263 86.7632C12.5637 87.2718 13.5125 87.6863 13.8988 87.9422C14.4384 88.2965 14.7854 88.6025 15.3139 88.8433C14.4421 88.6703 12.6764 87.9027 11.6111 87.8155C11.2605 87.7867 10.8246 87.8575 10.7104 88.0651C10.4495 88.5542 11.4451 88.8747 12.0455 89.1801C12.8654 89.5965 13.3613 89.9126 13.9366 90.191C13.9551 90.1935 13.9751 90.2004 14.0055 90.2054Z" fill="#FCD2C0"/>
<path fill-rule="evenodd" clip-rule="evenodd" d="M134.181 91.5608C134.04 92.573 133.685 94.29 133.552 95.5204C133.511 95.9437 133.448 96.6573 133.67 96.8994C133.809 97.0568 134.585 97.3352 135.014 97.534C135.514 97.7723 135.946 97.9028 136.372 98.0451C137.845 97.1427 139.571 96.5024 141.417 96.187C141.9 94.988 142.545 93.8943 143.445 92.7548C144.459 91.4737 146.264 89.9485 147.89 88.5921C148.23 88.3087 149.273 87.4953 148.93 87.1002C148.66 86.7854 148.042 86.9384 147.545 87.1309C146.357 87.6038 144.795 88.7871 144.105 89.0417C144.759 88.5338 145.233 88.0685 145.98 87.4552C146.409 87.0996 147.803 86.2348 147.336 85.7406C147.113 85.5017 146.611 85.5713 146.228 85.7036C145.27 86.0348 143.74 87.1648 143.131 87.4991L143.118 87.5091C143.101 87.5204 143.078 87.5285 143.058 87.5392C143.078 87.5285 143.111 87.5072 143.131 87.4991C143.578 87.1084 143.946 86.7033 144.584 86.1295C145.052 85.7062 145.901 85.1863 145.476 84.7718C145.297 84.5943 144.852 84.6213 144.528 84.7241C143.529 85.0377 142.105 86.1589 141.318 86.5126C141.742 86.1665 141.976 85.7996 142.366 85.3406C142.648 85.0082 143.419 84.4068 142.795 84.0199C142.339 83.7333 141.342 84.4639 140.847 84.7893C138.954 86.0398 137.533 87.5668 136.86 88.5984C136.672 87.9431 137.346 85.4146 136.255 85.4378C134.928 85.4635 134.631 88.1023 134.534 88.905C134.431 89.7523 134.304 90.6791 134.181 91.5608Z" fill="#FCD2C0"/>
<path fill-rule="evenodd" clip-rule="evenodd" d="M134.136 91.8545C136.175 92.3857 140.516 93.564 142.452 94.1572C140.159 99.6444 136.181 111.8 133.931 116.517C131.659 121.289 130.522 124.304 126.276 127.514C118.068 133.722 112.1 136.525 108.935 143.322C106.44 148.68 108.609 170.709 109.965 183.533C100.262 184.555 70.9113 186.918 58.9831 185.69C59.3671 178.39 60.9349 150.86 58.0179 145.625C56.0697 142.133 47.5841 135.326 45.2075 133.972C40.4928 131.289 35.8337 128.315 32.2577 124.669C28.4956 120.835 19.7972 106.097 17.1878 96.6939C19.4651 95.4027 22.1597 94.7166 24.8996 93.8926C30.1954 102.032 36.1962 111.97 45.1504 117.843C53.9808 123.631 62.4983 128.785 76.0545 132.035C81.7217 132.946 84.3667 132.829 87.7574 131.533C96.6374 127.045 107.849 123.715 116.245 118.8C124.742 113.826 134.136 91.8545 134.136 91.8545Z" fill="#F95C19"/>
<path fill-rule="evenodd" clip-rule="evenodd" d="M86.7761 128.057C90.874 127.702 93.3336 126.184 92.9259 122.3C92.7828 120.894 92.2291 118.921 91.8962 117.053C91.2854 113.634 90.4396 111.212 88.143 109.524C86.6189 108.406 84.4869 107.815 82.6633 107.525C80.8064 107.233 77.9739 107.702 76.5654 108.17C72.8374 109.414 69.7477 113.343 71.0071 117.558C71.5023 119.207 72.4423 120.633 73.3949 121.856C74.9427 123.846 75.3252 125.502 75.681 128.143C75.833 129.247 75.9709 131.703 75.9709 131.703C76.0013 134.067 80.1081 137.549 83.2037 137.115C85.0763 136.855 87.0607 134.906 86.7976 132.549L86.7761 128.057Z" fill="#FCD2C0"/>
<path fill-rule="evenodd" clip-rule="evenodd" d="M77.8747 122.732C78.0303 124.286 77.2779 125.514 75.183 125.773C71.859 126.189 64.7329 118.928 65.3889 114.247C65.6091 112.642 66.767 111.365 68.7115 110.456C69.8286 107.867 70.7011 106.401 74.7664 105.09C80.1119 103.367 89.4516 101.932 91.2729 104.597C92.8526 106.911 90.688 109.352 89.1654 110.438C88.3003 111.054 86.8133 111.744 85.5805 112.23C84.1757 112.789 82.3781 113.025 81.493 113.707C80.7442 114.292 80.6849 115.819 80.7746 116.986C80.8369 117.754 81.656 119.774 80.0578 120.265C77.9651 120.905 77.2164 117.66 75.054 118.138C73.077 118.58 73.6026 120.849 74.9502 121.999C75.8391 122.759 76.8361 122.659 77.8747 122.732Z" fill="#003294"/>
<path fill-rule="evenodd" clip-rule="evenodd" d="M85.6824 115.371C86.2406 114.723 86.8485 114.378 87.4252 114.211C88.7989 114.201 89.1117 114.458 89.1117 114.458C89.1117 114.458 89.257 114.755 88.658 115.369C88.4786 115.442 88.2777 115.511 88.0516 115.571C86.9508 115.862 85.6824 115.371 85.6824 115.371Z" fill="white"/>
<path fill-rule="evenodd" clip-rule="evenodd" d="M89.9554 114.411C89.9554 114.411 88.7826 113.822 87.4246 114.208C87.4031 114.303 87.3423 114.485 87.3586 114.583C87.4171 115.021 87.8893 115.353 88.4861 115.431C89.6106 115.024 89.9554 114.411 89.9554 114.411Z" fill="#003294"/>
<path d="M84.9799 114.703C86.0592 113.15 88.4307 112.881 89.3499 112.998L89.4752 112.379C88.0289 112.194 85.461 112.701 84.2779 114.404L84.9799 114.703Z" fill="#003294"/>
<path fill-rule="evenodd" clip-rule="evenodd" d="M90.962 113.97C90.2682 114.001 91.3927 117.681 92.1822 119.06C93.0792 119.116 94.1822 118.767 94.3268 118.173C94.627 116.995 91.6159 113.939 90.962 113.97Z" fill="#FCD2C0"/>
<path opacity="0.13" fill-rule="evenodd" clip-rule="evenodd" d="M90.962 113.97C90.2682 114.001 91.3927 117.681 92.1822 119.06C93.0792 119.116 94.1822 118.767 94.3268 118.173C94.627 116.995 91.6159 113.939 90.962 113.97Z" fill="black"/>
<path opacity="0.13" d="M87.9272 120.93L87.3682 121.504C88.8627 122.395 91.0947 122.853 92.8909 122.032C92.8605 121.78 92.8227 121.516 92.7708 121.236C91.2853 122.119 89.2548 121.725 87.9272 120.93Z" fill="black"/>
<path opacity="0.13" fill-rule="evenodd" clip-rule="evenodd" d="M86.7759 128.058C86.7759 128.058 82.6743 127.923 79.8507 126.758C79.8507 126.758 81.5624 130.933 86.853 130.975L86.7759 128.058Z" fill="black"/>
<path fill-rule="evenodd" clip-rule="evenodd" d="M75.311 143.303C77.3444 143.649 84.0272 138.479 83.7588 137.357C83.4638 136.153 77.4645 129.925 76.3206 129.73C74.5853 129.653 74.4941 131.644 74.2939 132.957C73.9529 135.18 73.9648 137.509 74.1316 139.877C74.2176 141.177 73.9277 143.071 75.311 143.303Z" fill="white"/>
<path fill-rule="evenodd" clip-rule="evenodd" d="M83.2859 137.421C83.5988 139.126 89.1548 142.08 90.3861 141.563C91.6819 141.015 88.8709 131.173 87.0191 130.99C85.3252 131.607 83.0124 135.941 83.2859 137.421Z" fill="white"/>
</svg>
