<svg width="491" height="448" viewBox="0 0 491 448" fill="none" xmlns="http://www.w3.org/2000/svg">
<path fill-rule="evenodd" clip-rule="evenodd" d="M187.664 239.897C161.96 235.973 141.716 221.574 121.128 208.292C98.9247 193.968 69.7222 181.661 63.7595 159.963C57.8025 138.286 80.2256 120.378 91.6016 100.848C102.799 81.6254 106.38 57.3583 129.649 46.8476C153.077 36.2648 183.413 41.8392 210.637 47.0777C235.657 51.8921 258.841 61.187 277.787 75.3529C296.569 89.3962 308.61 107.203 316.621 126.321C325.456 147.403 336.005 170.284 325.908 190.184C315.696 210.313 289.009 221.098 263.967 230.103C240.23 238.639 214.1 243.934 187.664 239.897Z" fill="white" fill-opacity="0.35"/>
<path opacity="0.3" fill-rule="evenodd" clip-rule="evenodd" d="M149.944 235.812C121.105 231.409 98.3895 215.253 75.2898 200.351C50.377 184.279 17.6111 170.469 10.9209 146.124C4.23704 121.802 29.3962 101.709 42.1603 79.7959C54.7237 58.2276 58.7426 30.9994 84.85 19.2062C111.137 7.33209 145.175 13.5867 175.721 19.4644C203.794 24.8662 229.806 35.2953 251.064 51.1897C272.138 66.9466 285.648 86.9261 294.637 108.377C304.55 132.032 316.387 157.704 305.058 180.033C293.599 202.618 263.656 214.719 235.558 224.823C208.924 234.4 179.606 240.342 149.944 235.812Z" fill="white"/>
<path d="M153.476 135.709V120.405L145.732 113.117L140.939 110.566L135.039 140.082H150.157L153.476 135.709Z" fill="#FFAC71" stroke="black"/>
<mask id="path-4-inside-1_665_1438" fill="white">
<path d="M178.789 350.755C175.944 351.342 173.005 351.135 170.257 350.155C167.508 349.176 165.042 347.455 163.095 345.161C158.155 339.199 157.544 330.574 157.178 322.618L156.094 299.088L164.099 307.068C169.855 312.807 175.735 318.72 179.225 326.263C182.715 333.805 183.356 343.447 178.761 350.279"/>
</mask>
<path d="M178.789 350.755C175.944 351.342 173.005 351.135 170.257 350.155C167.508 349.176 165.042 347.455 163.095 345.161C158.155 339.199 157.544 330.574 157.178 322.618L156.094 299.088L164.099 307.068C169.855 312.807 175.735 318.72 179.225 326.263C182.715 333.805 183.356 343.447 178.761 350.279" fill="#E6E6E6"/>
<path d="M163.095 345.161L162.342 345.803L162.334 345.794L163.095 345.161ZM157.178 322.618L156.182 322.646L156.182 322.646L157.178 322.618ZM156.094 299.088L155.098 299.116L154.981 296.579L156.789 298.382L156.094 299.088ZM164.099 307.068L164.794 306.362L164.794 306.362L164.099 307.068ZM179.006 351.737C175.985 352.36 172.861 352.141 169.939 351.1L170.574 349.211C173.149 350.129 175.903 350.323 178.571 349.772L179.006 351.737ZM169.939 351.1C167.017 350.058 164.402 348.232 162.342 345.803L163.849 344.518C165.682 346.679 167.999 348.293 170.574 349.211L169.939 351.1ZM162.334 345.794C157.138 339.525 156.545 330.532 156.182 322.646L158.174 322.59C158.543 330.615 159.171 338.874 163.856 344.527L162.334 345.794ZM156.182 322.646L155.098 299.116L157.09 299.06L158.174 322.59L156.182 322.646ZM156.789 298.382L164.794 306.362L163.403 307.774L155.399 299.793L156.789 298.382ZM164.794 306.362C170.531 312.081 176.548 318.118 180.128 325.854L178.322 326.672C174.922 319.322 169.18 313.532 163.403 307.774L164.794 306.362ZM180.128 325.854C183.71 333.596 184.443 343.637 179.59 350.851L177.932 349.707C182.27 343.257 181.72 334.014 178.322 326.672L180.128 325.854Z" fill="#222132" mask="url(#path-4-inside-1_665_1438)"/>
<path d="M173.626 378.204C173.656 378.191 173.689 378.165 173.712 378.123L173.744 378.005C175.612 371.162 177.486 364.295 177.834 357.209C178.145 350.873 177.208 344.522 174.299 338.991C172.753 336.057 170.74 333.435 168.353 331.242L168.353 331.242C168.323 331.215 168.307 331.21 168.305 331.21C168.305 331.21 168.305 331.209 168.305 331.209C168.304 331.209 168.303 331.209 168.301 331.209C168.291 331.211 168.25 331.227 168.206 331.285C168.163 331.342 168.143 331.408 168.144 331.46C168.145 331.501 168.157 331.542 168.207 331.588L168.207 331.589C172.494 335.536 175.492 340.833 176.776 346.711L176.776 346.712C178.186 353.233 177.613 359.983 176.325 366.403C175.547 370.285 174.511 374.097 173.478 377.884L173.472 377.907L173.463 377.928C173.441 377.987 173.442 378.052 173.462 378.106C173.479 378.155 173.509 378.188 173.539 378.207C173.566 378.216 173.595 378.217 173.626 378.204Z" fill="#F2F2F2" stroke="#222132"/>
<mask id="path-7-inside-2_665_1438" fill="white">
<path d="M167.217 364.486C165.796 366.186 163.989 367.467 161.97 368.203C159.952 368.94 157.79 369.109 155.693 368.693C150.312 367.557 146.357 362.797 142.824 358.313L132.374 345.049L140.39 345.906C146.156 346.522 152.066 347.181 157.256 349.934C162.446 352.688 166.844 358.029 167.002 364.221"/>
</mask>
<path d="M167.217 364.486C165.796 366.186 163.989 367.467 161.97 368.203C159.952 368.94 157.79 369.109 155.693 368.693C150.312 367.557 146.357 362.797 142.824 358.313L132.374 345.049L140.39 345.906C146.156 346.522 152.066 347.181 157.256 349.934C162.446 352.688 166.844 358.029 167.002 364.221" fill="#E6E6E6"/>
<path d="M155.693 368.693L155.517 369.677L155.505 369.674L155.693 368.693ZM142.824 358.313L142.047 358.926L142.047 358.926L142.824 358.313ZM132.374 345.049L131.597 345.663L130.131 343.803L132.461 344.052L132.374 345.049ZM140.39 345.906L140.303 346.903L140.303 346.903L140.39 345.906ZM167.985 365.14C166.458 366.967 164.51 368.349 162.326 369.147L161.615 367.26C163.467 366.584 165.133 365.406 166.449 363.833L167.985 365.14ZM162.326 369.147C160.141 369.944 157.795 370.128 155.517 369.677L155.868 367.709C157.784 368.089 159.763 367.936 161.615 367.26L162.326 369.147ZM155.505 369.674C152.581 369.057 150.09 367.464 147.908 365.5C145.732 363.542 143.811 361.166 142.047 358.926L143.601 357.699C145.369 359.944 147.193 362.19 149.223 364.017C151.247 365.839 153.424 367.193 155.88 367.712L155.505 369.674ZM142.047 358.926L131.597 345.663L133.151 344.435L143.601 357.699L142.047 358.926ZM132.461 344.052L140.478 344.909L140.303 346.903L132.287 346.046L132.461 344.052ZM140.478 344.909C146.211 345.521 152.318 346.19 157.708 349.049L156.804 350.819C151.814 348.173 146.101 347.522 140.303 346.903L140.478 344.909ZM157.708 349.049C163.122 351.921 167.828 357.55 167.999 364.214L166.006 364.228C165.859 358.507 161.771 353.454 156.804 350.819L157.708 349.049Z" fill="#222132" mask="url(#path-7-inside-2_665_1438)"/>
<path d="M175.718 382.994C175.719 382.983 175.719 382.956 175.703 382.912L175.703 382.912C174.1 378.454 172.371 373.786 169.981 369.693C167.594 365.604 164.566 362.122 160.385 360.007C158.055 358.831 155.536 358.143 152.965 357.978L152.964 357.978C152.931 357.976 152.917 357.982 152.916 357.982L152.916 357.982L152.916 357.982C152.914 357.983 152.912 357.984 152.907 357.99C152.894 358.005 152.87 358.053 152.871 358.133C152.872 358.212 152.897 358.277 152.926 358.314C152.946 358.34 152.971 358.36 153.026 358.363L153.028 358.363C157.572 358.678 161.872 360.656 165.205 363.96C168.4 367.111 170.652 371.129 172.438 375.254C173.521 377.755 174.445 380.326 175.362 382.876L175.391 382.958L174.923 383.121L175.391 382.958C175.419 383.035 175.455 383.059 175.48 383.07C175.515 383.086 175.568 383.092 175.623 383.076C175.678 383.059 175.704 383.031 175.712 383.017C175.715 383.012 175.718 383.005 175.718 382.994Z" fill="#F2F2F2" stroke="#222132"/>
<mask id="path-10-inside-3_665_1438" fill="white">
<path d="M291.253 342.02C296.304 344.869 301.956 346.279 307.664 346.115C313.372 345.951 318.945 344.217 323.845 341.082C336.356 332.866 342.129 316.974 347.082 302.196C351.966 287.626 356.85 273.057 361.734 258.487L342.363 268.633C328.433 275.93 314.176 283.48 303.554 295.566C292.931 307.652 286.555 325.442 291.56 341.14"/>
</mask>
<path d="M291.253 342.02C296.304 344.869 301.956 346.279 307.664 346.115C313.372 345.951 318.945 344.217 323.845 341.082C336.356 332.866 342.129 316.974 347.082 302.196C351.966 287.626 356.85 273.057 361.734 258.487L342.363 268.633C328.433 275.93 314.176 283.48 303.554 295.566C292.931 307.652 286.555 325.442 291.56 341.14" fill="#E6E6E6"/>
<path d="M323.845 341.082L324.401 341.925L324.391 341.931L323.845 341.082ZM347.082 302.196L346.137 301.86L346.137 301.86L347.082 302.196ZM361.734 258.487L361.261 257.596L363.481 256.433L362.68 258.823L361.734 258.487ZM342.363 268.633L341.89 267.742L341.89 267.742L342.363 268.633ZM291.729 341.148C296.62 343.907 302.091 345.271 307.617 345.112L307.711 347.117C301.82 347.287 295.988 345.831 290.778 342.892L291.729 341.148ZM307.617 345.112C313.143 344.953 318.544 343.275 323.299 340.233L324.391 341.931C319.346 345.159 313.602 346.948 307.711 347.117L307.617 345.112ZM323.289 340.239C335.472 332.239 341.161 316.703 346.137 301.86L348.028 302.532C343.096 317.245 337.24 333.493 324.401 341.925L323.289 340.239ZM346.137 301.86C351.021 287.29 355.905 272.72 360.789 258.151L362.68 258.823C357.796 273.393 352.912 287.962 348.028 302.532L346.137 301.86ZM362.208 259.378L342.837 269.525L341.89 267.742L361.261 257.596L362.208 259.378ZM342.837 269.525C328.882 276.834 314.791 284.309 304.306 296.238L302.801 294.894C313.562 282.651 327.984 275.026 341.89 267.742L342.837 269.525ZM304.306 296.238C293.826 308.162 287.647 325.598 292.509 340.85L290.611 341.43C285.464 325.286 292.035 307.143 302.801 294.894L304.306 296.238Z" fill="#222132" mask="url(#path-10-inside-3_665_1438)"/>
<path d="M285.681 396.456L285.678 396.77C285.712 396.993 285.822 397.186 285.976 397.315C286.134 397.447 286.328 397.506 286.521 397.485C286.717 397.449 286.902 397.335 287.035 397.153C287.171 396.968 287.237 396.731 287.218 396.492L287.216 396.469L287.216 396.446C287.296 388.667 287.385 380.861 287.996 373.084C289.006 360.222 291.534 347.215 297.641 335.865L297.641 335.864C303.167 325.651 311.586 317.572 321.69 312.798L321.69 312.798C322.145 312.583 322.269 312.085 322.095 311.621C322.011 311.395 321.871 311.234 321.725 311.155C321.597 311.087 321.421 311.057 321.176 311.173L321.176 311.173C315.448 313.869 310.202 317.614 305.674 322.24C297.148 330.969 291.945 342.459 289.124 354.657C285.971 368.284 285.826 382.426 285.681 396.456Z" fill="#F2F2F2" stroke="#222132"/>
<mask id="path-13-inside-4_665_1438" fill="white">
<path d="M305.716 375.001C307.486 379.078 310.207 382.598 313.619 385.224C317.031 387.85 321.017 389.492 325.195 389.992C335.949 391.146 345.959 384.591 355.024 378.298L381.838 359.686L366.261 356.392C355.059 354.023 343.56 351.647 332.297 353.66C321.035 355.673 309.88 363.052 306.263 374.632"/>
</mask>
<path d="M305.716 375.001C307.486 379.078 310.207 382.598 313.619 385.224C317.031 387.85 321.017 389.492 325.195 389.992C335.949 391.146 345.959 384.591 355.024 378.298L381.838 359.686L366.261 356.392C355.059 354.023 343.56 351.647 332.297 353.66C321.035 355.673 309.88 363.052 306.263 374.632" fill="#E6E6E6"/>
<path d="M325.195 389.992L325.107 390.989L325.095 390.987L325.195 389.992ZM355.024 378.298L355.601 379.127L355.601 379.127L355.024 378.298ZM381.838 359.686L382.025 358.705L384.322 359.19L382.414 360.515L381.838 359.686ZM366.261 356.392L366.073 357.373L366.073 357.373L366.261 356.392ZM306.629 374.614C308.331 378.536 310.946 381.916 314.216 384.432L313.022 386.016C309.468 383.281 306.64 379.619 304.804 375.388L306.629 374.614ZM314.216 384.432C317.484 386.947 321.3 388.518 325.294 388.996L325.095 390.987C320.735 390.465 316.577 388.752 313.022 386.016L314.216 384.432ZM325.282 388.995C330.422 389.546 335.43 388.261 340.315 386.023C345.208 383.783 349.912 380.618 354.447 377.469L355.601 379.127C351.071 382.271 346.238 385.53 341.17 387.851C336.095 390.176 330.721 391.591 325.107 390.989L325.282 388.995ZM354.447 377.469L381.261 358.857L382.414 360.515L355.601 379.127L354.447 377.469ZM381.65 360.667L366.073 357.373L366.448 355.411L382.025 358.705L381.65 360.667ZM366.073 357.373C354.839 354.997 343.532 352.673 332.489 354.647L332.105 352.673C343.589 350.62 355.278 353.048 366.448 355.411L366.073 357.373ZM332.489 354.647C321.472 356.617 310.692 363.816 307.215 374.948L305.311 374.315C309.068 362.288 320.597 354.73 332.105 352.673L332.489 354.647Z" fill="#222132" mask="url(#path-13-inside-4_665_1438)"/>
<path d="M336.191 370.985L336.192 370.986C336.441 371.049 336.563 371.181 336.626 371.327C336.697 371.491 336.709 371.717 336.639 371.954C336.493 372.446 336.102 372.733 335.647 372.617L335.646 372.617L335.646 372.617C327.026 370.456 317.976 371.538 310.021 375.674C302.388 379.618 296.036 385.764 290.475 392.426C287.104 396.466 283.991 400.737 280.893 404.989L280.797 405.121C280.482 405.553 280.004 405.556 279.641 405.311C279.459 405.188 279.34 405.021 279.299 404.853C279.261 404.698 279.276 404.497 279.45 404.257C284.858 396.836 290.644 389.058 297.382 382.767C304.116 376.479 311.774 371.705 320.917 370.257L336.191 370.985ZM336.191 370.985C331.19 369.704 326.006 369.457 320.917 370.257L336.191 370.985Z" fill="#F2F2F2" stroke="#222132"/>
<path d="M393.317 146.3L464.505 117.429L465.43 117.054C465.901 116.862 466.413 116.817 466.908 116.922C467.402 117.028 467.858 117.28 468.224 117.651C468.59 118.021 468.851 118.494 468.977 119.016C469.102 119.538 469.088 120.087 468.934 120.601L448.691 188.762C448.559 189.2 448.331 189.598 448.026 189.923C447.721 190.247 447.347 190.488 446.936 190.626C446.525 190.764 446.087 190.793 445.663 190.71C445.238 190.628 444.838 190.436 444.498 190.151L420.968 170.554C420.8 170.411 420.606 170.306 420.399 170.247C420.191 170.187 419.974 170.174 419.761 170.209C419.472 170.251 419.198 170.377 418.971 170.573C418.743 170.768 418.569 171.027 418.468 171.32L415.474 180.212C415.286 180.803 414.919 181.31 414.43 181.652C413.942 181.994 413.36 182.151 412.779 182.099L412.757 182.098C412.171 182.061 411.613 181.814 411.173 181.398C410.733 180.981 410.438 180.418 410.333 179.8L406.816 160.959C406.773 160.724 406.685 160.501 406.557 160.304C406.423 160.11 406.255 159.946 406.062 159.82L392.901 151.438C392.468 151.163 392.117 150.762 391.887 150.283C391.658 149.804 391.559 149.266 391.602 148.729C391.646 148.193 391.83 147.681 392.133 147.251C392.436 146.821 392.847 146.492 393.317 146.3L393.317 146.3ZM393.446 150.457L406.607 158.839C406.778 158.945 406.937 159.072 407.082 159.217L464.877 119.096C464.928 119.06 464.982 119.03 465.038 119.005C465.268 118.9 465.525 118.885 465.765 118.961C466.004 119.038 466.211 119.201 466.35 119.424C466.489 119.646 466.55 119.913 466.524 120.179C466.498 120.445 466.386 120.693 466.207 120.879L420.856 169.198C421.135 169.3 421.396 169.453 421.626 169.65L445.157 189.246C445.361 189.416 445.6 189.53 445.854 189.58C446.109 189.629 446.37 189.613 446.617 189.531C446.864 189.449 447.089 189.305 447.273 189.11C447.456 188.915 447.593 188.676 447.672 188.413L467.916 120.252C468.006 119.944 468.013 119.615 467.937 119.303C467.861 118.991 467.704 118.708 467.485 118.487C467.266 118.265 466.993 118.114 466.697 118.05C466.402 117.986 466.095 118.013 465.813 118.126L464.866 118.51L393.7 147.372C393.418 147.486 393.171 147.684 392.989 147.942C392.807 148.199 392.696 148.507 392.669 148.829C392.643 149.151 392.701 149.474 392.839 149.762C392.976 150.05 393.186 150.291 393.446 150.457L393.446 150.457Z" fill="#CCCCCC"/>
<path d="M393.318 146.3L464.505 117.429L465.43 117.054C465.902 116.862 466.414 116.817 466.908 116.922C467.402 117.028 467.859 117.28 468.225 117.651C468.591 118.021 468.852 118.494 468.977 119.016C469.103 119.538 469.088 120.087 468.935 120.601L448.691 188.762C448.56 189.2 448.332 189.598 448.026 189.923C447.721 190.247 447.347 190.488 446.937 190.626C446.525 190.764 446.088 190.793 445.663 190.71C445.238 190.628 444.839 190.436 444.499 190.151L420.968 170.554C420.8 170.411 420.606 170.306 420.399 170.247C420.191 170.187 419.974 170.174 419.762 170.209C419.472 170.251 419.199 170.377 418.971 170.573C418.743 170.768 418.569 171.027 418.468 171.32L415.474 180.212C415.286 180.803 414.919 181.31 414.43 181.652C413.942 181.994 413.361 182.151 412.779 182.099L412.758 182.098C412.171 182.061 411.613 181.814 411.173 181.398C410.734 180.981 410.438 180.418 410.333 179.8L406.816 160.959C406.773 160.724 406.685 160.501 406.557 160.304C406.423 160.11 406.255 159.946 406.062 159.82L392.901 151.438C392.468 151.163 392.117 150.762 391.887 150.283C391.658 149.804 391.559 149.266 391.603 148.729C391.646 148.193 391.83 147.681 392.133 147.251C392.437 146.821 392.847 146.492 393.318 146.3L393.318 146.3ZM393.446 150.457L406.607 158.839C406.778 158.945 406.938 159.072 407.082 159.217C407.212 159.346 407.329 159.489 407.431 159.644C407.537 159.802 407.627 159.972 407.699 160.151L407.699 160.157C407.775 160.343 407.831 160.537 407.866 160.737L411.383 179.577C411.443 179.949 411.619 180.289 411.883 180.539C412.147 180.79 412.483 180.937 412.835 180.956L412.846 180.957C413.196 180.992 413.546 180.9 413.841 180.695C414.135 180.49 414.356 180.185 414.468 179.83L417.462 170.931C417.617 170.474 417.878 170.066 418.221 169.746C418.565 169.427 418.978 169.206 419.424 169.106L419.429 169.106C419.489 169.093 419.549 169.081 419.608 169.073C420.027 169.006 420.456 169.049 420.856 169.198C421.135 169.3 421.396 169.453 421.627 169.65L445.157 189.246C445.361 189.416 445.6 189.53 445.855 189.58C446.109 189.629 446.371 189.613 446.618 189.531C446.865 189.449 447.089 189.305 447.273 189.11C447.457 188.915 447.594 188.676 447.672 188.413L467.916 120.252C468.006 119.944 468.013 119.615 467.937 119.303C467.861 118.991 467.705 118.708 467.485 118.487C467.266 118.265 466.993 118.114 466.698 118.05C466.402 117.986 466.096 118.013 465.813 118.126L464.866 118.51L393.701 147.372C393.418 147.486 393.172 147.684 392.989 147.942C392.807 148.199 392.696 148.507 392.669 148.829C392.643 149.151 392.702 149.474 392.839 149.762C392.976 150.05 393.187 150.291 393.446 150.457L393.446 150.457Z" fill="#3F3D56"/>
<path d="M406.863 159.368L407.446 160.328L407.698 160.157L407.699 160.151L465.449 120.067L419.429 169.106L419.424 169.106L419.302 169.24L420.056 170.052L420.856 169.198L466.207 120.879C466.386 120.692 466.498 120.445 466.524 120.179C466.55 119.913 466.489 119.646 466.35 119.424C466.211 119.201 466.005 119.038 465.765 118.961C465.525 118.885 465.268 118.9 465.038 119.005C464.982 119.03 464.928 119.06 464.877 119.096L407.082 159.217L406.863 159.368Z" fill="#3F3D56"/>
<path d="M206.754 293.246L206.754 293.244L213.223 266.087L189.618 262.338L184.487 285.699L184.487 285.699L182.878 293.035L182.878 293.035L164.52 376.673L164.478 376.867L164.314 376.976C161.472 378.87 159.303 381.73 158.154 385.098C163.676 389.181 169.457 392.847 175.457 396.067L175.458 396.068C178.292 397.595 181.182 399.018 184.128 400.337C185.575 398.312 186.552 395.945 186.975 393.431C187.419 390.785 187.236 388.064 186.442 385.517C186.182 384.688 185.857 383.885 185.47 383.115L185.387 382.949L185.43 382.77L188.551 369.675L188.552 369.664L188.558 369.641L204.663 302.025L204.663 302.025L206.62 293.815L206.621 293.813L206.754 293.246Z" fill="#FFAC71" stroke="#222132"/>
<path d="M221.738 131.369C208.724 141.684 205.982 161.34 215.646 175.277C220.538 182.333 226.077 188.376 231.994 191.365C234.945 192.856 237.979 193.581 241.071 193.304C244.161 193.028 247.342 191.749 250.587 189.177C257.098 184.017 262.582 174.667 265.213 164.83C267.847 154.984 267.586 144.797 262.804 137.899C253.14 123.962 234.752 121.054 221.738 131.369Z" fill="#FFAC71" stroke="#222132"/>
<path d="M276.952 327.508L276.95 327.513C276.936 327.581 276.921 327.649 276.908 327.712C276.611 329.048 275.924 330.245 274.951 331.128C273.978 332.011 272.771 332.533 271.509 332.627L217.87 336.508C217.443 336.539 217.014 336.521 216.59 336.454C215.313 336.25 214.13 335.604 213.223 334.609C212.315 333.613 211.734 332.321 211.574 330.929L276.952 327.508ZM276.952 327.508C279.546 313.548 281.016 299.376 281.345 285.148C281.426 281.183 281.411 277.099 281.271 272.938L281.271 272.938C281.046 265.933 280.416 258.951 279.384 252.03C279.315 251.59 279.247 251.158 279.168 250.732L279.168 250.728C277.958 243.91 275.273 237.491 271.331 231.985C264.641 222.707 254.871 216.547 244.053 214.777C242.97 214.605 241.888 214.479 240.794 214.402L240.793 214.402C233.89 213.894 226.973 215.203 220.649 218.217C214.324 221.231 208.783 225.859 204.515 231.698C203.432 233.179 202.439 234.733 201.54 236.348C197.125 244.287 195.093 253.484 195.721 262.697L195.721 262.698C195.954 266.187 196.57 269.633 197.555 272.967L197.555 272.968C199.591 279.864 201.415 286.263 203.026 292.164L203.027 292.169C203.121 292.524 203.217 292.879 203.313 293.234C203.361 293.414 203.41 293.594 203.458 293.774C204.236 296.655 204.961 299.409 205.631 302.035C208.594 313.638 210.526 322.82 211.398 329.491L211.407 329.559L211.407 329.563L276.952 327.508Z" fill="#F95C19" stroke="#222132"/>
<path d="M209.463 338.75L208.973 335.773C208.785 334.646 208.864 333.488 209.201 332.402C209.538 331.315 210.123 330.336 210.903 329.553L210.904 329.547M209.463 338.75L209.955 338.677L209.465 335.7L209.465 335.699C209.29 334.651 209.363 333.571 209.677 332.559C209.991 331.547 210.536 330.637 211.259 329.911L211.374 329.795L211.374 329.794M209.463 338.75C209.602 339.593 209.55 340.459 209.311 341.275C209.073 342.092 208.654 342.836 208.091 343.444L209.463 338.75ZM211.374 329.794C211.334 329.832 211.296 329.868 211.261 329.904L210.911 329.554L210.904 329.547M211.374 329.794C211.402 329.768 211.431 329.741 211.462 329.713C224.837 317.596 240.974 316.907 253.873 319.302C266.759 321.694 276.342 327.154 276.537 327.267C276.537 327.267 276.537 327.267 276.538 327.267L276.592 327.299L276.624 327.365C276.624 327.365 276.625 327.366 276.625 327.366C276.65 327.418 276.674 327.468 276.699 327.518C276.784 327.691 276.864 327.855 276.94 328.027L276.946 328.038L276.946 328.038C281.237 337.019 284.126 351.508 286.014 367.562C287.881 383.434 288.764 400.775 289.077 415.7M211.374 329.794L211.395 329.643L289.077 415.7M210.904 329.547L211.377 329.623M210.904 329.547C210.973 329.477 211.048 329.408 211.122 329.339M211.377 329.623L289.585 416.157C288.974 386.082 286.057 345.954 277.394 327.828C277.314 327.648 277.229 327.474 277.143 327.299C277.119 327.25 277.096 327.201 277.072 327.152L276.971 326.945M211.377 329.623L211.122 329.339M211.377 329.623L211.396 329.637L211.397 329.631L211.398 329.626L211.384 329.624L211.122 329.339M211.122 329.339C238.184 304.822 276.395 326.61 276.78 326.834M276.78 326.834L276.971 326.945M276.78 326.834L276.623 327.111L276.67 327.344L276.726 327.377L276.773 327.295L277.072 327.152L276.773 327.294L276.971 326.945M276.78 326.834L276.625 327.11L276.971 326.945M289.077 415.7C264.391 418.004 247.42 418.263 232.083 415.94C216.657 413.604 202.856 408.653 184.492 400.499C181.565 399.2 178.693 397.797 175.876 396.292C179.923 387.264 184.462 378.498 189.471 370.04L189.521 369.955L189.523 369.944C197.966 355.781 205.066 347.428 208.458 343.791L208.459 343.79C209.075 343.125 209.53 342.314 209.79 341.425C210.05 340.537 210.106 339.594 209.955 338.677L289.077 415.7Z" fill="#2F2E41" stroke="#222132"/>
<path d="M353.178 213.766L353.191 214.025L352.988 214.188L296.147 259.792L295.905 259.986L295.626 259.86L280.159 252.832L267.297 276.206L293.848 291.667C295.931 292.88 298.322 293.335 300.661 292.971C303 292.606 305.17 291.439 306.843 289.639L363.838 228.33L364.043 228.109L364.331 228.183C367.198 228.914 370.204 228.694 372.951 227.553C375.698 226.412 378.06 224.402 379.72 221.784C380.558 220.461 381.007 219.477 381.251 218.443C381.497 217.4 381.542 216.275 381.529 214.645C381.515 213.02 381.445 210.998 381.163 209.056C380.879 207.102 380.388 205.289 379.57 204.046C379.272 203.594 379.165 202.966 379.15 202.293C379.134 201.605 379.213 200.793 379.352 199.913C379.631 198.151 380.162 196.046 380.725 193.979C380.943 193.177 381.165 192.383 381.381 191.615C381.724 190.388 382.05 189.227 382.311 188.203C382.522 187.373 382.687 186.651 382.782 186.075C382.882 185.472 382.889 185.112 382.849 184.956L382.843 184.932L382.839 184.907C382.709 184.027 382.462 183.395 382.123 182.981C381.797 182.585 381.362 182.358 380.758 182.328C380.133 182.297 379.313 182.477 378.262 182.951C377.214 183.422 375.969 184.169 374.505 185.23L374.49 185.24L374.475 185.25C373.801 185.668 372.483 186.804 370.816 188.36C369.166 189.902 367.212 191.817 365.285 193.756C361.421 197.642 357.692 201.589 356.71 202.799C354.774 205.186 353.56 208.152 353.234 211.302C353.155 212.121 353.136 212.944 353.178 213.766Z" fill="#FFAC71" stroke="#222132"/>
<path d="M293.798 259.835L293.797 259.836L281.41 272.576L281.409 272.577L275.505 278.657L275.504 278.657L270.327 283.98L270.327 283.98C269.708 284.617 268.971 285.101 268.165 285.403C267.36 285.704 266.506 285.816 265.66 285.732C264.814 285.648 263.994 285.37 263.255 284.916C262.517 284.462 261.876 283.841 261.379 283.095L248.042 263.087L248.042 263.087L242.539 254.824L242.519 254.794L242.495 254.767C239.316 251.196 237.585 246.415 237.693 241.47C237.801 236.525 239.739 231.832 243.075 228.418C246.411 225.005 250.868 223.153 255.467 223.255C260.065 223.357 264.441 225.403 267.637 228.955L267.663 228.983L267.692 229.007L271.421 232.082L271.421 232.082L293.312 250.15L293.798 259.835ZM293.798 259.835C294.331 259.289 294.764 258.642 295.077 257.925M293.798 259.835L295.077 257.925M295.077 257.925L295.124 257.81C295.665 256.495 295.779 255.025 295.448 253.634C295.117 252.244 294.363 251.02 293.313 250.15L295.077 257.925Z" fill="#F95C19" stroke="#222132"/>
<path d="M225.465 256.097L219.747 289.934L219.711 290.149C219.547 291.124 219.188 292.05 218.658 292.864C218.129 293.677 217.442 294.359 216.643 294.863C215.845 295.366 214.954 295.68 214.032 295.782C213.11 295.885 212.178 295.773 211.3 295.455L207.106 293.939L206.034 293.549L206.029 293.548L202.545 292.289L184 285.583L180.449 284.301C179.572 283.983 178.769 283.466 178.095 282.787C177.421 282.107 176.892 281.28 176.544 280.363C176.195 279.445 176.036 278.458 176.076 277.468C176.116 276.479 176.355 275.51 176.776 274.628L191.574 243.726C193.118 238.934 196.377 234.992 200.635 232.765C204.893 230.538 209.803 230.206 214.29 231.844C218.776 233.482 222.471 236.954 224.566 241.501C226.661 246.047 226.984 251.296 225.465 256.097V256.097Z" fill="#F95C19"/>
<path d="M238.796 160.332C246.834 168.3 252.94 174.55 263.047 169.028C269.684 165.403 269.348 153.753 267.948 145.927C263.419 131.332 257.842 125.764 248.102 118.982C233.006 112.302 227.039 110.403 212.262 114.243C197.662 120.014 193 128.619 188.061 150.676C182.79 166.19 182.225 167.052 176.709 180.444C173.112 193.832 157.748 198.739 144.726 199.166C131.704 199.593 117.403 198.124 106.935 206.416C93.5819 216.994 93.4 239.663 102.518 254.518C111.636 269.374 127.32 277.942 142.757 284.525C163.21 293.247 185.745 299.702 207.111 294.011C228.478 288.319 247.469 266.88 244.754 243.517C243.607 233.649 238.917 224.718 234.392 216.03C229.867 207.341 225.321 198.286 224.511 188.379C223.836 180.124 226.442 171.077 232.217 165.882C233.262 164.978 238.797 178.431 239.145 177.043C239.492 175.655 242.255 163.505 238.87 160.405L238.796 160.332Z" fill="#222132"/>
</svg>
