<svg width="65" height="71" viewBox="0 0 65 71" fill="none" xmlns="http://www.w3.org/2000/svg">
<path d="M33.7672 51.0383V45.3673H28.6244V51.0383H33.7672ZM36.3386 51.0383H26.0529V44.3993C20.779 42.3438 16.8211 37.2161 15.9479 30.9664C9.98949 29.8367 5.4815 24.5631 5.4815 18.2279V11.3418C5.4815 9.77584 6.63277 8.50636 8.05293 8.50636H15.7672C15.7672 6.94038 16.9185 5.6709 18.3386 5.6709H44.0529C45.4731 5.6709 46.6244 6.94038 46.6244 8.50636H54.3386C55.7588 8.50636 56.9101 9.77584 56.9101 11.3418V18.2279C56.9101 24.5631 52.4021 29.8367 46.4437 30.9664C45.5704 37.2161 41.6126 42.3438 36.3386 44.3993V51.0383ZM18.3386 8.50636V28.3546C18.3386 36.1845 24.095 42.5319 31.1958 42.5319C38.2966 42.5319 44.0529 36.1845 44.0529 28.3546V8.50636H18.3386ZM54.3386 18.2279V11.3418H46.6244V28.036C51.0875 26.9054 54.3386 22.902 54.3386 18.2279ZM15.7672 11.3418H8.05293V18.2279C8.05293 22.902 11.304 26.9054 15.7672 28.036V11.3418Z" fill="#222132"/>
<path d="M41.4815 51.0383C42.9017 51.0383 44.0529 51.7858 44.0529 53.8738V59.5447C44.0529 61.6327 42.9017 62.3802 41.4815 62.3802H20.9101C19.4899 62.3802 18.3386 61.6327 18.3386 59.5447V53.8738C18.3386 51.7858 19.4899 51.0383 20.9101 51.0383H41.4815ZM20.9101 59.5447H41.4815V53.8738H20.9101V59.5447Z" fill="#222132"/>
</svg>
