<svg width="30" height="31" viewBox="0 0 30 31" fill="none" xmlns="http://www.w3.org/2000/svg">
<path fill-rule="evenodd" clip-rule="evenodd" d="M1.18217 18.7234C1.29571 18.8837 1.80539 19.3571 2.05455 19.5466C2.98851 20.2536 4.0586 20.7363 5.12984 21.2391C10.3988 23.7109 14.6999 25.7324 20.0786 28.1027C21.0129 28.5156 21.8481 28.9169 23.0524 29.3792C24.1131 29.7856 25.2482 30.0286 25.6594 29.2642C26.1389 28.3725 25.4742 26.8737 25.1006 25.9615C23.7679 22.7165 21.9667 19.728 20.4542 16.6131C18.9944 13.613 17.6838 10.4621 15.9669 7.23285C15.4796 6.31937 14.7422 4.73003 13.7667 4.36754C12.6002 3.93647 10.9251 7.03018 10.1307 8.26841C9.20947 9.70338 8.43994 10.7209 7.63523 12.1383C7.38158 12.5895 7.27499 13.2285 6.9675 13.6504C6.70285 14.021 5.92139 14.2415 5.34393 14.5184C4.20784 15.0663 3.2332 15.6378 2.20005 16.3434C1.73123 16.6611 0.379643 17.576 1.18217 18.7234Z" fill="#00B2FF"/>
<path fill-rule="evenodd" clip-rule="evenodd" d="M1.18217 18.7234C1.29571 18.8837 1.80539 19.3571 2.05455 19.5466C2.98851 20.2536 4.0586 20.7363 5.12984 21.2391C10.3988 23.7109 14.6999 25.7324 20.0786 28.1027C21.0129 28.5156 21.8481 28.9169 23.0524 29.3792C24.1131 29.7856 25.2482 30.0286 25.6594 29.2642C26.1389 28.3725 25.4742 26.8737 25.1006 25.9615C23.7679 22.7165 21.9667 19.728 20.4542 16.6131C18.9944 13.613 17.6838 10.4621 15.9669 7.23285C15.4796 6.31937 14.7422 4.73003 13.7667 4.36754C12.6002 3.93647 10.9251 7.03018 10.1307 8.26841C9.20947 9.70338 8.43994 10.7209 7.63523 12.1383C7.38158 12.5895 7.27499 13.2285 6.9675 13.6504C6.70285 14.021 5.92139 14.2415 5.34393 14.5184C4.20784 15.0663 3.2332 15.6378 2.20005 16.3434C1.73123 16.6611 0.379643 17.576 1.18217 18.7234Z" fill="#00B2FF"/>
<path opacity="0.42" fill-rule="evenodd" clip-rule="evenodd" d="M1.18217 18.7234C1.2957 18.8837 1.80539 19.3571 2.05455 19.5466C2.98851 20.2536 4.0586 20.7363 5.12984 21.2391C10.3988 23.7109 14.6999 25.7324 20.0786 28.1027C21.0129 28.5156 21.8481 28.9169 23.0524 29.3792C24.1131 29.7856 25.2482 30.0286 25.6594 29.2642C26.1389 28.3725 25.4742 26.8737 25.1006 25.9615C23.7679 22.7165 21.9667 19.728 20.4542 16.6131C18.9944 13.613 17.6838 10.4621 15.9669 7.23284C15.4796 6.31937 14.7422 4.73002 13.7667 4.36754C12.6002 3.93647 10.9251 7.03018 10.1307 8.26841C9.20947 9.70338 8.43994 10.7209 7.63523 12.1383C7.38158 12.5895 7.27499 13.2285 6.9675 13.6504C6.70285 14.021 5.92139 14.2415 5.34393 14.5184C4.20784 15.0663 3.2332 15.6378 2.20005 16.3434C1.73122 16.6611 0.379641 17.576 1.18217 18.7234Z" fill="white"/>
<path fill-rule="evenodd" clip-rule="evenodd" d="M6.45411 8.50768C6.11309 8.98572 6.35043 9.66538 6.3809 10.1835C6.41271 10.7333 6.39417 11.2807 6.44184 11.8884C6.5117 12.8712 6.50458 14.4071 6.96688 15.2304C7.15998 15.5703 7.76718 16.1673 8.1239 16.5401C9.43559 17.9154 11.0292 18.9757 12.5646 20.1362C16.3679 23.0094 20.5044 26.3986 24.4648 28.8082C24.7227 28.966 25.21 29.3891 25.3479 29.1419C25.5671 28.7462 24.9662 28.1715 24.6025 27.7673C19.1174 21.6792 12.815 15.7156 7.63971 9.5966C7.29528 9.18671 6.98884 8.55168 6.45411 8.50768Z" fill="#00B2FF"/>
<path fill-rule="evenodd" clip-rule="evenodd" d="M6.45411 8.50768C6.11309 8.98572 6.35043 9.66538 6.3809 10.1835C6.41271 10.7333 6.39417 11.2807 6.44184 11.8884C6.5117 12.8712 6.50458 14.4071 6.96688 15.2304C7.15998 15.5703 7.76718 16.1673 8.1239 16.5401C9.43559 17.9154 11.0292 18.9757 12.5646 20.1362C16.3679 23.0094 20.5044 26.3986 24.4648 28.8082C24.7227 28.966 25.21 29.3891 25.3479 29.1419C25.5671 28.7462 24.9662 28.1715 24.6025 27.7673C19.1174 21.6792 12.815 15.7156 7.63971 9.5966C7.29528 9.18671 6.98884 8.55168 6.45411 8.50768Z" fill="#00B2FF"/>
</svg>
