<svg width="133" height="141" viewBox="0 0 133 141" fill="none" xmlns="http://www.w3.org/2000/svg">
<path opacity="0.4" d="M24.4546 35.7912C13.9975 47.785 15.0504 63.1872 15.0836 63.3628V110.213C15.0836 111.767 15.6675 113.256 16.7068 114.355C17.746 115.453 19.1556 116.07 20.6253 116.07H53.8753C59.9878 116.07 64.9587 110.817 64.9587 104.357V63.3628C64.9587 61.8096 64.3748 60.3201 63.3355 59.2218C62.2963 58.1235 60.8867 57.5065 59.417 57.5065H42.3597C42.4768 54.6112 43.2954 51.7962 44.7371 49.3311C47.5523 44.6402 52.8556 41.4367 60.5087 39.8204L64.9587 38.8834V22.3685H59.417C43.9945 22.3685 32.2296 26.8838 24.4546 35.7912ZM85.4517 35.7912C74.9891 47.785 76.0475 63.1872 76.0808 63.3628V110.213C76.0808 111.767 76.6646 113.256 77.7039 114.355C78.7432 115.453 80.1527 116.07 81.6224 116.07H114.872C120.985 116.07 125.956 110.817 125.956 104.357V63.3628C125.956 61.8096 125.372 60.3201 124.333 59.2218C123.293 58.1235 121.884 57.5065 120.414 57.5065H103.357C103.474 54.6112 104.293 51.7962 105.734 49.3311C108.549 44.6402 113.853 41.4367 121.506 39.8204L125.956 38.8834V22.3685H120.414C104.992 22.3685 93.2267 26.8838 85.4517 35.7912V35.7912Z" fill="#FFAF0F"/>
</svg>
