<svg width="126" height="80" viewBox="0 0 126 80" fill="none" xmlns="http://www.w3.org/2000/svg">
<ellipse cx="63.4073" cy="78.5379" rx="62.5928" ry="0.998855" fill="#FBE4BF"/>
<path d="M31.5044 35.3774H23.7969C23.4376 35.3774 23.0783 35.5313 22.8627 35.8049L18.9641 40.4724C18.3353 41.2247 18.8923 42.3189 19.8984 42.3189H31.5044V35.3774V35.3774Z" fill="#F27B79"/>
<path d="M19.8987 42.4049H31.5946V35.2925H23.7973C23.4021 35.2925 23.0248 35.4635 22.7913 35.7541L18.8926 40.4216C18.5872 40.7978 18.5154 41.2936 18.7489 41.721C18.9466 42.1313 19.3957 42.4049 19.8987 42.4049ZM31.4149 42.2339H19.8987C19.4676 42.2339 19.0903 42.0117 18.8926 41.6355C18.713 41.2594 18.7489 40.832 19.0184 40.5242L22.917 35.8567C23.1326 35.6002 23.4381 35.4635 23.7794 35.4635H31.397V42.2339H31.4149Z" fill="#3F3D56"/>
<path d="M110.034 6.03867C110.034 6.67136 109.495 7.16726 108.848 7.16726H104.968C104.303 7.16726 103.782 6.65426 103.782 6.03867C103.782 5.40597 104.321 4.91008 104.968 4.91008H108.848C109.495 4.89298 110.034 5.40597 110.034 6.03867Z" fill="#3F3D56"/>
<path d="M95.3916 7.37256H100.171V13.8182H95.3916V7.37256Z" fill="#3F3D56"/>
<path d="M107.698 55.1763V17.4942C107.698 14.297 104.968 11.6982 101.608 11.6982H84.0014C80.6418 11.6982 77.9109 14.297 77.9109 17.4942V52.2014C77.9109 55.1421 75.4137 57.5187 72.3235 57.5187H67.3829C64.2927 57.5187 61.7954 55.1421 61.7954 52.2014V37.0363C61.7954 37.0363 61.9212 32.4542 64.8856 31.7874H34.4513C34.4513 31.7874 21.8032 41.6012 19.1442 57.4161V59.16H107.698V55.1763Z" fill="#FFD078"/>
<path d="M19.0543 59.2455H107.788V17.4942C107.788 14.2458 105.021 11.6128 101.608 11.6128H84.0013C80.5877 11.6128 77.821 14.2458 77.821 17.4942V52.2015C77.821 55.0909 75.3596 57.4332 72.3234 57.4332H67.3828C64.3465 57.4332 61.8852 55.0909 61.8852 52.2015V37.0363C61.8852 36.985 62.029 32.5226 64.9215 31.8729L65.676 31.702H34.4332L34.4152 31.7191C34.3793 31.7362 31.1993 34.2323 27.7498 38.6092C24.5519 42.6612 20.4557 49.2095 19.0903 57.399L19.0543 59.2455ZM107.609 59.0745H19.234V57.4161C20.5994 49.2779 24.6776 42.7467 27.8576 38.7289C31.1454 34.5572 34.1816 32.1123 34.487 31.8729H64.3465C61.8493 32.9159 61.7235 36.8482 61.7055 37.0363V52.2015C61.7055 55.1764 64.2567 57.6042 67.3828 57.6042H72.3234C75.4495 57.6042 78.0007 55.1764 78.0007 52.2015V17.4942C78.0007 14.3483 80.6955 11.7838 84.0013 11.7838H101.608C104.914 11.7838 107.609 14.3483 107.609 17.4942V59.0745Z" fill="#3F3D56"/>
<path d="M95.6972 11.6807H97.8531V49.568H95.6972V11.6807Z" fill="#3F3D56"/>
<path d="M12 30.8643H36.2476V32.8136H12V30.8643Z" fill="#3F3D56"/>
<path d="M41.3319 59.2622H69.8978V64.853H41.3319V59.2622Z" fill="#3F3D56"/>
<path d="M31.0376 75.8641C23.8538 75.8641 18.0302 69.5643 18.0302 61.7931C18.0302 54.022 23.8538 47.7222 31.0376 47.7222C38.2213 47.7222 44.0449 54.022 44.0449 61.7931C44.0449 69.5643 38.2213 75.8641 31.0376 75.8641Z" fill="#2F2E41"/>
<path d="M28.8456 70.3238C24.1722 70.3238 20.3836 66.2209 20.3836 61.1597C20.3836 56.0985 24.1722 51.9956 28.8456 51.9956C33.519 51.9956 37.3076 56.0985 37.3076 61.1597C37.3076 66.2209 33.519 70.3238 28.8456 70.3238Z" fill="#FEFEFE"/>
<path d="M28.8458 70.4098C33.5708 70.4098 37.3976 66.2552 37.3976 61.1602C37.3976 56.0653 33.5528 51.9106 28.8458 51.9106C24.1387 51.9106 20.2939 56.0653 20.2939 61.1602C20.2939 66.2552 24.1207 70.4098 28.8458 70.4098ZM28.8458 52.0816C33.463 52.0816 37.2179 56.1507 37.2179 61.1602C37.2179 66.1697 33.463 70.2388 28.8458 70.2388C24.2285 70.2388 20.4736 66.1697 20.4736 61.1602C20.4736 56.1507 24.2285 52.0816 28.8458 52.0816Z" fill="#3F3D56"/>
<path d="M33.319 61.2111C33.319 63.2456 32.3129 65.0579 29.097 65.0579C27.2105 65.0579 26.5099 63.2456 26.5099 61.2111C26.5099 59.1765 27.2285 57.5181 29.097 57.5181C32.3129 57.5181 33.319 59.1594 33.319 61.2111Z" fill="#3F3D56"/>
<path d="M28.8818 64.904C26.9965 64.904 25.4682 63.2506 25.4682 61.2111C25.4682 59.1715 26.9965 57.5181 28.8818 57.5181C30.767 57.5181 32.2953 59.1715 32.2953 61.2111C32.2953 63.2506 30.767 64.904 28.8818 64.904Z" fill="#FEFEFE"/>
<path d="M28.8815 64.9725C30.8039 64.9725 32.3849 63.2799 32.3849 61.194C32.3849 59.1082 30.8218 57.4155 28.8815 57.4155C26.9412 57.4155 25.3782 59.1082 25.3782 61.194C25.3782 63.2799 26.9592 64.9725 28.8815 64.9725ZM28.8815 57.6036C30.7141 57.6036 32.2052 59.2278 32.2052 61.2111C32.2052 63.1944 30.7141 64.8186 28.8815 64.8186C27.049 64.8186 25.5578 63.1944 25.5578 61.2111C25.5578 59.2278 27.049 57.6036 28.8815 57.6036Z" fill="#3F3D56"/>
<path d="M104.321 75.8641C97.1369 75.8641 91.3133 69.5643 91.3133 61.7931C91.3133 54.022 97.1369 47.7222 104.321 47.7222C111.504 47.7222 117.328 54.022 117.328 61.7931C117.328 69.5643 111.504 75.8641 104.321 75.8641Z" fill="#2F2E41"/>
<path d="M102.129 70.3238C97.4552 70.3238 93.6667 66.2209 93.6667 61.1597C93.6667 56.0985 97.4552 51.9956 102.129 51.9956C106.802 51.9956 110.591 56.0985 110.591 61.1597C110.591 66.2209 106.802 70.3238 102.129 70.3238Z" fill="#FEFEFE"/>
<path d="M102.129 70.4098C106.854 70.4098 110.681 66.2552 110.681 61.1602C110.681 56.0653 106.836 51.9106 102.129 51.9106C97.4216 51.9106 93.577 56.0653 93.577 61.1602C93.577 66.2552 97.4037 70.4098 102.129 70.4098ZM102.129 52.0816C106.746 52.0816 110.501 56.1507 110.501 61.1602C110.501 66.1697 106.746 70.2388 102.129 70.2388C97.5115 70.2388 93.7566 66.1697 93.7566 61.1602C93.7566 56.1507 97.5115 52.0816 102.129 52.0816Z" fill="#3F3D56"/>
<path d="M106.603 61.2111C106.603 63.2456 105.596 64.904 102.381 64.904C100.494 64.904 99.7934 63.2456 99.7934 61.2111C99.7934 59.1765 100.512 57.5181 102.381 57.5181C105.596 57.5181 106.603 59.1594 106.603 61.2111Z" fill="#3F3D56"/>
<path d="M102.165 64.904C100.28 64.904 98.7513 63.2506 98.7513 61.2111C98.7513 59.1715 100.28 57.5181 102.165 57.5181C104.05 57.5181 105.578 59.1715 105.578 61.2111C105.578 63.2506 104.05 64.904 102.165 64.904Z" fill="#FEFEFE"/>
<path d="M102.165 64.9725C104.087 64.9725 105.668 63.2799 105.668 61.194C105.668 59.1082 104.105 57.4155 102.165 57.4155C100.224 57.4155 98.6614 59.1082 98.6614 61.194C98.6614 63.2799 100.242 64.9725 102.165 64.9725ZM102.165 57.6036C103.997 57.6036 105.488 59.2278 105.488 61.2111C105.488 63.1944 103.997 64.8186 102.165 64.8186C100.332 64.8186 98.841 63.1944 98.841 61.2111C98.841 59.2278 100.35 57.6036 102.165 57.6036Z" fill="#3F3D56"/>
<path d="M7.12516 57.4671H8.77807C8.99366 55.8428 10.4488 54.5947 12.2095 54.5947H48.932V61.1942H12.2095C10.5387 61.1942 9.13733 60.0658 8.81394 58.5613H7.12516V57.4671V57.4671Z" fill="#3F3D56"/>
<path d="M13.6464 59.1592C13.6464 59.1592 11.3648 41.7542 32.7263 37.0183C40.4337 35.3086 58.1301 34.1973 54.1597 59.1592H13.6464Z" fill="#FFD078"/>
<path d="M13.5565 59.2457H54.2136L54.2316 59.1774C55.7048 49.8936 54.3213 43.2941 50.1173 39.6011C44.979 35.0704 36.9842 35.9936 32.6903 36.951C27.8035 38.0282 23.7612 39.8747 20.6531 42.4221C18.1738 44.4567 16.2874 46.9529 15.0657 49.8423C12.9817 54.7492 13.5207 59.1261 13.5386 59.1774L13.5565 59.2457ZM54.0698 59.0748H13.7183C13.6644 58.4764 13.323 54.4072 15.2454 49.8936C17.1498 45.4141 21.7311 39.5498 32.7263 37.1049C36.9842 36.1646 44.9072 35.2413 49.9916 39.7208C54.1597 43.3796 55.525 49.8936 54.0698 59.0748Z" fill="#3F3D56"/>
<path d="M62.8733 32.8135H36.0861C33.3013 32.8135 31.0376 30.6593 31.0376 28.0092C31.0376 25.2053 33.5528 22.9997 36.4813 23.222L63.1787 25.2395C65.2448 25.3933 66.8438 27.0347 66.8438 29.0179C66.8438 31.1038 65.0651 32.8135 62.8733 32.8135Z" fill="#3F3D56"/>
<path d="M90.3251 57.2283H120.939C120.939 57.2283 120.436 52.9369 117.4 49.0387C110.752 40.5756 96.9366 41.7382 92.0498 51.2101C91.1695 52.8856 90.5586 54.8689 90.3251 57.2283Z" fill="#FFD078"/>
<path d="M90.2172 57.314H121.029L121.011 57.2114C121.011 57.1601 120.472 52.8517 117.454 48.9877C114.31 44.9699 109.279 42.8498 103.997 43.3114C98.751 43.7731 94.2595 46.7138 91.9419 51.1761C91.0257 52.9713 90.4328 54.9888 90.2172 57.2114V57.314ZM120.831 57.143H90.4328C90.6484 54.9888 91.2233 53.0055 92.1216 51.2616C94.4033 46.8505 98.8408 43.944 104.033 43.4995C109.243 43.0379 114.22 45.1408 117.328 49.1074C120.059 52.6123 120.723 56.4934 120.831 57.143Z" fill="#3F3D56"/>
<path d="M13.4308 60.2885H92.1756V58.0316H120.903V55.98H92.1218C90.954 55.98 90.0197 56.8861 90.0197 57.9804V58.2368H13.4308V60.2885Z" fill="#3F3D56"/>
<path d="M68.6762 71.3502H73.9402V69.2986H69.4128L59.2799 61.9468L57.9864 63.571L68.6762 71.3502Z" fill="#3F3D56"/>
<path d="M95.2299 9.51026H101.787C102.183 9.51026 102.578 9.45896 102.937 9.37348C105.021 8.87766 106.566 7.08246 106.566 4.94531C106.566 3.68012 106.027 2.55171 105.165 1.73105C104.554 1.14974 103.8 0.739413 102.937 0.534247C102.56 0.448761 102.183 0.397461 101.769 0.397461H100.817C97.5295 0.397461 94.3855 1.95331 92.6787 4.63757C92.5889 4.77434 92.4991 4.92822 92.4093 5.08209C91.3133 7.09956 92.8404 9.51026 95.2299 9.51026Z" fill="#FFD078"/>
<path d="M95.2297 9.5953H101.787C102.183 9.5953 102.578 9.544 102.973 9.45851C105.147 8.9456 106.674 7.09911 106.674 4.94487C106.674 3.69677 106.171 2.53416 105.237 1.66221C104.608 1.06381 103.817 0.636375 102.973 0.431209C102.578 0.345723 102.183 0.294434 101.787 0.294434H100.835C97.4575 0.294434 94.3134 1.93576 92.6246 4.58582C92.5348 4.73969 92.445 4.87648 92.3552 5.03035C91.8162 5.98779 91.8341 7.1333 92.427 8.07365C93.0378 9.03109 94.0799 9.5953 95.2297 9.5953ZM101.787 0.482498C102.165 0.482498 102.56 0.533798 102.919 0.619284C103.746 0.807353 104.5 1.21768 105.111 1.79898C105.991 2.63674 106.494 3.76516 106.494 4.96196C106.494 7.03072 105.021 8.80883 102.937 9.30464C102.56 9.39013 102.183 9.44142 101.805 9.44142H95.2477C94.1518 9.44142 93.1636 8.9114 92.6067 8.00525C92.0497 7.1162 92.0138 6.03908 92.5348 5.13293C92.6246 4.97906 92.7145 4.84228 92.8043 4.68841C94.4572 2.08964 97.5474 0.482498 100.853 0.482498H101.787V0.482498Z" fill="#3F3D56"/>
<path d="M99.6494 4.96142C99.6494 6.77372 100.476 8.39795 101.787 9.52636H101.805C104.446 9.52636 106.602 7.4918 106.602 4.96142C106.602 3.69623 106.063 2.56782 105.201 1.74715C104.339 0.926487 103.135 0.413574 101.823 0.413574H101.805C100.458 1.52489 99.6494 3.14912 99.6494 4.96142Z" fill="#3F3D56"/>
<path d="M100.961 4.96185C100.961 6.70576 101.715 8.26161 102.937 9.39002C105.021 8.8942 106.566 7.099 106.566 4.96185C106.566 3.69666 106.027 2.56825 105.165 1.74758C104.554 1.16628 103.799 0.755947 102.937 0.550781C101.715 1.645 100.961 3.21794 100.961 4.96185Z" fill="#FEFEFE"/>
<path d="M102.919 9.47507L102.973 9.45797C105.147 8.94505 106.674 7.09857 106.674 4.94432C106.674 3.69623 106.171 2.53362 105.237 1.66167C104.608 1.06326 103.818 0.635833 102.973 0.430667L102.919 0.413574L102.883 0.447771C101.59 1.62748 100.871 3.2175 100.871 4.92722C100.871 6.63694 101.59 8.22697 102.883 9.40668L102.919 9.47507ZM102.973 0.635835C103.782 0.841001 104.518 1.23423 105.111 1.79844C105.992 2.6362 106.495 3.76461 106.495 4.96142C106.495 7.01308 105.057 8.77408 102.973 9.287C101.734 8.14149 101.051 6.60274 101.051 4.96142C101.051 3.30299 101.734 1.78135 102.973 0.635835Z" fill="#3F3D56"/>
<path d="M88.7801 5.35498H92.3195V6.74007H88.7801V5.35498Z" fill="#FFD078"/>
<path d="M88.7083 6.8427H92.4272V5.28662H88.7083V6.8427ZM92.2297 6.6717H88.87V5.45762H92.2297V6.6717Z" fill="#3F3D56"/>
<path d="M93.6492 4.89307H92.2299C91.5652 4.89307 91.0441 5.40606 91.0441 6.02165C91.0441 6.65434 91.5831 7.15024 92.2299 7.15024H93.6492C94.3139 7.15024 94.835 6.63725 94.835 6.02165C94.835 5.40606 94.3139 4.89307 93.6492 4.89307Z" fill="#3F3D56"/>
<path d="M89.4628 6.03867C89.4628 6.67136 88.9239 7.16726 88.2771 7.16726H84.3964C83.7317 7.16726 83.2106 6.65426 83.2106 6.03867C83.2106 5.40597 83.7496 4.91008 84.3964 4.91008H88.2771C88.9239 4.89298 89.4628 5.40597 89.4628 6.03867Z" fill="#3F3D56"/>
<path d="M25.3425 54.7832H42.8773V55.7411H25.3425V54.7832Z" fill="white"/>
<path d="M25.2523 55.8267H42.9668V54.6978H25.2523V55.8267ZM42.7871 55.6556H25.432V54.8688H42.7871V55.6556Z" fill="black"/>
<path d="M25.3425 52.2524H42.8773V53.2103H25.3425V52.2524Z" fill="white"/>
<path d="M25.2523 53.2959H42.9668V52.167H25.2523V53.2959ZM42.7871 53.1249H25.432V52.338H42.7871V53.1249Z" fill="black"/>
<path d="M25.3425 49.7393H42.8773V50.6971H25.3425V49.7393Z" fill="white"/>
<path d="M25.2523 50.7827H42.9668V49.6538H25.2523V50.7827ZM42.7871 50.6117H25.432V49.8249H42.7871V50.6117Z" fill="black"/>
<path d="M4.85641 78.5586H120.159V78.8234H4.85641V78.5586Z" fill="#3F3D56"/>
</svg>
