<svg width="181" height="35" viewBox="0 0 181 35" fill="none" xmlns="http://www.w3.org/2000/svg">
<path d="M31.2564 0H3.98806C3.00188 0 2.05609 0.395088 1.35875 1.09835C0.661413 1.80161 0.269653 2.75544 0.269653 3.75L0.269653 31.25C0.269653 32.2446 0.661413 33.1984 1.35875 33.9017C2.05609 34.6049 3.00188 35 3.98806 35H14.6204V23.1008H9.73997V17.5H14.6204V13.2313C14.6204 8.37578 17.4867 5.69375 21.8767 5.69375C23.9791 5.69375 26.1777 6.07188 26.1777 6.07188V10.8375H23.7553C21.3685 10.8375 20.6241 12.3312 20.6241 13.8633V17.5H25.9522L25.1001 23.1008H20.6241V35H31.2564C32.2426 35 33.1884 34.6049 33.8857 33.9017C34.583 33.1984 34.9748 32.2446 34.9748 31.25V3.75C34.9748 2.75544 34.583 1.80161 33.8857 1.09835C33.1884 0.395088 32.2426 0 31.2564 0V0Z" fill="#F95C19"/>
<path d="M90.1827 11.6642C86.9965 11.6642 84.3962 14.2866 84.3962 17.5C84.3962 20.7134 86.9965 23.3358 90.1827 23.3358C93.369 23.3358 95.9693 20.7134 95.9693 17.5C95.9693 14.2866 93.369 11.6642 90.1827 11.6642ZM107.538 17.5C107.538 15.0834 107.56 12.6886 107.425 10.2764C107.291 7.47448 106.657 4.9878 104.625 2.93891C102.589 0.885649 100.128 0.250846 97.3497 0.115129C94.9535 -0.0205876 92.579 0.0013022 90.1871 0.0013022C87.7909 0.0013022 85.4163 -0.0205876 83.0244 0.115129C80.2462 0.250846 77.7805 0.890027 75.7489 2.93891C73.713 4.99217 73.0836 7.47448 72.949 10.2764C72.8144 12.693 72.8361 15.0877 72.8361 17.5C72.8361 19.9123 72.8144 22.3114 72.949 24.7236C73.0836 27.5255 73.7174 30.0122 75.7489 32.0611C77.7849 34.1144 80.2462 34.7492 83.0244 34.8849C85.4207 35.0206 87.7952 34.9987 90.1871 34.9987C92.5833 34.9987 94.9578 35.0206 97.3497 34.8849C100.128 34.7492 102.594 34.11 104.625 32.0611C106.661 30.0078 107.291 27.5255 107.425 24.7236C107.564 22.3114 107.538 19.9166 107.538 17.5ZM90.1827 26.4792C85.2557 26.4792 81.2794 22.469 81.2794 17.5C81.2794 12.531 85.2557 8.52081 90.1827 8.52081C95.1098 8.52081 99.0861 12.531 99.0861 17.5C99.0861 22.469 95.1098 26.4792 90.1827 26.4792ZM99.4508 10.2501C98.3004 10.2501 97.3714 9.31322 97.3714 8.15306C97.3714 6.9929 98.3004 6.05602 99.4508 6.05602C100.601 6.05602 101.53 6.9929 101.53 8.15306C101.53 8.42854 101.477 8.70139 101.373 8.95597C101.268 9.21055 101.115 9.44187 100.922 9.63666C100.729 9.83146 100.499 9.98591 100.247 10.0912C99.9945 10.1964 99.7239 10.2504 99.4508 10.2501Z" fill="#F95C19"/>
<path d="M176.387 0H149.119C147.066 0 145.4 1.67969 145.4 3.75V31.25C145.4 33.3203 147.066 35 149.119 35H176.387C178.44 35 180.105 33.3203 180.105 31.25V3.75C180.105 1.67969 178.44 0 176.387 0ZM172.599 12.4062C172.614 12.625 172.614 12.8516 172.614 13.0703C172.614 19.8437 167.502 27.6484 158.159 27.6484C155.277 27.6484 152.605 26.8047 150.358 25.3516C150.769 25.3984 151.164 25.4141 151.582 25.4141C153.96 25.4141 156.145 24.6016 157.888 23.2266C155.657 23.1797 153.782 21.7031 153.139 19.6719C153.922 19.7891 154.627 19.7891 155.432 19.5781C153.108 19.1016 151.365 17.0391 151.365 14.5469V14.4844C152.039 14.8672 152.829 15.1016 153.658 15.1328C152.961 14.6653 152.39 14.0311 151.995 13.2868C151.601 12.5425 151.395 11.7113 151.396 10.8672C151.396 9.91406 151.644 9.03906 152.086 8.28125C154.588 11.3906 158.345 13.4219 162.559 13.6406C161.839 10.1641 164.418 7.34375 167.517 7.34375C168.981 7.34375 170.298 7.96094 171.228 8.96094C172.374 8.74219 173.474 8.3125 174.45 7.72656C174.071 8.91406 173.273 9.91406 172.219 10.5469C173.242 10.4375 174.233 10.1484 175.148 9.75C174.458 10.7734 173.59 11.6797 172.599 12.4062Z" fill="#F95C19"/>
</svg>
