<svg width="387" height="285" viewBox="0 0 387 285" fill="none" xmlns="http://www.w3.org/2000/svg">
<path fill-rule="evenodd" clip-rule="evenodd" d="M0.627416 131.23C0.988112 153.466 12.8013 174.185 24.4322 195.277C37.6603 219.266 44.813 246.649 73.2348 262.902C102.915 279.874 142.851 286.333 179.435 283.912C214.867 281.567 239.122 260.964 270.455 249.849C308.288 236.429 366.8 239.868 382.695 211.812C398.496 183.923 354.519 154.645 341.237 124.917C329.532 98.7202 334.03 68.9607 309.27 47.475C283.843 25.41 244.41 14.7876 206.246 7.77715C168.405 0.826079 127.645 -2.96348 93.0029 7.74869C59.5149 18.1039 39.4682 41.7218 22.3133 64.6532C7.13494 84.9425 0.245195 107.666 0.627416 131.23Z" stroke="#FFEAD9"/>
</svg>
