<svg width="27" height="27" viewBox="0 0 27 27" fill="none" xmlns="http://www.w3.org/2000/svg">
<path d="M5.91876 11.685C7.96659 15.93 11.2659 19.395 15.2904 21.57L18.4191 18.27C18.803 17.865 19.3719 17.73 19.8696 17.91C21.4624 18.465 23.1831 18.765 24.9465 18.765C25.7287 18.765 26.3686 19.44 26.3686 20.265V25.5C26.3686 26.325 25.7287 27 24.9465 27C11.593 27 0.770752 15.585 0.770752 1.5C0.770752 0.675 1.4107 0 2.19286 0H7.17022C7.95237 0 8.59232 0.675 8.59232 1.5C8.59232 3.375 8.87674 5.175 9.40292 6.855C9.55935 7.38 9.44558 7.965 9.04739 8.385L5.91876 11.685Z" fill="white"/>
</svg>
